<svg width="515" height="218" fill="none" xmlns="http://www.w3.org/2000/svg"><path d="M130.771 135.103h24.001v33.921h-24.001v45.86H88.732v-45.86H1.891L0 142.528 88.296 2.912h42.475v132.191zm-88.878 0h46.84v-74.83l-2.765 4.803-44.075 70.027z" fill="url(#paint0_linear_312_12548)"/><path d="M339.896 127.241c0 29.312-6.061 51.732-18.183 67.261-12.122 15.529-29.868 23.293-53.239 23.293-23.08 0-40.73-7.619-52.949-22.856-12.218-15.238-18.473-37.076-18.764-65.514V90.408c0-29.602 6.109-52.07 18.328-67.406C227.405 7.667 245.103 0 268.183 0c23.08 0 40.729 7.619 52.948 22.857 12.219 15.14 18.474 36.93 18.765 65.368v39.016zm-42.039-42.802c0-17.567-2.424-30.33-7.273-38.288-4.752-8.056-12.219-12.084-22.401-12.084-9.892 0-17.213 3.834-21.965 11.501-4.655 7.57-7.128 19.46-7.419 35.669v51.537c0 17.276 2.328 30.136 6.983 38.58 4.751 8.347 12.315 12.52 22.692 12.52 10.279 0 17.698-4.028 22.255-12.083 4.558-8.056 6.934-20.382 7.128-36.979V84.439z" fill="url(#paint1_linear_312_12548)"/><path d="M490.999 135.103H515v33.921h-24.001v45.86H448.96v-45.86h-86.841l-1.891-26.496L448.524 2.912h42.475v132.191zm-88.878 0h46.839v-74.83l-2.764 4.803-44.075 70.027z" fill="url(#paint2_linear_312_12548)"/><path d="M168.96 163.959c-14.734-26.384-5.31-59.727 21.05-74.472l104.622-58.523c26.359-14.745 59.673-5.31 74.408 21.075 14.734 26.385 5.31 59.727-21.049 74.472l-104.623 58.524c-26.359 14.745-59.673 5.309-74.408-21.076z" fill="#FFE4C2"/><path d="M243.623 122.197c-14.734-26.385-5.31-59.728 21.049-74.472l-74.661 41.764c-26.359 14.744-35.783 48.087-21.049 74.471 14.735 26.385 48.049 35.821 74.408 21.076l74.661-41.764c-26.36 14.745-59.673 5.309-74.408-21.075z" fill="#F2D1A5"/><path d="M325.156 112.415l-81.82 45.769a7.81 7.81 0 01-10.63-3.011l-22.868-40.949c-2.105-3.769-.759-8.533 3.007-10.639l81.821-45.769a7.808 7.808 0 0110.629 3.01l22.868 40.95a7.821 7.821 0 01-3.007 10.639z" fill="#FFF2DE"/><path d="M236.937 90.108l-24.09 13.476c-3.766 2.106-5.112 6.87-3.007 10.639l22.868 40.949a7.81 7.81 0 0010.63 3.011l24.09-13.476c-9.715-4.722-18.135-12.36-23.804-22.512a54.51 54.51 0 01-6.687-32.087z" fill="#FFE4C2"/><path d="M248.82 135.692c5.533-3.094 8.021-9.177 5.558-13.587-2.464-4.409-8.946-5.476-14.479-2.382-5.533 3.094-8.021 9.177-5.558 13.586 2.464 4.41 8.946 5.476 14.479 2.383zm54.302-30.366c5.533-3.094 8.021-9.177 5.558-13.587-2.464-4.41-8.946-5.476-14.479-2.382-5.533 3.094-8.021 9.177-5.558 13.586 2.464 4.41 8.946 5.476 14.479 2.383z" fill="#FFA1AC"/><path d="M276.178 101.875c-2.79-4.997-6.669-3.443-11.13-.947-4.461 2.495-7.815 4.988-5.025 9.985 2.79 4.996 8.669 7.024 13.13 4.529 4.461-2.496 5.816-8.57 3.025-13.567zm-36.226 18.111a2.831 2.831 0 01-1.707-1.351l-2.287-4.095a2.848 2.848 0 011.094-3.874 2.843 2.843 0 013.87 1.096l2.287 4.096a2.848 2.848 0 01-3.257 4.128zm50.956-28.502a2.835 2.835 0 01-1.708-1.35l-2.287-4.097a2.848 2.848 0 011.095-3.873 2.841 2.841 0 013.869 1.096l2.287 4.096a2.848 2.848 0 01-1.095 3.873 2.832 2.832 0 01-2.161.255z" fill="#495560"/><path d="M316.331 54.793a2.929 2.929 0 003.616-2.023 2.928 2.928 0 10-5.637-1.597 2.932 2.932 0 002.021 3.62zm24.773 44.36a2.93 2.93 0 003.616-2.024 2.928 2.928 0 10-5.637-1.597 2.932 2.932 0 002.021 3.62zm-8.258-14.788a2.93 2.93 0 003.616-2.023 2.928 2.928 0 10-5.637-1.597 2.932 2.932 0 002.021 3.62zm-8.258-14.785a2.93 2.93 0 003.616-2.023 2.928 2.928 0 10-5.637-1.597 2.932 2.932 0 002.021 3.62zm27.728 13.597a2.933 2.933 0 001.595-5.643 2.932 2.932 0 00-1.595 5.643zm-8.258-14.786a2.932 2.932 0 001.595-5.643 2.93 2.93 0 00-3.616 2.024 2.933 2.933 0 002.021 3.62zm-8.256-14.787a2.933 2.933 0 001.595-5.643 2.932 2.932 0 00-1.595 5.643zM220.078 166.852a2.932 2.932 0 001.595-5.643 2.933 2.933 0 00-1.595 5.643zm-24.774-44.362a2.933 2.933 0 001.595-5.643 2.933 2.933 0 00-1.595 5.643zm8.258 14.787a2.93 2.93 0 003.616-2.023 2.928 2.928 0 10-5.637-1.597 2.932 2.932 0 002.021 3.62zm8.258 14.787a2.933 2.933 0 001.595-5.643 2.929 2.929 0 00-3.616 2.024 2.93 2.93 0 002.021 3.619zm-27.729-13.598a2.928 2.928 0 003.616-2.024 2.93 2.93 0 10-5.637-1.596 2.934 2.934 0 002.021 3.62zm8.258 14.787a2.932 2.932 0 001.595-5.643 2.93 2.93 0 00-3.616 2.023 2.934 2.934 0 002.021 3.62zm8.258 14.787a2.932 2.932 0 001.595-5.643 2.93 2.93 0 00-3.616 2.023 2.934 2.934 0 002.021 3.62z" fill="#F2BB88"/><defs><linearGradient id="paint0_linear_312_12548" x1="449" y1="-111.4" x2="449" y2="335.865" gradientUnits="userSpaceOnUse"><stop stop-color="#00AAE4"/><stop offset="1" stop-color="#0383DF"/></linearGradient><linearGradient id="paint1_linear_312_12548" x1="449" y1="-111.4" x2="449" y2="335.865" gradientUnits="userSpaceOnUse"><stop stop-color="#00AAE4"/><stop offset="1" stop-color="#0383DF"/></linearGradient><linearGradient id="paint2_linear_312_12548" x1="449" y1="-111.4" x2="449" y2="335.865" gradientUnits="userSpaceOnUse"><stop stop-color="#00AAE4"/><stop offset="1" stop-color="#0383DF"/></linearGradient></defs></svg>