<svg width="415" height="319" fill="none" xmlns="http://www.w3.org/2000/svg"><path d="M373.564 192.794c-22.636 0-40.987-18.482-40.987-41.281 0-22.8 18.351-41.282 40.987-41.282 22.636 0 40.987 18.482 40.987 41.282 0 22.799-18.351 41.281-40.987 41.281zM161.108 52.92c-14.509 0-26.271-11.847-26.271-26.46 0-14.614 11.762-26.46 26.271-26.46s26.271 11.847 26.271 26.46c0 14.613-11.762 26.46-26.271 26.46z" fill="#F2F8FC"/><path d="M399.726 299.622s23.327-90.908-63.443-101.887c-86.66-11.089-36.408-143.608-136.586-143.608-100.178 0-83.391 98.374-128.956 105.401-60.499 9.442-92.765 80.257-53.631 140.204h382.616v-.11z" fill="#F2F8FC"/><path d="M50.245 301.818c5.778-2.965 10.03-8.784 11.228-15.261.654-3.404.327-7.137-1.308-10.211-1.635-3.074-4.687-5.49-8.175-5.709-2.944-.22-6.323.878-8.394-1.208-1.744-1.757-1.417-4.611-1.526-7.136-.327-5.49-4.578-10.65-9.81-11.968-1.527-.439-3.162-.549-4.797-1.098-4.36-1.537-6.868-5.819-9.266-9.771-2.398-3.953-5.56-8.015-10.028-8.564-.436 0-.763-.11-1.09.11-.437.22-.546.769-.655 1.208-.98 3.842-.436 8.015 1.418 11.418 2.07 3.623 5.45 6.258 8.393 9.113 1.2 1.098 2.29 2.305 2.834 3.842 1.2 3.404-.763 7.137-.545 10.76.327 4.282 3.706 7.685 6.977 10.32 1.09.879 2.18 1.757 2.725 2.965.763 1.757.327 3.733-.436 5.38-.654 1.756-1.635 3.403-1.744 5.27-.11 2.305 1.09 4.282 2.398 6.148 7.63 11.528 21.802 4.392 21.802 4.392z" fill="#50AF2E"/><path d="M4.136 228.697c8.612 9.442 16.025 19.872 23.11 30.412 7.304 10.979 14.607 22.068 21.366 33.377 3.924 6.477 7.74 12.955 10.9 19.762.436.988-1.09 1.976-1.526.878-2.834-6.038-6.213-11.747-9.592-17.456-3.27-5.6-6.759-11.089-10.247-16.469-6.977-10.87-13.953-21.739-21.584-32.279-4.25-5.929-8.83-11.528-13.735-16.908-.654-.878.545-2.086 1.308-1.317z" fill="#fff"/><path d="M65.944 304.221c6.43-.988 12.317-5.16 15.478-10.869 1.636-3.075 2.508-6.588 1.963-10.101-.545-3.404-2.726-6.698-5.996-8.015-2.725-1.098-6.322-1.208-7.63-3.843-1.09-2.196.109-4.831.763-7.246 1.417-5.38-.981-11.528-5.56-14.493-1.308-.878-2.834-1.537-4.142-2.525-3.597-2.745-4.687-7.685-5.668-12.187-.981-4.501-2.725-9.442-6.868-11.308-.327-.22-.763-.33-1.09-.22-.436.11-.763.549-.98.879-2.181 3.293-2.944 7.465-2.181 11.308.763 4.062 3.161 7.685 5.123 11.309.763 1.427 1.418 2.964 1.418 4.501.108 3.623-3.053 6.478-3.925 9.991-1.09 4.172 1.09 8.454 3.38 12.077.762 1.098 1.525 2.306 1.635 3.623.218 1.867-.873 3.623-2.072 5.051-1.199 1.427-2.616 2.745-3.27 4.501-.872 2.086-.327 4.502.327 6.698 3.488 13.065 19.294 10.869 19.294 10.869z" fill="#9EF875"/><path d="M45.451 220.011c5.233 11.747 9.048 24.154 12.427 36.56 3.488 12.846 6.977 25.802 9.92 38.867 1.635 7.136 3.161 14.383 4.033 21.739.109 1.097-1.635 1.097-1.744 0-.763-6.588-2.18-13.175-3.597-19.653a606.844 606.844 0 00-4.579-19.104c-3.16-12.406-6.322-24.813-10.246-37-2.18-6.917-4.688-13.724-7.63-20.421-.546-1.098.98-2.086 1.416-.988z" fill="#fff"/><path d="M81.639 101.801l-20.93 199.821h140.838L81.639 101.801z" fill="#EDA1AB"/><path d="M83.492 118.928l2.18 182.694h115.875L83.492 118.928z" fill="#CFD3DC"/><path d="M76.296 152.415l5.341-50.614 30.304 50.614H76.296z" fill="#E8899E"/><path d="M103.877 301.622h245.049l-22.347-199.821H81.639l22.238 199.821z" fill="#fff"/><path d="M87.2 151.756h244.941l-5.56-49.955H81.641l5.56 49.955z" fill="#EDA1AB"/><g opacity=".4"><path opacity=".4" d="M286.461 203.248h40.66l-4.142-37.548h-40.66l4.142 37.548zm-45.019 0h40.66L277.85 165.7H237.3l4.142 37.548zm-45.129 0h40.66L232.83 165.7h-40.659l4.142 37.548zm-45.02 0h40.66l-4.251-37.548h-40.66l4.251 37.548zm-45.129 0h40.66l-4.142-37.548h-40.66l4.142 37.548zm185.204 43.258h40.659l-4.251-37.548h-40.66l4.252 37.548z" fill="#8F8F8D"/><path opacity=".4" d="M246.239 246.506h40.659l-4.142-37.548h-40.66l4.143 37.548z" fill="#FF1313"/><path opacity=".4" d="M201.219 246.506h40.66l-4.251-37.548h-40.66l4.251 37.548zm-45.129 0h40.66l-4.142-37.548h-40.66l4.142 37.548zm-45.019 0h40.659l-4.251-37.548h-40.66l4.252 37.548zm185.093 43.149h40.66l-4.142-37.439h-40.66l4.142 37.439zm-45.129 0h40.66l-4.142-37.439h-40.66l4.142 37.439zm-45.019 0h40.66l-4.252-37.439h-40.55l4.142 37.439zm-45.129 0h40.66l-4.142-37.439h-40.66l4.142 37.439zm-45.019 0h40.659l-4.251-37.439h-40.66l4.252 37.439z" fill="#8F8F8D"/></g><path d="M151.077 136.715h108.571c18.64 0 33.029-16.25 30.958-34.914H119.355l.763 7.026c1.745 15.81 15.043 27.888 30.959 27.888z" fill="#E8899E"/><path d="M214.63 128.7c-5.358 0-9.701-4.375-9.701-9.772 0-5.396 4.343-9.771 9.701-9.771 5.358 0 9.702 4.375 9.702 9.771 0 5.397-4.344 9.772-9.702 9.772z" fill="#830C1B"/><path d="M213.973 126.394c-3.913 0-7.085-3.195-7.085-7.136 0-3.942 3.172-7.137 7.085-7.137s7.086 3.195 7.086 7.137c0 3.941-3.173 7.136-7.086 7.136z" fill="#3D010B"/><path d="M377.376 303.574c-6.432-1.207-12.1-5.599-14.934-11.528-1.527-3.074-2.29-6.697-1.636-10.101.654-3.403 3.053-6.587 6.214-7.795 2.725-.988 6.322-.878 7.739-3.513 1.199-2.196 0-4.831-.545-7.246-1.199-5.38 1.417-11.419 6.105-14.273 1.417-.879 2.943-1.428 4.251-2.306 3.706-2.635 5.014-7.576 6.213-11.967 1.2-4.392 3.053-9.332 7.304-11.089.327-.11.763-.33 1.09-.22.436.11.763.549.981.988 1.962 3.404 2.616 7.576 1.744 11.419-.981 4.062-3.488 7.575-5.559 11.089-.763 1.427-1.526 2.854-1.635 4.501-.218 3.623 2.725 6.588 3.488 10.211.872 4.172-1.417 8.344-3.815 11.857-.763 1.098-1.635 2.196-1.744 3.623-.218 1.867.763 3.624 1.962 5.051 1.199 1.427 2.507 2.854 3.161 4.611.763 2.086.109 4.502-.545 6.588-4.142 12.955-19.839 10.1-19.839 10.1z" fill="#50AF2E"/><path d="M402.994 221.34c-5.669 11.529-9.92 23.715-13.735 35.902-3.925 12.517-7.849 25.033-11.228 37.769-1.962 7.136-3.815 14.382-5.014 21.629-.218 1.097-1.854.658-1.745-.44.981-6.587 2.726-13.175 4.47-19.652 1.635-6.368 3.488-12.626 5.341-18.994 3.706-12.516 7.522-25.143 11.991-37.439 2.507-6.697 5.232-13.395 8.393-19.763.546-.878 2.072 0 1.527.988z" fill="#fff"/><path d="M359.39 303.684c-6.431.879-13.299-1.537-17.877-6.148-2.398-2.525-4.251-5.599-4.687-9.113-.436-3.513.763-7.136 3.488-9.332 2.289-1.867 5.777-2.855 6.322-5.819.436-2.415-1.526-4.611-2.725-6.697-2.834-4.721-2.289-11.309 1.308-15.481 1.09-1.208 2.398-2.306 3.27-3.623 2.726-3.733 2.29-8.674 2.072-13.285-.218-4.611 0-9.771 3.488-12.846.327-.219.654-.548.981-.548.436 0 .872.329 1.199.548 2.943 2.526 4.905 6.368 5.232 10.211.327 4.172-.872 8.234-1.744 12.297-.327 1.537-.545 3.184-.109 4.831.872 3.513 4.687 5.379 6.541 8.563 2.18 3.733 1.308 8.345.109 12.517-.436 1.317-.763 2.635-.545 3.952.327 1.867 1.853 3.184 3.379 4.172 1.526.988 3.27 1.867 4.36 3.404 1.417 1.756 1.526 4.172 1.526 6.477.218 13.615-15.588 15.92-15.588 15.92z" fill="#9EF875"/><path d="M357.537 217.607c-1.744 12.846-1.962 25.911-1.744 38.867.218 12.955.436 25.91 1.199 38.866.436 7.356.872 14.822 2.071 22.068.218 1.098-1.526 1.647-1.744.439-1.09-6.368-1.526-12.845-1.962-19.323-.436-6.697-.763-13.285-.872-19.982-.436-13.065-.763-26.24-.436-39.306.218-7.465.763-14.822 1.744-22.178.218-1.097 1.962-.549 1.744.549zm-318.191-2.304a2.553 2.553 0 01-3.597 0l-10.247-10.321c-.98-.988-.98-2.635 0-3.623a2.553 2.553 0 013.598 0l10.246 10.321c.981.988.981 2.635 0 3.623z" fill="#fff"/><path d="M39.346 201.358c.981.988.981 2.635 0 3.623L29.1 215.302a2.553 2.553 0 01-3.598 0c-.98-.989-.98-2.635 0-3.624l10.247-10.32c.981-1.098 2.616-1.098 3.597 0zm323.645-8.233a2.553 2.553 0 01-3.597 0l-10.247-10.321c-.981-.988-.981-2.635 0-3.623a2.553 2.553 0 013.597 0l10.247 10.32c.981.879.981 2.526 0 3.624z" fill="#fff"/><path d="M362.991 179.18c.981.988.981 2.635 0 3.623l-10.247 10.321a2.553 2.553 0 01-3.597 0c-.981-.988-.981-2.635 0-3.623l10.247-10.321c.872-1.098 2.507-1.098 3.597 0zM52.97 194.882c-.654.659-1.635.659-2.18 0l-6.213-6.258c-.654-.659-.654-1.647 0-2.196.654-.659 1.635-.659 2.18 0l6.213 6.258c.654.549.654 1.537 0 2.196z" fill="#fff"/><path d="M52.97 186.317c.654.659.654 1.647 0 2.196l-6.213 6.258c-.654.659-1.635.659-2.18 0-.654-.659-.654-1.647 0-2.196l6.213-6.258c.654-.659 1.635-.659 2.18 0z" fill="#fff"/><path d="M52.646 213.655c-3.432 0-6.214-2.802-6.214-6.258s2.782-6.258 6.214-6.258c3.431 0 6.213 2.802 6.213 6.258s-2.782 6.258-6.213 6.258zm307.944-57.75c0 3.403-2.725 6.258-6.214 6.258-3.488 0-6.213-2.745-6.213-6.258 0-3.404 2.725-6.259 6.213-6.259 3.489 0 6.214 2.855 6.214 6.259zm23.109 15.81c0 3.403-2.725 6.258-6.213 6.258-3.379 0-6.214-2.745-6.214-6.258 0-3.404 2.726-6.258 6.214-6.258 3.488.109 6.213 2.854 6.213 6.258z" stroke="#fff" stroke-width="1.481" stroke-miterlimit="10"/><path d="M368.877 217.498h27.906c1.526 0 3.052-.769 4.034-1.976 2.18-2.855 5.341-7.686 2.18-8.893-4.47-1.757-10.356 6.807-10.356 6.807s1.308-14.164-10.574-14.164-8.72 14.054-8.72 14.054-2.944-5.929-7.958-5.929c-3.161 0-2.289 3.843-1.199 6.807.654 1.867 2.616 3.294 4.687 3.294zM23.32 149.756h35.21c1.962 0 3.815-.878 5.123-2.525 2.725-3.513 6.65-9.771 2.725-11.308-5.56-2.196-13.08 8.563-13.08 8.563s1.634-17.896-13.3-17.896c-14.934 0-11.01 17.787-11.01 17.787s-3.597-7.466-10.028-7.466c-3.925 0-2.943 4.831-1.526 8.564a6.185 6.185 0 005.886 4.281z" fill="#fff"/><path d="M260.324 246.881c-10.996-2.591-17.825-13.67-15.252-24.746 2.572-11.075 13.572-17.953 24.568-15.362 10.997 2.591 17.825 13.67 15.253 24.746-2.573 11.075-13.573 17.953-24.569 15.362z" stroke="#F80000" stroke-width="2.398" stroke-miterlimit="10"/><path d="M88.943 100.691c-16.787-11.638-11.663-30.303 1.853-47.87 8.721-11.308 5.778-25.47 15.262-37.548 7.739-9.771 15.806-6.697 15.806-6.697 9.81-6.698 24.853 1.866 29.214 13.724 3.924 10.54-8.721 21.519 7.412 36.56 16.133 15.042 4.142 31.84 4.142 31.84s-7.521 5.27-18.313 9.991H88.943z" fill="#F80000"/><path d="M106.713 72.804c15.261-4.831 11.119-20.641 11.119-20.641l7.085-.878v-.11l.545.11.546-.11v.11l7.085.878s-4.142 15.81 11.119 20.64c15.261 4.832 18.749 9.553 19.948 28.547H86.983c.98-18.994 4.47-23.715 19.73-28.546z" fill="#FFD3BD"/><path d="M118.264 55.896c-.109-2.196-.545-3.733-.545-3.733l7.086-.878v-.11l.545.11.545-.11v.11l7.085.878s-.654 2.635-.436 6.039c-1.635 3.184-7.194 7.575-14.28-2.306z" fill="#F5C1B4"/><path d="M142.684 22.849c.109.329 3.489 21.958-4.36 29.973-7.849 8.014-21.475 3.293-24.854-4.941-2.834-7.027-3.379-20.421 2.18-28.546 5.56-8.234 21.584-12.736 27.034 3.514z" fill="#FFD3BD"/><path d="M123.172 36.353c0 .988-.436 1.757-1.09 1.757-.654 0-1.199-.66-1.308-1.647 0-.988.436-1.757 1.09-1.757.654 0 1.199.769 1.308 1.647zm13.953 0c0 .988-.436 1.757-1.09 1.757-.654 0-1.199-.66-1.308-1.647 0-.988.436-1.757 1.09-1.757.763 0 1.308.769 1.308 1.647z" fill="#4E5660"/><path d="M128.078 50.846c0 .22-.327.329-.654.329-.436 0-.654-.11-.654-.33 0-.22.327-.329.654-.329s.654.11.654.33z" fill="#B4866F"/><path d="M120.009 29.326c.109.66 1.417.33 2.943 0s2.834-.439 2.725-1.098c-.109-.658-1.526-.988-3.052-.658-1.526.329-2.725 1.098-2.616 1.756zm14.609-.439c-.109.659 1.199.878 2.725 1.098 1.526.33 2.834.659 2.943 0 .109-.659-1.09-1.427-2.616-1.757-1.526-.329-2.943 0-3.052.66z" fill="#4E5660"/><path d="M104.205 73.682l.218.22c9.92 6.917 32.703 7.685 42.186-.11 13.081 4.501 16.242 9.881 17.332 27.667H86.764c1.2-18.005 4.36-23.275 17.441-27.777z" fill="#052D44"/><path d="M123.715 43.929c1.635 3.184 6.65 4.062 9.048 1.207.327-.329.545-.768.763-1.207.109-.22.436-.11.327.11-.436 1.207-1.635 2.305-2.834 2.744-2.18.879-4.796.33-6.541-1.317-.436-.44-.763-.879-1.09-1.318-.109-.22.218-.439.327-.22z" fill="#4E5660"/><path d="M110.634 31.412s.218 5.929 1.199 5.38c.872-.659 3.707-14.163 6.432-18.225 0 0-2.834 8.454-1.635 8.563 1.308.11 4.142-5.819 5.232-9.99 0 0 7.194-1.977 6.213 7.136l20.058 2.745s-3.924-19.763-19.622-16.799c-15.588 2.745-17.55 14.932-17.877 21.19z" fill="#CC0606"/><path d="M128.541 128.001S92.373 116.83 87.844 108.42c-4.53-8.411-1.711-15.048 6.112-12.424 6.594 2.238 27.085 20.994 33.155 26.625 1.145 1.041 1.514 2.005 1.514 2.005s.81 3.665-.084 3.375z" fill="#FFD3BD"/><path d="M123.828 126.3s4.353-5.686 8.054-2.475c3.7 3.211 12.948 11.859 11.111 13.537-1.783.487-9.694-7.883-9.694-7.883s3.027 3.784 2.877 4.197c-.189.516-1.742 2.309-3.657.563-2.055-1.679-3.613-4.484-3.613-4.484s3.293 4.418 2.889 5.206c-.506.751-5.599 2.221-7.61-4.348-.356-1.164-.356-2.87-.357-4.313z" fill="#FFD3BD"/><path d="M130.382 123.164s9.488 1.338 9.138 2.613c-.349 1.275-2.607 1.741-4.591 1.139-1.947-.706-2.496-.789-2.496-.789l-2.051-2.963z" fill="#FFD3BD"/></svg>