<svg width="76" height="76" fill="none" xmlns="http://www.w3.org/2000/svg"><rect width="76" height="76" rx="38" fill="#F8FCFD"/><g clip-path="url(#clip0_161_2957)"><path d="M26.035 49.174h11.248v7.072H26.035v-7.072z" fill="#A8DEF0"/><path d="M23.808 62h24.231a.98.98 0 00.98-.98v-1.81a2.965 2.965 0 00-2.964-2.964H25.793a2.965 2.965 0 00-2.965 2.965v1.809c0 .541.439.98.98.98z" fill="#F80000"/><path d="M34.019 19.55l4.228-4.228 6.645 6.646-4.228 4.228-6.645-6.646z" fill="#59B1F1"/><path d="M35.807 11.287L29.994 17.1a.981.981 0 000 1.388l1.853 1.852a.981.981 0 001.387 0l5.813-5.813a.981.981 0 000-1.387l-1.852-1.853a.981.981 0 00-1.388 0z" fill="#CC0606"/><path d="M34.492 42.502h-8.457c0-5.47 1.944-10.63 5.472-14.526 3.541-3.91 8.422-6.152 13.393-6.152v8.456c-2.625 0-5.155 1.198-7.125 3.372-2.117 2.338-3.283 5.481-3.283 8.85z" fill="#A8DEF0"/><path d="M50.005 36.532H46.4a1.388 1.388 0 01-1.388-1.388v-4.28h6.383v4.28c0 .767-.622 1.388-1.389 1.388z" fill="#59B1F1"/><path d="M54.035 21.24H42.373a2.283 2.283 0 00-2.283 2.283v5.058a2.283 2.283 0 002.283 2.283h11.663a2.283 2.283 0 002.283-2.283v-5.058a2.283 2.283 0 00-2.282-2.283z" fill="#F80000"/><path d="M42.372 21.24a2.283 2.283 0 00-2.283 2.283v5.058a2.283 2.283 0 002.283 2.283h5.06c-2.15-1.34-2.956-5.985-2.102-9.624h-2.958z" fill="#CC0606"/><path d="M26.035 49.174h11.248v3.078H26.035v-3.078zm.209-9.751a22.767 22.767 0 00-.209 3.079h8.457c0-1.054.114-2.087.336-3.079h-8.584z" fill="#59B1F1"/><path d="M53.95 49.174H25.345a1.464 1.464 0 01-1.464-1.464v-3.744c0-.809.656-1.464 1.464-1.464H53.95a2.297 2.297 0 012.298 2.297v2.077a2.298 2.298 0 01-2.298 2.298z" fill="#F80000"/><path d="M39.35 42.502H25.347c-.808 0-1.464.655-1.464 1.464v3.744c0 .808.656 1.464 1.464 1.464h15.21c-1.426-1.455-1.555-5.065-1.205-6.672z" fill="#CC0606"/><path d="M26.035 51.194a5.356 5.356 0 100-10.713 5.356 5.356 0 000 10.713z" fill="#F80000"/><path d="M27.451 47.257a2.01 2.01 0 10-2.842-2.843 2.01 2.01 0 002.842 2.843z" fill="#59B1F1"/></g><defs><clipPath id="clip0_161_2957"><path fill="#fff" transform="translate(13 11)" d="M0 0h51v51H0z"/></clipPath></defs></svg>