<svg width="76" height="76" fill="none" xmlns="http://www.w3.org/2000/svg"><rect width="76" height="76" rx="38" fill="#F8FCFD"/><g clip-path="url(#clip0_161_3311)"><path d="M52.844 52.844H24.156a.796.796 0 01-.584-.255L23 51.972a.798.798 0 01-.19-.35 8.16 8.16 0 01-.247-1.972v-7.963c0-8.83 15.039-14.081 15.679-14.3a.792.792 0 01.065-.02c.12-.03 12.146-3.143 12.146-11.18v-.152a.797.797 0 011.152-.713A22.311 22.311 0 0164 35.312c0 3.295-1.356 6.695-4.03 10.107a32.697 32.697 0 01-2.567 2.884l-3.975 4.286a.797.797 0 01-.584.255z" fill="#00AAE4"/><path d="M42.484 40.094A17.531 17.531 0 0160 22.563a22.38 22.38 0 00-8.394-7.241.796.796 0 00-1.152.713v.153c0 8.036-12.025 11.15-12.146 11.18a.808.808 0 00-.065.019c-.64.219-15.68 5.47-15.68 14.3v7.963c.003.665.086 1.328.249 1.973.032.13.098.25.19.348l.571.617a.798.798 0 00.584.256h23.828a17.48 17.48 0 01-5.5-12.75z" fill="#0387D1"/><path d="M23.584 52.226A.797.797 0 0123 51.97l-3.402-3.669C15.22 43.912 13 39.541 13 35.312a22.313 22.313 0 0122.313-22.313h6.374a22.08 22.08 0 019.918 2.322.797.797 0 01.442.713v.153c0 3.88-2.34 7.32-6.765 9.948a27.432 27.432 0 01-6.552 2.768c-.718.254-14.574 5.25-14.574 12.784v7.962c.002.535.07 1.068.201 1.587a.796.796 0 01-.773.99z" fill="#00AAE4"/><path d="M14.854 26.38A22.258 22.258 0 0013 35.312c0 4.23 2.22 8.6 6.598 12.991L23 51.972a.796.796 0 001.357-.735 6.566 6.566 0 01-.2-1.587v-7.963a6.543 6.543 0 01.497-2.465 17.554 17.554 0 01-9.8-12.842z" fill="#0387D1"/><path d="M38.5 64.002c-2.328 0-4.604-.685-6.545-1.97-4.285-2.829-9.392-7.273-9.392-12.382v-7.962c0-8.83 15.039-14.082 15.679-14.301a.796.796 0 01.516 0c.64.219 15.68 5.47 15.68 14.3v7.963c0 5.109-5.108 9.553-9.393 12.382a11.86 11.86 0 01-6.545 1.97z" fill="#FCD4C6"/><path d="M30.134 58.422c-1.003 0-2.005-.059-3.001-.174 1.518 1.453 3.227 2.73 4.823 3.784a11.858 11.858 0 0013.09 0c4.286-2.829 9.393-7.273 9.393-12.382v-8.163c-3.647 9.886-13.152 16.935-24.305 16.935z" fill="#FACAB9"/><path d="M52.774 21.732a.792.792 0 01-.418-.12 46.81 46.81 0 00-2.206-1.28.797.797 0 11.763-1.4c.789.43 1.557.876 2.282 1.325a.797.797 0 01-.42 1.474zM22.566 23.36a.797.797 0 01-.563-1.361c3.807-3.807 10.021-4.218 12.516-4.218a.797.797 0 010 1.594c-1.792 0-7.909.27-11.39 3.751a.794.794 0 01-.563.233zm-5.58 21.515a.796.796 0 01-.785-.666c-1.287-7.719 1.072-12.31 3.277-14.803 2.412-2.726 5.129-3.585 5.243-3.62a.797.797 0 01.47 1.523c-.023.007-2.46.791-4.573 3.214-2.832 3.245-3.789 7.762-2.845 13.424a.798.798 0 01-.787.928zM28.14 26.547a.797.797 0 100-1.594.797.797 0 000 1.594z" fill="#6FD1F2"/><path d="M20.176 42.484a.797.797 0 01-.797-.797c0-2.151.629-4.257 1.87-6.257a.797.797 0 011.354.84c-1.082 1.744-1.63 3.567-1.63 5.417a.797.797 0 01-.797.797zm3.7-8.35a.797.797 0 01-.58-1.343c1.45-1.543 3.314-3.023 5.541-4.401a.798.798 0 011.198.86.797.797 0 01-.36.495c-2.108 1.305-3.864 2.697-5.218 4.137a.795.795 0 01-.58.251zm34.548-3.603a.796.796 0 01-.713-.44c-1.47-2.94-5.987-5.991-9.043-6.756a.798.798 0 11.386-1.546c3.4.85 8.375 4.176 10.082 7.589a.796.796 0 01-.712 1.153zM56.125 32.7a.795.795 0 01-.606-.28c-1.632-1.91-3.823-3.722-6.512-5.385a.797.797 0 01.838-1.356c2.83 1.75 5.146 3.67 6.886 5.707a.797.797 0 01-.606 1.314zm.669 8.973a.797.797 0 110-1.594.797.797 0 010 1.594zm-.731-3.089a.793.793 0 01-.74-.5c-.49-1.224-1.24-2.433-2.232-3.594-1.415-1.658-3.354-3.255-5.764-4.745a.797.797 0 11.838-1.356c2.549 1.577 4.614 3.282 6.139 5.067 1.103 1.291 1.944 2.65 2.498 4.036a.797.797 0 01-.74 1.092zM45.672 19.375h-7.969a.797.797 0 010-1.594h7.969a.797.797 0 010 1.594zm-1.594 3.188h-4.781a.797.797 0 010-1.594h4.781a.797.797 0 110 1.593zM33.32 25.75a1.992 1.992 0 100-3.985 1.992 1.992 0 000 3.985zm4.383 0a.797.797 0 100-1.594.797.797 0 000 1.594zm-7.969-7.969a.797.797 0 100-1.593.797.797 0 000 1.593zm-11.156 8.766a.797.797 0 100-1.594.797.797 0 000 1.594z" fill="#6FD1F2"/><path d="M42.484 32.922a.797.797 0 100-1.594.797.797 0 000 1.594zm3.586 3.187a1.195 1.195 0 100-2.39 1.195 1.195 0 000 2.39zm-15.539-.796a.797.797 0 100-1.594.797.797 0 000 1.593z" fill="#FFF5F2"/><path d="M34.404 43.969l-.02-.02a.79.79 0 00-.894-.153 3.25 3.25 0 01-1.368.282c-2.013 0-3.41-1.349-3.42-1.36a.798.798 0 00-1.128 0l-1.573 1.573a.817.817 0 00-.06 1.105.795.795 0 001.166.043l1.085-1.085c.342.246.705.463 1.084.647l-.905.905a.797.797 0 101.127 1.127l1.47-1.47c.38.072.767.108 1.154.109a4.792 4.792 0 002.066-.44.784.784 0 00.215-1.263z" fill="#4E5660"/><path d="M34.514 41.688a.794.794 0 01-.564-.234c-.718-.719-2.86-1.211-4.075-1.36a6.786 6.786 0 00-2.973.712.797.797 0 01-.713-1.425 8.389 8.389 0 013.732-.881c.03 0 .062.002.093.005.376.044 3.711.47 5.064 1.822a.798.798 0 01-.564 1.36z" fill="#C97E67"/><path d="M42.595 43.968l.02-.02a.792.792 0 01.894-.152c.43.192.897.288 1.367.282 2.014 0 3.41-1.349 3.421-1.36a.797.797 0 011.127 0l1.573 1.573a.817.817 0 01.06 1.105.797.797 0 01-1.166.043l-1.084-1.085a7.323 7.323 0 01-1.085.647l.905.904a.796.796 0 11-1.127 1.127l-1.47-1.47c-.38.073-.766.11-1.154.11a4.794 4.794 0 01-2.066-.44.784.784 0 01-.215-1.264z" fill="#4E5660"/><path d="M42.484 41.688a.794.794 0 00.564-.234c.719-.719 2.86-1.211 4.076-1.36a6.786 6.786 0 012.973.712.798.798 0 10.713-1.425 8.387 8.387 0 00-3.733-.881.8.8 0 00-.092.005c-.376.044-3.712.47-5.064 1.822a.798.798 0 00.563 1.36z" fill="#C97E67"/><path d="M38.5 61.609c-3.483 0-4.781-2.444-4.781-3.985a.795.795 0 01.314-.634c.695-.528 2.416-1.756 3.38-1.756a1.71 1.71 0 011.087.433c.3-.268.685-.421 1.087-.433.964 0 2.684 1.228 3.38 1.756a.797.797 0 01.314.634c0 1.541-1.298 3.985-4.781 3.985z" fill="#F80000"/><path d="M34.033 56.99a.797.797 0 00-.314.635 3.3 3.3 0 00.104.797h9.354c.067-.26.102-.528.104-.797a.796.796 0 00-.314-.635 20.776 20.776 0 00-.218-.162h-8.498l-.218.162z" fill="#CC0606"/><path d="M40.094 60.813a.797.797 0 100-1.594.797.797 0 000 1.593z" fill="#FF9595"/><path d="M30.694 55.02a5.414 5.414 0 01-4.327-2.155 3.059 3.059 0 01-.462-2.867 2.925 2.925 0 012.039-1.886.808.808 0 01.075-.016c1.14-.177 1.78.38 2.247.786.388.337.645.56 1.208.56.455 0 .878-.213 1.259-.633a1.935 1.935 0 012.309-.432 1.978 1.978 0 011.034 2.117c-.492 2.623-2.755 4.527-5.382 4.527zm10.214-4.527a1.978 1.978 0 011.035-2.117 1.933 1.933 0 012.309.432c.38.42.803.634 1.258.634.563 0 .82-.223 1.208-.56.467-.407 1.106-.963 2.247-.786l.075.015a2.927 2.927 0 012.039 1.887 3.058 3.058 0 01-.462 2.867 5.414 5.414 0 01-4.327 2.155c-2.627 0-4.89-1.904-5.382-4.527z" fill="#fff"/></g><defs><clipPath id="clip0_161_3311"><path fill="#fff" transform="translate(13 13)" d="M0 0h51v51H0z"/></clipPath></defs></svg>