<svg width="76" height="76" fill="none" xmlns="http://www.w3.org/2000/svg"><rect width="76" height="76" rx="38" fill="#F8FCFD"/><g clip-path="url(#clip0_161_3389)"><path d="M13 43.415v15.559c0 .567.46 1.026 1.026 1.026h48.948C63.54 60 64 59.54 64 58.974v-15.56H13z" fill="#EDA1AB"/><path d="M60.714 43.415V60h2.261c.567 0 1.027-.46 1.027-1.026v-15.56h-3.288z" fill="#E8899E"/><path d="M62.974 38.439h-13.86c-2.637 0-5.11-1.199-6.814-3.212a4.965 4.965 0 00-3.8-1.764 4.965 4.965 0 00-3.8 1.764c-1.703 2.013-4.177 3.212-6.814 3.212h-13.86c-.566 0-1.026.46-1.026 1.026v3.95h51v-3.95c0-.567-.46-1.026-1.026-1.026z" fill="#F6EE86"/><path d="M33.629 43.414l1.669-1.418a4.53 4.53 0 00.718-.772l.061-.083c.43-.587.727-1.266.833-1.985.203-1.374.838-2.376 1.59-2.376.754 0 1.39 1.005 1.593 2.382.1.684.337 1.341.72 1.916.254.38.564.72.919 1.008l1.64 1.328H33.63z" fill="#F80000"/><path d="M64 43.414h-3.317V38.44h2.29c.567 0 1.027.46 1.027 1.026v3.95z" fill="#F2D98D"/><path d="M38.5 54.506a.933.933 0 100-1.866.933.933 0 000 1.866zm-6.9-2.856a.933.933 0 100-1.866.933.933 0 000 1.866zm-5.98 5.113a.933.933 0 100-1.866.933.933 0 000 1.866zm-6.194-4.365a.933.933 0 100-1.866.933.933 0 000 1.866zm25.976-.748a.933.933 0 100-1.866.933.933 0 000 1.866zm5.984 5.113a.933.933 0 100-1.866.933.933 0 000 1.866zm6.187-4.365a.933.933 0 100-1.866.933.933 0 000 1.866z" fill="#E8899E"/><path d="M38.5 30.916a.77.77 0 01-.77-.77V26.83a.77.77 0 111.54 0v3.317a.77.77 0 01-.77.77zm3.875.829a.77.77 0 01-.544-1.314l2.345-2.345a.77.77 0 011.089 1.088l-2.346 2.346a.767.767 0 01-.544.225zm-7.749 0a.767.767 0 01-.544-.225l-2.346-2.346a.77.77 0 111.089-1.088l2.345 2.345a.77.77 0 01-.544 1.314z" fill="#F80000"/><path d="M60.808 25.83a9.376 9.376 0 10-13.26-13.26 9.376 9.376 0 0013.26 13.26z" fill="#00AAE4"/><path d="M56.038 16.856v-2.721a.491.491 0 00-.492-.491h-2.721a.491.491 0 00-.492.49v2.722c0 .272-.22.492-.49.492H49.12a.491.491 0 00-.492.49v2.722c0 .272.22.492.492.492h2.721c.272 0 .492.22.492.49v2.722c0 .272.22.492.49.492h2.722c.272 0 .492-.22.492-.492v-2.721c0-.271.22-.491.49-.491h2.723c.27 0 .49-.22.49-.492v-2.72a.491.491 0 00-.49-.491h-2.722a.491.491 0 01-.491-.492z" fill="#fff"/></g><defs><clipPath id="clip0_161_3389"><path fill="#fff" transform="translate(13 9)" d="M0 0h51v51H0z"/></clipPath></defs></svg>