<svg width="76" height="76" fill="none" xmlns="http://www.w3.org/2000/svg"><rect width="76" height="76" rx="38" fill="#F8FCFD"/><g clip-path="url(#clip0_161_3219)"><path d="M36.82 25.615a13.844 13.844 0 01.958-8.018 2.547 2.547 0 00-4.66-2.058 18.754 18.754 0 00-1.606 7.425c-.033 3.219.55 6.138 2.72 8.516.175.192.356.375.543.55l3.608-3.608a4.795 4.795 0 01-1.563-2.807zM28.873 40.46c-4.245-4.245-11.522-1.96-12.562 3.952a16.76 16.76 0 00-.252 3.067 16.274 16.274 0 001.389 6.422 2.537 2.537 0 002.323 1.505c1.847 0 3.061-1.896 2.323-3.588a11.235 11.235 0 01-.94-4.391c-.007-.693.048-1.374.16-2.039.319-1.895 2.634-2.648 3.992-1.29v.001l3.603-3.602-.036-.037z" fill="#CC0606"/><path d="M53.715 35.394c.001-.09.003-.181.003-.272 0 .09 0 .181-.003.272zm.003-.272c0-.091-.002-.182-.003-.272.002.09.003.18.003.272z" fill="#FF8E9E"/><path d="M53.716 34.85a10.553 10.553 0 00-6.627-9.526 10.521 10.521 0 00-3.92-.753c-5.96 0-10.558 4.847-10.558 10.395 0 1.873-1.157 3.325-2.83 3.886a8.92 8.92 0 00-6.078 8.549c.05 4.922 4.215 8.872 9.137 8.821a21 21 0 009.492-2.363c6.69-3.476 11.282-10.429 11.384-18.465.001-.09.004-.181.004-.272 0-.091-.002-.182-.004-.272z" fill="#F80000"/><path d="M37.343 49.053a7.631 7.631 0 012.673-8.567c1.212-.9 1.768-2.389 1.27-3.912-1.47-4.505.971-9.658 5.803-11.25a10.521 10.521 0 00-3.92-.753c-5.96 0-10.558 4.847-10.558 10.395 0 1.873-1.157 3.325-2.83 3.886a8.92 8.92 0 00-6.078 8.549c.05 4.922 4.215 8.872 9.137 8.821a21 21 0 009.492-2.363c-2.265-.7-4.182-2.415-4.99-4.806z" fill="#CC0606"/><path d="M35.563 38.029c1.377 0 2.493-.889 2.493-1.985 0-1.097-1.116-1.985-2.493-1.985-1.377 0-2.493.888-2.493 1.985 0 1.096 1.116 1.985 2.493 1.985z" fill="#FFB5B5"/><path d="M49.075 38.029c1.376 0 2.492-.889 2.492-1.985 0-1.097-1.116-1.985-2.492-1.985-1.377 0-2.493.888-2.493 1.985 0 1.096 1.116 1.985 2.493 1.985z" fill="#FFDBDB"/><path d="M37.016 32.477a.637.637 0 00-.637.636v1.02a.637.637 0 101.273 0v-1.02a.637.637 0 00-.636-.636zm10.605 0a.637.637 0 00-.637.636v1.02a.637.637 0 001.274 0v-1.02a.637.637 0 00-.637-.636zm-3.485 1.145a.637.637 0 00-.898.062 1.218 1.218 0 01-1.836 0 .637.637 0 00-.96.837 2.491 2.491 0 003.756 0 .637.637 0 00-.062-.899z" fill="#4E5660"/><path d="M58.164 59.99c3.996-3.996 3.996-10.474 0-14.47-3.995-3.995-10.473-3.995-14.469 0-3.995 3.996-3.995 10.474 0 14.47 3.996 3.995 10.474 3.995 14.47 0z" fill="#00AAE4"/><path d="M52.96 50.198v-2.97a.536.536 0 00-.537-.536h-2.97a.536.536 0 00-.536.536v2.97c0 .296-.24.536-.536.536h-2.97a.536.536 0 00-.535.536v2.97c0 .296.24.536.536.536h2.97c.295 0 .535.24.535.536v2.97c0 .296.24.536.536.536h2.97c.296 0 .536-.24.536-.536v-2.97c0-.296.24-.536.536-.536h2.97c.296 0 .536-.24.536-.536v-2.97a.536.536 0 00-.536-.536h-2.97a.536.536 0 01-.536-.536z" fill="#fff"/></g><defs><clipPath id="clip0_161_3219"><path fill="#fff" transform="translate(13 13)" d="M0 0h51v51H0z"/></clipPath></defs></svg>