<svg width="76" height="76" fill="none" xmlns="http://www.w3.org/2000/svg"><rect width="76" height="76" rx="38" fill="#F8FCFD"/><g clip-path="url(#clip0_161_3525)"><path d="M51.336 38.462c-2.487 0-5.026-1.147-5.745-2.247a.747.747 0 011.25-.818c.65.995 4.659 2.375 6.883.977a.747.747 0 01.795 1.265c-.933.586-2.053.823-3.183.823zm-25.675 0c-1.13 0-2.25-.237-3.183-.823a.747.747 0 01.796-1.265c2.223 1.398 6.231.018 6.882-.977a.747.747 0 111.25.818c-.719 1.1-3.258 2.247-5.745 2.247z" fill="#E8899E"/><path d="M61.084 35.623c3.803-4.098 3.626-9.026.96-11.871-3.01-3.213-9.765-4.33-18.891 3.096a2.193 2.193 0 002.767 3.402c6.317-5.14 11.127-5.417 12.925-3.5 1.328 1.418.927 3.84-.976 5.89a2.192 2.192 0 103.215 2.983zm-45.169 0c-3.803-4.098-3.626-9.026-.96-11.871 3.01-3.213 9.765-4.33 18.891 3.096a2.193 2.193 0 11-2.768 3.402c-6.316-5.14-11.127-5.417-12.924-3.5-1.328 1.418-.927 3.84.976 5.89a2.193 2.193 0 01-3.215 2.983z" fill="#EDA1AB"/><path d="M49.165 22.95c-1.862.885-3.872 2.157-6.012 3.899a2.193 2.193 0 002.767 3.4c2.425-1.973 4.628-3.228 6.523-3.919-.736-1.326-1.84-2.471-3.278-3.38zm-15.319 3.899c-2.14-1.742-4.15-3.014-6.012-3.9-1.438.91-2.542 2.055-3.279 3.381 1.896.69 4.099 1.947 6.523 3.92a2.192 2.192 0 102.768-3.401z" fill="#E8899E"/><path d="M50.44 30.59c0-4.908-5.318-7.058-11.94-7.058-6.623 0-11.941 2.15-11.941 7.057 0 2.788 1.749 5.979 4.455 8.216.657.543.89 1.456.545 2.234a10.508 10.508 0 00-.298 7.77l2.211 6.238a2.672 2.672 0 002.518 1.78h5.018c1.132 0 2.14-.713 2.519-1.78l2.21-6.238a10.508 10.508 0 00-.298-7.77 1.906 1.906 0 01.546-2.234c2.706-2.237 4.455-5.428 4.455-8.216z" fill="#EDA1AB"/><path d="M42.483 56.381c-8.62-6.904-12.206-24.867-8.754-32.414-4.23.85-7.17 2.974-7.17 6.622 0 2.788 1.749 5.979 4.455 8.216.657.543.89 1.456.545 2.234a10.51 10.51 0 00-.298 7.77l2.211 6.238a2.672 2.672 0 002.518 1.78h5.018c.538 0 1.047-.163 1.474-.446z" fill="#E8899E"/><path d="M30.336 35.275c1.664 0 3.013-1.074 3.013-2.4 0-1.324-1.35-2.398-3.013-2.398-1.663 0-3.012 1.074-3.012 2.399s1.349 2.399 3.012 2.399zm16.328 0c1.664 0 3.013-1.074 3.013-2.4 0-1.324-1.349-2.398-3.013-2.398-1.663 0-3.012 1.074-3.012 2.399s1.349 2.399 3.012 2.399z" fill="#fff"/><path d="M32.094 31.314a.747.747 0 01-.747-.747v-1.232a.747.747 0 011.495 0v1.232a.747.747 0 01-.748.747zm12.816 0a.747.747 0 01-.746-.747v-1.232a.747.747 0 011.494 0v1.232a.747.747 0 01-.747.747zm-6.407.733a2.988 2.988 0 01-2.253-1.026.747.747 0 011.126-.982 1.494 1.494 0 002.253 0 .747.747 0 111.126.982 2.988 2.988 0 01-2.252 1.026z" fill="#4E5660"/><path d="M58.186 39.01c2.297-.837 3.65-2.91 3.024-4.633-.627-1.723-2.997-2.442-5.294-1.606-2.296.836-3.65 2.91-3.023 4.632.626 1.723 2.996 2.442 5.293 1.606zm-34.059-1.616c.627-1.723-.727-3.797-3.024-4.632-2.297-.836-4.666-.117-5.293 1.606-.627 1.722.727 3.796 3.024 4.632 2.297.836 4.666.117 5.293-1.606z" fill="#DF6C85"/><path d="M59.225 60.113c3.863-3.863 3.863-10.126 0-13.988-3.863-3.863-10.125-3.863-13.988 0-3.863 3.862-3.863 10.125 0 13.988 3.863 3.862 10.125 3.862 13.988 0z" fill="#00AAE4"/><path d="M54.195 50.647v-2.871a.518.518 0 00-.519-.519h-2.87a.518.518 0 00-.519.519v2.87a.518.518 0 01-.518.519H46.9a.518.518 0 00-.52.518v2.87c0 .287.233.52.52.52h2.87c.286 0 .518.231.518.517v2.871c0 .287.232.519.518.519h2.871a.518.518 0 00.519-.519v-2.87c0-.287.232-.519.518-.519h2.87a.518.518 0 00.52-.518v-2.871a.518.518 0 00-.52-.518h-2.87a.518.518 0 01-.518-.518z" fill="#fff"/></g><defs><clipPath id="clip0_161_3525"><path fill="#fff" transform="translate(13 13)" d="M0 0h51v51H0z"/></clipPath></defs></svg>