<svg width="42" height="42" fill="none" xmlns="http://www.w3.org/2000/svg"><g clip-path="url(#clip0_420_39985)"><path d="M42.246 21.25c0-11.598-9.402-21-21-21s-21 9.402-21 21 9.402 21 21 21 21-9.402 21-21z" fill="url(#paint0_linear_420_39985)"/><path opacity=".1" d="M37.051 7.434c-3.062 5.62-7.391 11.418-12.802 16.828-5.41 5.41-11.207 9.732-16.819 12.793a20.045 20.045 0 01-1.025-.956 21 21 0 1129.69-29.698c.332.331.65.676.956 1.033z" fill="#fff"/><path d="M26.22 10.197h-9.948a6.079 6.079 0 00-6.078 6.08v9.947a6.079 6.079 0 006.078 6.079h9.948a6.08 6.08 0 006.079-6.08v-9.947a6.08 6.08 0 00-6.08-6.079zm4.145 15.153a5.017 5.017 0 01-5.018 5.018h-8.201a5.018 5.018 0 01-5.018-5.018v-8.2a5.018 5.018 0 015.018-5.018h8.2a5.017 5.017 0 015.018 5.017v8.201z" fill="#fff"/><path d="M25.278 17.26l-.053-.053-.044-.044a5.57 5.57 0 00-3.935-1.624 5.669 5.669 0 00-5.631 5.711 5.734 5.734 0 001.658 4.037 5.578 5.578 0 003.984 1.658 5.728 5.728 0 004.02-9.685zm-4.032 7.737a3.747 3.747 0 113.695-3.747 3.72 3.72 0 01-3.695 3.747zm7.304-9.721a1.347 1.347 0 01-1.341 1.36 1.33 1.33 0 01-.945-.396 1.363 1.363 0 01.948-2.318c.312 0 .614.11.854.31l.027.027a.842.842 0 01.122.122l.03.033c.198.243.305.548.304.862z" fill="#fff"/></g><defs><linearGradient id="paint0_linear_420_39985" x1="6.397" y1="6.401" x2="36.095" y2="36.099" gradientUnits="userSpaceOnUse"><stop stop-color="#FAE100"/><stop offset=".15" stop-color="#FCB720"/><stop offset=".3" stop-color="#FF7950"/><stop offset=".5" stop-color="#FF1C74"/><stop offset="1" stop-color="#6C1CD1"/></linearGradient><clipPath id="clip0_420_39985"><path fill="#fff" d="M0 0h42v42H0z"/></clipPath></defs></svg>