<svg width="76" height="76" fill="none" xmlns="http://www.w3.org/2000/svg"><rect width="76" height="76" rx="38" fill="#F8FCFD"/><g clip-path="url(#clip0_161_3633)"><path d="M38.5 62.376a8.3 8.3 0 01-2.517-.39c-8.898-2.816-15.324-8.54-19.1-17.011-2.55-5.725-3.82-12.511-3.883-20.746-.03-3.866 3.092-7.047 6.958-7.092 10.248-.12 13.39-1.68 14.266-2.345a7.106 7.106 0 014.276-1.443c1.534 0 3.052.512 4.276 1.443.875.665 4.018 2.226 14.266 2.345 3.866.045 6.987 3.226 6.958 7.092-.062 8.235-1.333 15.02-3.884 20.746-3.775 8.472-10.2 14.195-19.1 17.012a8.335 8.335 0 01-2.516.389z" fill="#00AAE4"/><path d="M49.395 51.662L29.482 21.371c-1.815-.28-2.794-3.561-1.016-4.81-2.071.305-4.832.533-8.508.576-3.866.045-6.987 3.226-6.958 7.091.062 8.236 1.333 15.021 3.884 20.746 3.775 8.472 10.2 14.196 19.1 17.012a8.333 8.333 0 005.033 0c4.573-1.447 8.492-3.665 11.735-6.627-2.686.326-3.865-2.815-3.357-3.697z" fill="#0387D1"/><path d="M39.543 57.33c16.954-5.365 19.488-21.837 19.573-33.138a2.155 2.155 0 00-2.13-2.171c-5.001-.059-13.386-.468-17.166-3.341a2.174 2.174 0 00-2.64 0c-3.78 2.874-12.165 3.282-17.165 3.34a2.155 2.155 0 00-2.131 2.172c.085 11.3 2.619 27.773 19.573 33.139.68.215 1.407.215 2.086 0z" fill="#EDA1AB"/><path d="M27.813 21.57c-2.801.333-5.62.425-7.798.45a2.155 2.155 0 00-2.131 2.172c.085 11.3 2.619 27.773 19.573 33.139.68.215 1.407.215 2.086 0 2.403-.76 4.515-1.745 6.373-2.905-19.771-1.747-19.442-24.224-18.103-32.856z" fill="#E8899E"/><path d="M40.306 54.513h-3.61c-1.214 0-2.23.923-2.346 2.133l-.457 4.768a1.507 1.507 0 001.017 1.568c1.205.412 2.267.669 3.591.669 1.33 0 2.386-.255 3.6-.671a1.503 1.503 0 001.008-1.566l-.457-4.769a2.357 2.357 0 00-2.346-2.132z" fill="#F80000"/><path d="M38.497 60.761a.747.747 0 01-.747-.747V58.15a.747.747 0 011.494 0v1.864a.747.747 0 01-.747.747z" fill="#CC0606"/><path d="M41.04 38.916v-3.737a.674.674 0 00-.673-.674H36.63a.674.674 0 00-.674.674v3.737a.674.674 0 01-.675.674h-3.736a.674.674 0 00-.674.674v3.737c0 .372.302.674.674.674h3.736c.373 0 .675.302.675.674v3.737c0 .372.302.674.674.674h3.736a.674.674 0 00.675-.674v-3.737c0-.372.302-.674.674-.674h3.736a.674.674 0 00.675-.674v-3.737a.674.674 0 00-.674-.674h-3.737a.674.674 0 01-.674-.674z" fill="#fff"/><path d="M31.135 31.873c1.492 0 2.702-.963 2.702-2.151 0-1.189-1.21-2.152-2.702-2.152s-2.702.963-2.702 2.152c0 1.188 1.21 2.151 2.702 2.151z" fill="#FEE1E1"/><path d="M45.78 31.873c1.492 0 2.701-.963 2.701-2.151 0-1.189-1.21-2.152-2.702-2.152s-2.702.963-2.702 2.152c0 1.188 1.21 2.151 2.702 2.151z" fill="#FEFFFF"/><path d="M33.997 28.06a.68.68 0 01-.68-.68.607.607 0 00-1.212 0 .68.68 0 11-1.36 0c0-1.084.882-1.966 1.966-1.966s1.967.882 1.967 1.966a.68.68 0 01-.68.68zm11.497 0a.68.68 0 01-.68-.68.607.607 0 00-1.212 0 .68.68 0 11-1.36 0c0-1.084.881-1.966 1.966-1.966 1.084 0 1.966.882 1.966 1.966a.68.68 0 01-.68.68zm-7.033 2.126c-.72 0-1.404-.312-1.877-.855a.68.68 0 111.026-.894 1.13 1.13 0 001.703 0 .68.68 0 111.025.894 2.49 2.49 0 01-1.877.855z" fill="#4E5660"/></g><defs><clipPath id="clip0_161_3633"><path fill="#fff" transform="translate(13 13)" d="M0 0h51v51H0z"/></clipPath></defs></svg>