<svg width="20" height="20" fill="none" xmlns="http://www.w3.org/2000/svg"><path d="M10 18.057c2.82 0 5.105-.844 5.105-1.885S12.82 14.287 10 14.287c-2.82 0-5.105.844-5.105 1.885S7.18 18.057 10 18.057z" fill="#BBCDD7"/><path d="M9.987 16.172s3.52-4.44 4.49-7.842c.125-.375.204-.763.235-1.157 0-.118.024-.237.024-.354A4.772 4.772 0 0010.012 2h-.025a4.77 4.77 0 00-4.723 4.817v.002c-.004.118.004.237.023.354.032.394.111.782.236 1.157.946 3.401 4.464 7.842 4.464 7.842zM10 4.878a1.886 1.886 0 110 3.772 1.886 1.886 0 010-3.772z" fill="#788E9B"/></svg>