<svg width="76" height="76" fill="none" xmlns="http://www.w3.org/2000/svg"><rect width="76" height="76" rx="38" fill="#F8FCFD"/><path d="M42.272 54.081h-7.541l1.043 8.093A2.094 2.094 0 0037.85 64h1.303a2.094 2.094 0 002.076-1.826l1.043-8.093z" fill="#F80000"/><path d="M35.617 60.958c.933.209 1.9.317 2.884.317.985 0 1.952-.108 2.885-.317l.886-6.877h-7.541l.886 6.877z" fill="#F80000"/><path d="M38.499 58.196c4.88 0 8.835-3.455 8.835-7.718s-3.956-7.718-8.835-7.718c-4.88 0-8.835 3.455-8.835 7.718s3.956 7.718 8.835 7.718z" fill="#00AAE4"/><path d="M55.958 24.556v-.024C55.958 18.163 50.795 13 44.426 13c-1.231 0-2.417.193-3.53.55a3.444 3.444 0 00-2.394 3.277c0-1.497-.97-2.818-2.396-3.276A11.513 11.513 0 0032.578 13c-6.369 0-11.532 5.163-11.532 11.532v.024c-4.241 2.193-7.143 6.618-7.143 11.722 0 6.827 5.186 12.443 11.833 13.123a10.055 10.055 0 008.307 4.38c.768 0 1.515-.086 2.233-.25a2.854 2.854 0 002.227-2.78c0 1.333.925 2.485 2.226 2.78a10.055 10.055 0 0010.54-4.13c6.647-.68 11.833-6.296 11.833-13.123 0-5.104-2.902-9.529-7.143-11.722z" fill="#EDA1AB"/><path d="M26.826 34.861c-2.032-2.282-2.395-6.412-1.97-11.583-.723-.895-1.428-4.465 1.298-8.325a11.52 11.52 0 00-5.109 9.58v.023c-4.241 2.194-7.143 6.618-7.143 11.723 0 6.826 5.186 12.442 11.833 13.122a10.055 10.055 0 008.307 4.38c.768 0 1.515-.086 2.233-.25a2.858 2.858 0 001.152-.555C27.415 51.929 25.314 40.083 27.02 36.242a1.286 1.286 0 00-.194-1.38z" fill="#E8899E"/><path d="M40.817 24.16v-3.403a.614.614 0 00-.614-.614H36.8a.614.614 0 00-.614.614v3.403a.614.614 0 01-.614.614h-3.403a.614.614 0 00-.614.614v3.403c0 .339.275.614.614.614h3.403c.339 0 .614.275.614.614v3.403c0 .34.275.614.614.614h3.403c.34 0 .614-.275.614-.614V30.02c0-.339.275-.614.614-.614h3.403c.34 0 .614-.275.614-.614v-3.403a.614.614 0 00-.614-.614h-3.403a.614.614 0 01-.614-.614zM30.459 43.574c1.639 0 2.967-1.058 2.967-2.364 0-1.305-1.328-2.363-2.967-2.363-1.64 0-2.968 1.058-2.968 2.363 0 1.306 1.329 2.364 2.968 2.364zm16.085 0c1.639 0 2.968-1.058 2.968-2.364 0-1.305-1.33-2.363-2.968-2.363-1.639 0-2.968 1.058-2.968 2.363 0 1.306 1.329 2.364 2.968 2.364z" fill="#fff"/><path d="M33.6 39.386a.747.747 0 01-.748-.747.666.666 0 00-1.33 0 .747.747 0 11-1.495 0c0-1.191.97-2.16 2.16-2.16 1.19 0 2.16.969 2.16 2.16a.747.747 0 01-.748.747zm12.624 0a.747.747 0 01-.747-.747.666.666 0 00-1.33 0 .747.747 0 11-1.495 0c0-1.191.97-2.16 2.16-2.16 1.19 0 2.16.969 2.16 2.16a.747.747 0 01-.748.747zM38.5 41.72c-.79 0-1.542-.343-2.062-.94a.747.747 0 111.127-.981 1.24 1.24 0 001.87 0 .747.747 0 111.127.981 2.734 2.734 0 01-2.062.94z" fill="#4E5660"/><path d="M21.049 25.303a.747.747 0 01-.344-1.41 13.783 13.783 0 016.392-1.554.747.747 0 110 1.495c-2.007 0-3.927.466-5.706 1.386a.744.744 0 01-.342.083zm4.689 24.845a.746.746 0 01-.616-.324 10.754 10.754 0 01-1.892-6.11.747.747 0 111.494 0c0 1.89.564 3.71 1.63 5.264a.747.747 0 01-.616 1.17z" fill="#EDA1AB"/><path d="M55.96 25.303a.745.745 0 01-.343-.083 12.304 12.304 0 00-5.706-1.386.747.747 0 010-1.495c2.248 0 4.399.523 6.392 1.553a.747.747 0 01-.344 1.411zm-4.69 24.845a.747.747 0 01-.615-1.17 9.267 9.267 0 001.63-5.264.747.747 0 111.494 0c0 2.193-.655 4.305-1.892 6.11a.746.746 0 01-.617.324z" fill="#E8899E"/><path d="M21.274 34.789a.747.747 0 01-.528-1.275 6.39 6.39 0 014.549-1.885.747.747 0 110 1.494c-1.32 0-2.56.514-3.492 1.447a.745.745 0 01-.529.219z" fill="#EDA1AB"/><path d="M55.733 34.788a.745.745 0 01-.528-.218 4.905 4.905 0 00-3.492-1.447.747.747 0 110-1.494 6.39 6.39 0 014.549 1.884.747.747 0 01-.529 1.275zm-17.227 16.71a.747.747 0 01-.747-.747v-4.193a.747.747 0 111.494 0v4.193a.747.747 0 01-.747.747z" fill="#E8899E"/></svg>