<svg width="76" height="76" fill="none" xmlns="http://www.w3.org/2000/svg"><rect width="76" height="76" rx="38" fill="#F8FCFD"/><path d="M35.624 44.239c0-2.043.25-3.67.751-4.882.501-1.211 1.414-2.4 2.74-3.568 1.34-1.182 2.23-2.138 2.673-2.867a4.52 4.52 0 00.663-2.342c0-2.467-1.15-3.7-3.447-3.7-1.09 0-1.966.336-2.629 1.007-.648.657-.986 1.569-1.016 2.736h-6.407c.03-2.787.936-4.969 2.718-6.545 1.797-1.576 4.241-2.364 7.334-2.364 3.123 0 5.545.752 7.268 2.255 1.724 1.488 2.585 3.597 2.585 6.326 0 1.24-.28 2.415-.84 3.524-.559 1.095-1.538 2.313-2.938 3.656L43.29 39.16c-1.12 1.066-1.76 2.313-1.922 3.743l-.088 1.336h-5.656zm-.64 6.72c0-.978.33-1.78.994-2.408.677-.642 1.539-.963 2.584-.963 1.046 0 1.9.32 2.563.963.678.627 1.016 1.43 1.016 2.408 0 .963-.331 1.758-.994 2.385-.648.628-1.51.942-2.585.942s-1.944-.314-2.606-.942c-.649-.627-.973-1.422-.973-2.385z" fill="#0387D1"/></svg>