<svg width="20" height="20" fill="none" xmlns="http://www.w3.org/2000/svg"><path d="M15.467 13.004c-.357-.3-2.45-1.624-2.797-1.563-.163.029-.288.168-.623.567a4.77 4.77 0 01-.507.55 4.389 4.389 0 01-.97-.36 6 6 0 01-2.768-2.77 4.39 4.39 0 01-.36-.968 4.77 4.77 0 01.55-.508c.399-.335.538-.459.567-.623.061-.348-1.265-2.44-1.563-2.796-.125-.148-.238-.247-.384-.247-.42 0-2.326 2.356-2.326 2.66 0 .026.04 2.478 3.138 5.63 3.152 3.097 5.604 3.138 5.63 3.138.304 0 2.66-1.905 2.66-2.326 0-.146-.099-.26-.247-.384zm-2.611-3.413h.816a3.269 3.269 0 00-3.265-3.265v.817a2.451 2.451 0 012.449 2.448z" fill="#788E9B"/><path d="M14.897 9.592h.816a5.312 5.312 0 00-5.306-5.306v.816a4.495 4.495 0 014.49 4.49z" fill="#788E9B"/></svg>