<svg width="76" height="76" fill="none" xmlns="http://www.w3.org/2000/svg"><rect width="76" height="76" rx="38" fill="#F8FCFD"/><g clip-path="url(#clip0_161_2995)"><path d="M30.167 25.11l1.365 4.026c1.034-.41 4.354-1.078 8.405.057 4.118 1.153 6.366 3.451 7.023 4.336l4.125-7.071c-1.204-1.157-5.33-4.832-11.802-5.406-4.852-.43-7.52.84-8.925 2.76a1.42 1.42 0 00-.19 1.298z" fill="#F80000"/><path d="M49.558 41.393a13.132 13.132 0 01-3.58 9.035 13.13 13.13 0 01-9.591 4.148c-6.03 0-11.114-4.055-12.677-9.59a13.205 13.205 0 01-.495-3.593A13.162 13.162 0 0129.81 29.97a13.097 13.097 0 016.577-1.76c5.392 0 10.029 3.244 12.067 7.89a13.155 13.155 0 011.105 5.293z" fill="#00AAE4"/><path d="M32.25 29.97a13.274 13.274 0 00-3.008.346 9.682 9.682 0 01.305-.191 13.098 13.098 0 016.837-1.914c5.393 0 10.029 3.243 12.066 7.889a16.124 16.124 0 01-4.568.864c-2.215-4.162-6.593-6.994-11.632-6.994zm10.452 21.207a22.098 22.098 0 003.274-.75 13.157 13.157 0 01-6.581 3.803 13.23 13.23 0 003.307-3.053zM49.21 44.4a13.11 13.11 0 01-1.803 4.211.785.785 0 00-.73-.092 20.38 20.38 0 01-2.802.835 13.062 13.062 0 001.365-4.01 23.44 23.44 0 003.97-.944zm.346-3.007c0 .449-.022.894-.067 1.332a.766.766 0 00-.365.037c-1.21.428-2.452.748-3.715.958a13.156 13.156 0 00-.831-5.219c1.51-.118 2.99-.425 4.418-.92a13.18 13.18 0 01.56 3.812z" fill="#0387D1"/><path d="M63.112 56.154H28.623a.789.789 0 010-1.578h34.489a.788.788 0 010 1.578z" fill="#CC0606"/><path d="M49 37.582a17.68 17.68 0 01-4.418.92 12.57 12.57 0 00-.695-1.539 16.129 16.129 0 004.569-.863c.21.48.392.974.544 1.482z" fill="#036297"/><path d="M44.58 38.501a17.833 17.833 0 01-16.088-7.661 12.54 12.54 0 011.316-.87 16.25 16.25 0 0014.076 6.993 12.621 12.621 0 01.695 1.538z" fill="#0387D1"/><path d="M49.49 42.725c-.056.57-.15 1.13-.277 1.675a23.43 23.43 0 01-3.97.944 12.684 12.684 0 00.168-1.624c1.263-.21 2.505-.53 3.715-.957a.762.762 0 01.365-.038z" fill="#036297"/><path d="M45.41 43.72a12.908 12.908 0 01-.17 1.624 23.813 23.813 0 01-3.459.252 23.512 23.512 0 01-17.929-8.266c.175-.542.385-1.07.627-1.578.11.046.21.121.293.22a21.949 21.949 0 0017.01 8.047c1.223 0 2.436-.1 3.629-.3z" fill="#0387D1"/><path d="M57.876 52.15L46.71 33.113l4.368-6.656a11.16 11.16 0 013.13 4.07c.82 1.827.984 3.516.974 4.668a4.92 4.92 0 00.38 1.946l6.181 14.728-1.972.407-1.896-.128z" fill="#F80000"/><path d="M47.41 48.611a13.213 13.213 0 01-1.433 1.817 22.08 22.08 0 01-3.274.75 12.863 12.863 0 001.175-1.824c.952-.21 1.886-.489 2.803-.835a.785.785 0 01.729.092z" fill="#036297"/><path d="M43.875 49.354a13.12 13.12 0 01-1.175 1.823 22.317 22.317 0 01-18.993-6.19 13.233 13.233 0 01-.429-2.268.788.788 0 01.707.277 20.741 20.741 0 0019.89 6.358z" fill="#0387D1"/><path d="M39.281 21.053a18.518 18.518 0 00-2.937-.045 19.222 19.222 0 017.832 2.174 5.355 5.355 0 012.141 7.444l-.763 1.309a12.94 12.94 0 011.404 1.594l4.125-7.071c-1.204-1.157-5.33-4.832-11.802-5.405z" fill="#CF0606"/><path d="M55.564 37.143a4.917 4.917 0 01-.38-1.947 11.172 11.172 0 00-.975-4.668 11.16 11.16 0 00-3.13-4.07l-.868 1.488a11.088 11.088 0 012.594 7.25 4.93 4.93 0 00.38 1.947c2.12 5.047 3.49 8.315 5.566 13.26a1.143 1.143 0 01-.972 1.581l.097.165 3.869-.28-6.181-14.726z" fill="#CC0606"/><path d="M27.076 28.476l-2.625-.253a2.434 2.434 0 01-2.19-2.655l.054-.563a2.435 2.435 0 012.656-2.19l2.625.252a2.434 2.434 0 012.19 2.656l-.054.563a2.434 2.434 0 01-2.656 2.19z" fill="#FCD4C6"/><path d="M29.73 26.285l.054-.56a2.432 2.432 0 00-.805-2.053l-6.526 3.103a2.431 2.431 0 001.996 1.449l1.81.174 3.108-1.048a2.43 2.43 0 00.363-1.065z" fill="#F5C1B4"/><path d="M31.165 24.345l-3.986 2.113 1.445 3.6 5.231-1.604" fill="#CC0606"/><path d="M27.18 26.458l-14.057 6.684a.388.388 0 00.027.712l1.428.551c.343.133.722.14 1.07.023l12.977-4.37-1.445-3.6z" fill="#FCD4C6"/><path d="M55.434 54.575l2.444-2.426 3.869-.28v2.706h-6.313z" fill="#CC0606"/></g><defs><clipPath id="clip0_161_2995"><path fill="#fff" transform="translate(13 13)" d="M0 0h51v51H0z"/></clipPath></defs></svg>