<svg width="76" height="76" fill="none" xmlns="http://www.w3.org/2000/svg"><rect width="76" height="76" rx="38" fill="#F8FCFD"/><path d="M59.489 27.126c-1.732-3.903-2.65-8.084-2.65-12.315v-.159c0-.912-.785-1.652-1.754-1.652h-33.18c-.969 0-1.754.74-1.754 1.652v.159c0 4.23-.919 8.412-2.65 12.315-2.544 5.738-5.328 17.188-.332 35.626.2.734.897 1.248 1.7 1.248h17.166c.625 0 1.132-.507 1.132-1.132V49.343a1.353 1.353 0 012.706 0v13.525c0 .625.506 1.132 1.131 1.132H58.12c.803 0 1.502-.514 1.7-1.248 4.996-18.438 2.213-29.887-.331-35.626z" fill="#FFCDBE"/><path d="M20.828 62.752c-4.996-18.438-2.212-29.888.332-35.626 1.731-3.903 2.65-8.084 2.65-12.315v-.159c0-.912.785-1.652 1.753-1.652h-3.659c-.968 0-1.753.74-1.753 1.652v.159c0 4.23-.919 8.411-2.65 12.315-2.544 5.738-5.328 17.188-.332 35.626.2.733.897 1.248 1.7 1.248h3.659c-.803 0-1.5-.514-1.7-1.248z" fill="#F5C1B4"/><path d="M50.732 54.756c-6.323 0-11.468-4.829-11.468-10.765a.77.77 0 10-1.54 0c0 5.936-5.143 10.765-11.467 10.765a.77.77 0 100 1.54c5.625 0 10.428-3.396 12.238-8.134 1.81 4.738 6.612 8.133 12.237 8.133a.77.77 0 100-1.539z" fill="#F4C3B6"/><path d="M59.078 26.157l-10.588-.498a212.522 212.522 0 00-19.995 0l-10.588.498c-.131.325-.266.648-.408.969a31.678 31.678 0 00-1.35 3.662c10.29 3.016 19.122 10.374 21.631 12.6a1.072 1.072 0 001.425 0c2.508-2.226 11.34-9.584 21.631-12.6a31.678 31.678 0 00-1.35-3.662c-.142-.32-.277-.645-.408-.969z" fill="#F80000"/><path d="M21.636 25.982l-3.73.175c-.257.693-.986 2.08-1.757 4.63v.001a40.89 40.89 0 013.334 1.14 32.572 32.572 0 011.675-4.802c.168-.378.326-.76.478-1.144z" fill="#CC0606"/><path d="M45.204 53.362c3.862-3.863 3.862-10.126 0-13.988-3.863-3.863-10.126-3.863-13.988 0-3.863 3.862-3.863 10.125 0 13.988 3.862 3.862 10.125 3.862 13.988 0z" fill="#00AAE4"/><path d="M40.173 43.896v-2.871a.518.518 0 00-.518-.519h-2.87a.518.518 0 00-.52.519v2.87a.518.518 0 01-.517.519h-2.871a.518.518 0 00-.519.518v2.87c0 .287.233.52.519.52h2.87c.287 0 .519.231.519.517v2.871c0 .286.232.519.518.519h2.871a.518.518 0 00.518-.519v-2.87c0-.287.232-.519.518-.519h2.872a.518.518 0 00.518-.518v-2.871a.518.518 0 00-.518-.518H40.69a.518.518 0 01-.518-.518z" fill="#fff"/></svg>