<svg width="76" height="76" fill="none" xmlns="http://www.w3.org/2000/svg"><rect width="76" height="76" rx="38" fill="#F8FCFD"/><g clip-path="url(#clip0_161_3048)"><path d="M23.282 63.96V47.572c0-2.017.461-4.007 1.35-5.818l5.876-11.986a3.946 3.946 0 017.098 3.45L31.62 45.641l2.98 18.358" fill="#EB9C8D"/><path d="M30.509 29.767L24.63 41.754a13.209 13.209 0 00-1.35 5.818v16.39h4.57v-16.39c0-2.018.463-4.007 1.35-5.818l5.877-11.987c.3-.613.738-1.112 1.256-1.48a3.945 3.945 0 00-5.826 1.48z" fill="#D78878"/><path d="M50.252 20.663a2.237 2.237 0 00-2.237 2.237v-1.682a2.237 2.237 0 10-4.474 0v-1.681a2.237 2.237 0 10-4.474 0v1.12a2.237 2.237 0 10-4.475 0v-3.369a4.289 4.289 0 00-8.577 0v13.69l26.474-.936V22.9a2.237 2.237 0 00-2.237-2.237z" fill="#FCD4C6"/><path d="M37.868 18.678a2.234 2.234 0 00-1.196 1.98V27.8H34.59v-7.142a2.237 2.237 0 013.278-1.98zm4.476-1.122a2.234 2.234 0 00-1.196 1.98v7.142h-2.082v-7.142a2.237 2.237 0 013.278-1.98zm4.473 1.682a2.234 2.234 0 00-1.196 1.98v7.141H43.54v-7.142a2.237 2.237 0 013.277-1.98zm4.477 1.682a2.234 2.234 0 00-1.196 1.98v7.141h-2.082v-7.142a2.237 2.237 0 013.278-1.98zM30.305 13c.68 0 1.324.158 1.896.44a4.296 4.296 0 00-2.392 3.848v13.69h-3.793v-13.69c0-1.184.48-2.256 1.257-3.033A4.276 4.276 0 0130.305 13z" fill="#F5C1B4"/><path d="M44.729 24.015H33.404a8.99 8.99 0 00-6.487 15.21 12.598 12.598 0 011.582 2.03c.847 1.35 3.366 2.42 3.7 3.992l.415 4.474c.194.91-.161 2.593-.161 3.524 0 6.131 4.032 8.796 10.163 8.796 3.287 0 6.241.53 8.274-1.74a11.06 11.06 0 002.828-7.404v-1.811l-2.829-7.373 2.83-4.404v-6.305a8.99 8.99 0 00-8.99-8.989z" fill="#FCD4C6"/><path d="M45.972 63.482a11.064 11.064 0 01-3.356.517 11.06 11.06 0 01-7.85-3.252 11.064 11.064 0 01-3.252-7.85c0-.931 1.294-2.267 1.1-3.176l-.995-4.08c-.335-1.571-2.273-3.037-3.12-4.386a12.596 12.596 0 00-1.582-2.032 8.96 8.96 0 01-2.502-6.22 8.99 8.99 0 018.99-8.988h6.71a8.99 8.99 0 00-6.486 15.209c1.71 1.782 2.845 4.039 3.36 6.456l.945 4.449c.194.909.292 1.837.292 2.768 0 3.066 1.243 5.841 3.252 7.85a11.077 11.077 0 004.494 2.735z" fill="#F5C1B4"/><path d="M39.48 48.177a6.885 6.885 0 01-2.028 4.894 6.9 6.9 0 01-4.895 2.028h-.823a11.178 11.178 0 01-.218-2.201c0-.93-.098-1.86-.291-2.769l-.947-4.45a13.668 13.668 0 00-1.777-4.424h4.056a6.921 6.921 0 016.922 6.922z" fill="#00AAE4"/><path d="M37.452 53.071a6.9 6.9 0 01-4.895 2.028h-.823a11.178 11.178 0 01-.218-2.201c0-.93-.098-1.86-.291-2.769l-.947-4.45a13.668 13.668 0 00-1.777-4.424h4.056a6.9 6.9 0 013.074.718 13.76 13.76 0 011.36 3.707l.945 4.45c.144.672.235 1.357.272 2.045-.227.32-.48.62-.756.896z" fill="#0387D1"/><path d="M49.148 33.554a4.978 4.978 0 01-1.462 3.531 4.98 4.98 0 01-3.53 1.462h-9.354a4.99 4.99 0 01-4.993-4.993 4.976 4.976 0 012.005-4.002 4.971 4.971 0 012.988-.99h9.353a4.992 4.992 0 014.993 4.992z" fill="#EDA1AB"/><path d="M29.809 33.554a4.976 4.976 0 012.005-4.001 8.967 8.967 0 00-.686 3.45 8.931 8.931 0 001.576 5.083 4.99 4.99 0 01-2.895-4.532z" fill="#E8899E"/><path d="M50.888 60.3a11.092 11.092 0 01-4.917 3.183 11.075 11.075 0 01-3.357.517c-2.347 0-4.525-.73-6.317-1.972a7.38 7.38 0 012.517-5.554 7.365 7.365 0 014.88-1.839 7.37 7.37 0 015.231 2.167 7.373 7.373 0 011.963 3.498z" fill="#EDA1AB"/><path d="M45.97 63.483a11.075 11.075 0 01-3.356.517c-2.347 0-4.525-.729-6.317-1.972a7.38 7.38 0 012.517-5.553 11.09 11.09 0 002.662 4.272 11.068 11.068 0 004.495 2.736z" fill="#E8899E"/><path d="M53.719 39.31v11.775H51.15a5.889 5.889 0 010-11.776h2.568z" fill="#F80000"/><path d="M30.773 55.477l2.434-7.602.076-.238a3.111 3.111 0 011.475-1.786 3.78 3.78 0 015.65 4.33l-1.53 4.778a5.252 5.252 0 01-5.239 8.79l-8.38-2.684" fill="#EB9C8D"/><path d="M34.76 45.852a3.11 3.11 0 00-1.476 1.785l-.075.238-2.435 7.602a2.33 2.33 0 003.096-1.448l1.667-5.208.077-.238a3.11 3.11 0 011.474-1.785 3.787 3.787 0 012.227-.6 3.773 3.773 0 00-4.556-.345zm5.707 12.411a5.253 5.253 0 01-5.578 1.567l-9.033-2.892-.602 7.023h9.348a5.254 5.254 0 005.865-5.698z" fill="#D78878"/></g><defs><clipPath id="clip0_161_3048"><path fill="#fff" transform="translate(13 13)" d="M0 0h51v51H0z"/></clipPath></defs></svg>