<svg width="76" height="76" fill="none" xmlns="http://www.w3.org/2000/svg"><rect width="76" height="76" rx="38" fill="#F8FCFD"/><g clip-path="url(#clip0_161_3175)"><path d="M45.188 14c-3.211 0-5.448 1.55-6.723 2.785C37.189 15.55 34.952 14 31.74 14c-4.608 0-8.218 4.044-8.218 9.079 0 5.435 4.169 9.044 10.478 14.505 3.253 2.814 3.61 3.163 4.464 3.915.754-.665 1.272-1.155 4.463-3.915 6.31-5.461 10.478-9.07 10.478-14.505 0-5.035-3.61-9.079-8.218-9.079z" fill="#CC0606"/><path d="M42.928 37.584c6.31-5.461 10.478-9.07 10.478-14.505 0-5.035-3.61-9.079-8.218-9.079-3.211 0-5.448 1.55-6.723 2.785V41.5c.754-.664 1.272-1.155 4.463-3.915z" fill="#F80000"/><path d="M53.898 43.51c-1.736-1.71-4.609-1.492-6.37.192l-7.518 7.08c-.46.461-.99.827-1.545 1.147a7.417 7.417 0 01-3.714 1.018H23.524V49.96h11.228c1.461 0 2.771-.752 3.713-1.885.924-1.111 1.494-2.59 1.494-4.092H22.832a7.463 7.463 0 00-3.7.981S4.267 51.23 4 53.36C3.596 56.586 9.47 64.334 11.693 65c1.997 0 9.286-6.076 9.286-6.076h16.247c.42 0 .832-.053 1.239-.121a7.38 7.38 0 004.033-2.056L55 44.613l-1.102-1.103z" fill="#F5C1B4"/><path d="M39.959 43.982h-1.494v4.092c.924-1.111 1.494-2.59 1.494-4.092zM55 44.613l-1.103-1.103c-1.735-1.71-4.608-1.492-6.37.192l-7.517 7.08c-.46.461-.99.827-1.545 1.147v6.874a7.38 7.38 0 004.033-2.056L55 44.613z" fill="#FFD3BD"/><path d="M39.7 29.03v-1.5a.27.27 0 00-.27-.27h-1.5a.27.27 0 00-.27.27v1.5a.27.27 0 01-.27.27h-1.5a.27.27 0 00-.27.27v1.5c0 .149.121.27.27.27h1.5c.15 0 .27.12.27.27v1.5c0 .149.121.27.27.27h1.5a.27.27 0 00.27-.27v-1.5c0-.15.121-.27.27-.27h1.5a.27.27 0 00.27-.27v-1.5a.27.27 0 00-.27-.27h-1.5a.27.27 0 01-.27-.27z" fill="#FEE1E1"/><path d="M39.699 29.03v-1.5a.27.27 0 00-.27-.27h-.75v6.12h.75a.27.27 0 00.27-.27v-1.5c0-.15.12-.27.27-.27h1.5a.27.27 0 00.27-.27v-1.5a.27.27 0 00-.27-.27h-1.5a.27.27 0 01-.27-.27z" fill="#fff"/><path d="M34.183 26.035c.895 0 1.621-.578 1.621-1.29 0-.714-.726-1.292-1.621-1.292s-1.621.578-1.621 1.291.726 1.291 1.62 1.291z" fill="#FEE1E1"/><path d="M42.972 26.035c.895 0 1.621-.578 1.621-1.29 0-.714-.726-1.292-1.621-1.292s-1.621.578-1.621 1.291.726 1.291 1.621 1.291z" fill="#FEFFFF"/><path d="M35.9 23.748a.408.408 0 01-.408-.409.364.364 0 00-.727 0 .408.408 0 11-.817 0 1.181 1.181 0 012.36 0 .408.408 0 01-.408.409zm6.898 0a.408.408 0 01-.408-.409.364.364 0 00-.727 0 .408.408 0 11-.816 0c0-.65.53-1.18 1.18-1.18.65 0 1.18.53 1.18 1.18a.408.408 0 01-.409.409zm-4.221 1.275c-.431 0-.842-.187-1.126-.513a.408.408 0 01.615-.537.678.678 0 001.022 0 .408.408 0 11.615.537 1.494 1.494 0 01-1.126.513z" fill="#4E5660"/></g><defs><clipPath id="clip0_161_3175"><path fill="#fff" transform="translate(4 14)" d="M0 0h51v51H0z"/></clipPath></defs></svg>