<svg width="76" height="76" fill="none" xmlns="http://www.w3.org/2000/svg"><rect width="76" height="76" rx="38" fill="#F8FCFD"/><g clip-path="url(#clip0_161_3273)"><path d="M54.907 60.774H21.836A7.836 7.836 0 0114 52.938v-21.59a2.853 2.853 0 012.853-2.852H59.89a2.853 2.853 0 012.853 2.853v21.59a7.836 7.836 0 01-7.836 7.835z" fill="#FCF2D0"/><path d="M16.853 28.496A2.853 2.853 0 0014 31.35v21.59a7.836 7.836 0 007.836 7.835h8.882c-6.077-4.544-9.426-16.554-7.77-32.278h-6.095z" fill="#FAE0BD"/><path d="M62.743 33.64H14v-2.291a2.853 2.853 0 012.853-2.853H59.89a2.853 2.853 0 012.852 2.853v2.29z" fill="#FFD3BD"/><path d="M14 31.349v2.29h8.578c.063-1.664.185-3.38.37-5.143h-6.095A2.853 2.853 0 0014 31.35z" fill="#FFBE9D"/><path d="M49.894 42.919c0 6.743-5.169 12.228-11.523 12.228-6.353 0-11.523-5.485-11.523-12.228 0-3.301-8.96-3.342-12.848-1.92v11.94a7.836 7.836 0 007.836 7.836h33.07a7.836 7.836 0 007.837-7.836V39.02c-5.316-2.62-12.849.073-12.849 3.898z" fill="#EDA1AB"/><path d="M22.652 40.276c-2.867-.396-6.521-.056-8.652.723v11.94a7.836 7.836 0 007.836 7.836h8.882c-4.447-3.325-7.433-10.648-8.066-20.5z" fill="#E8899E"/><path d="M19.153 48.067a.747.747 0 01-.528-1.275l.979-.979a.747.747 0 011.056 1.056l-.979.98a.745.745 0 01-.528.218zm3.555 6.181a.746.746 0 01-.528-.218l-.641-.641a.747.747 0 011.056-1.057l.641.64a.747.747 0 01-.528 1.276z" fill="#EDA1AB"/><path d="M28.54 57.825a.747.747 0 01-.528-1.275l1.067-1.068a.747.747 0 011.057 1.056l-1.068 1.068a.745.745 0 01-.528.218z" fill="#E8899E"/><path d="M43.612 36.343a4.695 4.695 0 01-1.285-2.158c-2.643-9.443-9.5-17.52-14.818-20.86a2.12 2.12 0 00-2.72.396c-.73.828-.668 2.084.087 2.889 4.061 4.332 7.685 11.115 8.352 18.005a3.283 3.283 0 01-.758 2.428c-1.303 1.549-2.098 3.611-2.098 5.876 0 4.808 3.582 8.706 8 8.706 4.419 0 8.001-3.898 8.001-8.706 0-2.627-1.07-4.98-2.76-6.576z" fill="#4E5660"/><path d="M61.728 60.737c4.35-4.35 4.35-11.402 0-15.751-4.35-4.35-11.402-4.35-15.751 0-4.35 4.35-4.35 11.401 0 15.75 4.35 4.35 11.401 4.35 15.75 0z" fill="#00AAE4"/><path d="M56.06 50.078v-3.233a.584.584 0 00-.583-.584h-3.232a.584.584 0 00-.584.584v3.233a.584.584 0 01-.584.583h-3.232a.584.584 0 00-.584.584v3.232c0 .323.261.584.584.584h3.232c.323 0 .584.261.584.583v3.233c0 .322.261.584.584.584h3.232a.584.584 0 00.584-.584v-3.233c0-.322.261-.583.583-.583h3.233a.584.584 0 00.584-.584v-3.232a.583.583 0 00-.584-.584h-3.233a.584.584 0 01-.583-.583z" fill="#fff"/></g><defs><clipPath id="clip0_161_3273"><path fill="#fff" transform="translate(14 13)" d="M0 0h51v51H0z"/></clipPath></defs></svg>