<svg width="76" height="76" fill="none" xmlns="http://www.w3.org/2000/svg"><rect width="76" height="76" rx="38" fill="#F8FCFD"/><g clip-path="url(#clip0_161_3099)"><path d="M13 46.37a5.485 5.485 0 015.479-5.48h4.183a1.494 1.494 0 010 2.989H18.48a2.493 2.493 0 00-2.49 2.49v8.168a2.493 2.493 0 002.49 2.49h9.96a1.494 1.494 0 010 2.989h-9.96A5.485 5.485 0 0113 54.537V46.37z" fill="#F80000"/><path d="M59.518 13H25.65a4.487 4.487 0 00-4.482 4.482v25.899a4.487 4.487 0 004.482 4.482h33.868A4.487 4.487 0 0064 43.381V17.482A4.487 4.487 0 0059.518 13z" fill="#0387D1"/><path d="M59.519 13H42.585v34.863H59.52A4.487 4.487 0 0064 43.381V17.482A4.487 4.487 0 0059.52 13z" fill="#00AAE4"/><path d="M25.65 15.988h33.868c.823 0 1.494.67 1.494 1.494v18.926H24.156V17.482c0-.823.67-1.494 1.494-1.494z" fill="#91D8F0"/><path d="M61.013 17.482c0-.823-.67-1.494-1.494-1.494H42.585v20.42h18.428V17.482z" fill="#B7E0EE"/><path d="M28.639 43.63a1.494 1.494 0 100-2.988 1.494 1.494 0 000 2.988z" fill="#fff"/><path d="M34.615 43.63a1.494 1.494 0 100-2.989 1.494 1.494 0 000 2.989z" fill="#F8FCFD"/><path d="M40.592 43.63a1.494 1.494 0 100-2.988 1.494 1.494 0 000 2.988z" fill="#FFF0F2"/><path d="M31.627 21.467h-2.988a1.494 1.494 0 010-2.988h2.988a1.494 1.494 0 010 2.988zM56.53 43.63h-5.977a1.494 1.494 0 010-2.988h5.976a1.494 1.494 0 010 2.988z" fill="#F8FCFD"/><path d="M42.586 32.915A15.39 15.39 0 0131.668 28.4a1.494 1.494 0 010-2.113l6.34-6.34a1.494 1.494 0 012.112 0 3.49 3.49 0 004.93 0 1.494 1.494 0 012.114 0l6.339 6.34a1.494 1.494 0 010 2.113 15.391 15.391 0 01-10.917 4.515z" fill="#00AAE4"/><path d="M53.503 26.287l-6.34-6.34a1.494 1.494 0 00-2.112 0 3.476 3.476 0 01-2.466 1.02v11.947c3.954 0 7.908-1.504 10.918-4.514a1.494 1.494 0 000-2.113z" fill="#fff"/><path d="M48.361 62.008H29.436a2.493 2.493 0 01-2.49-2.49v-1.993a2.493 2.493 0 012.49-2.49H48.36c.826 0 1.495.67 1.495 1.494v3.985c0 .825-.67 1.494-1.495 1.494z" fill="#00AAE4"/><path d="M26.945 58.522v.996a2.493 2.493 0 002.49 2.49h18.926c.826 0 1.495-.67 1.495-1.494v-1.992h-22.91z" fill="#027EC3"/><path d="M47.91 62.008l1.842 1.227c.75.5 1.623.765 2.525.765a4.558 4.558 0 004.553-4.553v-1.852a4.558 4.558 0 00-4.553-4.552 4.53 4.53 0 00-2.525.765l-1.842 1.227v6.973z" fill="#F80000"/><path d="M47.91 58.522v3.486l1.842 1.227c.75.5 1.623.765 2.525.765a4.558 4.558 0 004.553-4.553v-.925h-8.92z" fill="#CC0606"/></g><defs><clipPath id="clip0_161_3099"><path fill="#fff" transform="translate(13 13)" d="M0 0h51v51H0z"/></clipPath></defs></svg>