<svg width="76" height="76" fill="none" xmlns="http://www.w3.org/2000/svg"><rect width="76" height="76" rx="38" fill="#F8FCFD"/><g clip-path="url(#clip0_161_3577)"><path d="M43.026 55.66a1.636 1.636 0 01-.857-2.987c1.45-.988 2.614-2.519 3.278-4.31 2.223-6-2.143-8.97-2.83-14.264-.643-4.966 2.74-9.916 7.606-11.133a1.636 1.636 0 01.794 3.174c-3.256.814-5.585 4.219-5.155 7.538.35 2.709 2.32 5.293 3.114 8.455 1.225 4.88-.864 10.45-4.966 13.244a1.628 1.628 0 01-.984.282zm-9.049 0a1.636 1.636 0 00.857-2.987c-1.45-.988-2.615-2.519-3.279-4.31-2.223-6 2.143-8.97 2.83-14.264.643-4.966-2.74-9.916-7.606-11.133a1.636 1.636 0 00-.794 3.174c3.256.814 5.585 4.219 5.155 7.538-.35 2.709-2.32 5.293-3.113 8.455-1.225 4.88.863 10.45 4.966 13.244.3.205.646.296.984.282z" fill="#F80000"/><path d="M55.044 13.218h-.862c-2.408 0-4.425 1.91-4.459 4.317a4.366 4.366 0 001.23 3.108.493.493 0 010 .683 4.365 4.365 0 00-1.23 3.043c0 1.182.468 2.255 1.23 3.043a.493.493 0 010 .683 4.366 4.366 0 00-1.23 3.107c.034 2.408 2.051 4.318 4.459 4.318h.862c4.528 0 8.956-4.993 8.956-11.15 0-6.158-4.428-11.152-8.956-11.152z" fill="#EDA1AB"/><path d="M55.043 13.218h-.94c-.32 0-.633.035-.934.1 4.111.734 7.838 5.402 7.838 11.051 0 5.65-3.727 10.317-7.838 11.05.3.065.613.1.934.1h.94c4.528 0 8.956-4.992 8.956-11.15 0-6.157-4.428-11.151-8.956-11.151z" fill="#DF6C85"/><path d="M21.956 13.218h.862c2.408 0 4.424 1.91 4.458 4.317a4.366 4.366 0 01-1.23 3.108.493.493 0 00.001.683 4.365 4.365 0 011.23 3.043 4.365 4.365 0 01-1.23 3.043.493.493 0 000 .683 4.366 4.366 0 011.23 3.107c-.035 2.408-2.051 4.318-4.46 4.318h-.861C17.427 35.52 13 30.527 13 24.37c0-6.158 4.427-11.152 8.956-11.152z" fill="#EDA1AB"/><path d="M27.276 24.37a4.365 4.365 0 00-1.23-3.044.493.493 0 010-.683 4.366 4.366 0 001.23-3.108c-.035-2.407-2.052-4.317-4.46-4.317h-.862c-.374 0-.747.034-1.118.1a4.382 4.382 0 012.07 7.47.27.27 0 000 .393 4.367 4.367 0 011.377 3.188 4.366 4.366 0 01-1.376 3.188.27.27 0 000 .394 4.382 4.382 0 01-2.07 7.468c.37.066.743.1 1.117.1h.862c2.408 0 4.425-1.91 4.46-4.317a4.366 4.366 0 00-1.23-3.107.493.493 0 010-.683 4.365 4.365 0 001.23-3.043z" fill="#DF6C85"/><path d="M47.802 51.065c-.395-2.515-4.164-4.148-9.3-4.148-5.136 0-8.906 1.633-9.3 4.148-.397 2.532 2.752 6.441 6.781 7.681.443.136.743.55.743 1.013v2.197c0 .956.735 1.779 1.69 1.824a1.776 1.776 0 001.862-1.774v-2.247c0-.464.3-.876.743-1.013 4.029-1.24 7.178-5.15 6.78-7.681z" fill="#EDA1AB"/><path d="M47.798 51.065c-.336-2.145-3.127-3.647-7.126-4.043 2.842.775 4.733 2.302 5.006 4.043.397 2.532-2.752 5.57-6.78 6.809a1.057 1.057 0 00-.743 1.013v3.119c0 .58-.28 1.094-.71 1.419.272.207.603.338.968.355a1.776 1.776 0 001.862-1.774v-2.247c0-.464.3-.876.742-1.013 4.03-1.24 7.178-5.15 6.781-7.681z" fill="#DF6C85"/><path d="M45.204 40.102c3.862-3.863 3.862-10.125 0-13.988-3.863-3.863-10.126-3.863-13.988 0-3.863 3.863-3.863 10.125 0 13.988 3.862 3.863 10.125 3.863 13.988 0z" fill="#00AAE4"/><path d="M40.173 30.636v-2.871a.518.518 0 00-.518-.518h-2.87a.518.518 0 00-.52.518v2.87a.518.518 0 01-.517.519h-2.871a.518.518 0 00-.519.518v2.871c0 .286.233.518.519.518h2.87c.287 0 .519.232.519.519v2.87c0 .287.232.519.518.519h2.871a.518.518 0 00.518-.519v-2.87c0-.287.232-.519.518-.519h2.872a.518.518 0 00.518-.518v-2.87a.518.518 0 00-.518-.519H40.69a.518.518 0 01-.518-.518z" fill="#fff"/></g><defs><clipPath id="clip0_161_3577"><path fill="#fff" transform="translate(13 13)" d="M0 0h51v51H0z"/></clipPath></defs></svg>