<svg width="42" height="42" fill="none" xmlns="http://www.w3.org/2000/svg"><path d="M21 42c11.598 0 21-9.402 21-21S32.598 0 21 0 0 9.402 0 21s9.402 21 21 21z" fill="#665CAC"/><path d="M23.209 10.972h-4.421a7.737 7.737 0 00-7.737 7.737v3.315a7.737 7.737 0 004.42 6.994v3.694a.371.371 0 00.628.26l3.21-3.21h3.9a7.737 7.737 0 007.736-7.738v-3.316a7.737 7.737 0 00-7.736-7.736zm2.896 14.5l-1.106 1.106c-1.177 1.152-4.25-.163-6.957-2.929-2.708-2.766-3.897-5.869-2.764-7.021l1.106-1.105a1.163 1.163 0 011.572.016l1.614 1.658a1.085 1.085 0 01-.442 1.788 1.056 1.056 0 00-.713 1.27c.276 1.228 1.834 2.764 2.995 3.065a1.105 1.105 0 001.29-.685 1.082 1.082 0 011.81-.387l1.611 1.658a1.161 1.161 0 01-.016 1.567zm-4.101-9.25c-.11 0-.22.006-.329.019a.368.368 0 11-.08-.732 3.688 3.688 0 014.078 4.07.367.367 0 01-.406.326.37.37 0 01-.326-.406 2.954 2.954 0 00-2.937-3.277zm2.21 2.948a.37.37 0 01-.737 0 1.473 1.473 0 00-1.473-1.473.37.37 0 110-.738 2.21 2.21 0 012.21 2.211zm2.81 1.196a.371.371 0 11-.718-.17 4.421 4.421 0 00-4.302-5.44c-.113-.002-.23-.002-.343-.002a.366.366 0 01-.268-.088.368.368 0 01.213-.647 5.167 5.167 0 015.418 6.347z" fill="#fff"/></svg>