<svg width="42" height="42" fill="none" xmlns="http://www.w3.org/2000/svg"><path d="M21 42c11.598 0 21-9.402 21-21S32.598 0 21 0 0 9.402 0 21s9.402 21 21 21z" fill="#4169E1"/><path d="M33.227 28.052c-.61.086-3.598 0-3.753 0a2.936 2.936 0 01-2.074-.82c-.63-.607-1.193-1.275-1.809-1.91a5.007 5.007 0 00-.59-.532c-.491-.38-.978-.294-1.21.286a11.27 11.27 0 00-.376 1.916c-.041.588-.413.955-1.072.996-.408.021-.816.028-1.22.019a9.307 9.307 0 01-4.22-1.043 11.497 11.497 0 01-3.611-3.157c-1.592-2.034-2.864-4.267-4-6.57-.06-.114-1.224-2.591-1.253-2.708-.105-.392 0-.767.322-.895.206-.08 4.043 0 4.107 0a1.345 1.345 0 011.289.926 19.993 19.993 0 002.883 5.054c.168.205.365.385.584.534.313.213.609.139.738-.221.152-.5.242-1.017.267-1.54a32.36 32.36 0 00-.057-2.751c-.038-.664-.272-1.246-1.25-1.432-.301-.053-.328-.3-.134-.549.403-.515.954-.596 1.572-.627.921-.053 1.843-.017 2.764 0h.2a5.69 5.69 0 011.193.121 1.098 1.098 0 01.876.979c.047.26.067.527.06.792-.024 1.131-.079 2.26-.09 3.39-.012.449.029.896.12 1.335.132.601.545.752.955.317a15.07 15.07 0 001.458-1.799 18.205 18.205 0 001.91-3.71c.267-.671.477-.82 1.193-.82h4.07c.243-.004.484.029.717.096a.619.619 0 01.427.8c-.2.892-.683 1.653-1.193 2.386-.828 1.174-1.702 2.317-2.549 3.472a4.722 4.722 0 00-.293.477c-.32.575-.296.898.167 1.377.74.76 1.53 1.473 2.243 2.255.524.57.996 1.184 1.413 1.835.522.81.2 1.583-.774 1.721z" fill="#fff"/><path d="M21 42c11.598 0 21-9.402 21-21S32.598 0 21 0 0 9.402 0 21s9.402 21 21 21z" fill="#4169E1"/><path d="M32.227 29.052c-.61.086-3.598 0-3.753 0a2.936 2.936 0 01-2.074-.82c-.63-.607-1.193-1.275-1.809-1.91a5.007 5.007 0 00-.59-.532c-.491-.38-.978-.294-1.21.286a11.27 11.27 0 00-.376 1.916c-.041.588-.413.955-1.072.996-.408.021-.816.028-1.22.019a9.307 9.307 0 01-4.22-1.043 11.497 11.497 0 01-3.611-3.157c-1.592-2.034-2.864-4.267-4-6.57-.06-.114-1.224-2.591-1.253-2.708-.105-.392 0-.767.322-.895.206-.08 4.043 0 4.107 0a1.345 1.345 0 011.289.926 19.993 19.993 0 002.883 5.054c.168.205.365.385.584.534.313.213.609.139.738-.221.152-.5.242-1.017.267-1.54a32.36 32.36 0 00-.057-2.751c-.038-.664-.272-1.246-1.25-1.432-.301-.053-.328-.3-.134-.549.403-.515.954-.596 1.572-.627.921-.053 1.843-.017 2.764 0h.2a5.69 5.69 0 011.193.121 1.098 1.098 0 01.876.979c.047.26.067.527.06.792-.024 1.131-.079 2.26-.09 3.39-.012.449.029.896.12 1.335.132.601.545.752.955.317a15.07 15.07 0 001.458-1.799 18.205 18.205 0 001.91-3.71c.267-.671.477-.82 1.193-.82h4.07c.243-.004.484.029.717.096a.619.619 0 01.427.8c-.2.892-.683 1.653-1.193 2.386-.828 1.174-1.702 2.317-2.549 3.472a4.722 4.722 0 00-.293.477c-.32.575-.296.898.167 1.377.74.76 1.53 1.473 2.243 2.255.524.57.996 1.184 1.413 1.835.522.81.2 1.583-.774 1.721z" fill="#fff"/></svg>