<svg width="25" height="25" fill="none" xmlns="http://www.w3.org/2000/svg"><path d="M8.918 4.09c1.592-2.787 5.572-2.787 7.164 0l8.358 14.637C26.032 21.515 24.042 25 20.858 25H4.142C.958 25-1.032 21.515.56 18.727L8.918 4.091z" fill="#F80000"/><path d="M12.5 8c-1.318 0-1.562 1.263-1.488 2.565l.2 4.606c.286 1.439 2.29 1.435 2.575 0l.201-4.606C14.062 9.16 13.818 8 12.5 8zm0 13c.799 0 1.447-.665 1.447-1.485 0-.82-.648-1.484-1.447-1.484s-1.447.665-1.447 1.485c0 .82.648 1.484 1.447 1.484z" fill="#fff"/></svg>