<svg width="42" height="42" fill="none" xmlns="http://www.w3.org/2000/svg"><path d="M21 42c11.598 0 21-9.402 21-21S32.598 0 21 0 0 9.402 0 21s9.402 21 21 21z" fill="#4CAF50"/><path d="M21.002 9.947a11.052 11.052 0 00-8.95 17.533l-1.382 4.106 4.253-1.36a11.054 11.054 0 106.079-20.279zm5.874 15.631l-1.177 1.178c-1.238 1.238-4.52-.125-7.43-3.04s-4.214-6.19-3.037-7.414l1.177-1.177a1.235 1.235 0 011.672 0l1.735 1.73a1.151 1.151 0 01-.434 1.918 1.125 1.125 0 00-.743 1.365c.31 1.298 1.981 2.91 3.222 3.219a1.18 1.18 0 001.351-.752 1.155 1.155 0 011.934-.433l1.733 1.735a1.235 1.235 0 01-.003 1.671z" fill="#fff"/></svg>