<svg width="515" height="218" viewBox="0 0 515 218" fill="none" xmlns="http://www.w3.org/2000/svg">
<path d="M130.771 135.103H154.772V169.024H130.771V214.884H88.7321V169.024H1.89101L0 142.528L88.2958 2.91158H130.771V135.103ZM41.8932 135.103H88.7321V60.2721L85.9684 65.0765L41.8932 135.103Z" fill="url(#paint0_linear_312_12548)"/>
<path d="M339.896 127.241C339.896 156.553 333.835 178.973 321.713 194.502C309.591 210.031 291.845 217.795 268.474 217.795C245.394 217.795 227.744 210.176 215.525 194.939C203.307 179.701 197.052 157.863 196.761 129.425V90.4084C196.761 60.8061 202.87 38.3374 215.089 23.0025C227.405 7.66749 245.103 0 268.183 0C291.263 0 308.912 7.61896 321.131 22.8569C333.35 37.9977 339.605 59.787 339.896 88.2246V127.241ZM297.857 84.4394C297.857 66.8721 295.433 54.1092 290.584 46.1505C285.832 38.0948 278.365 34.0669 268.183 34.0669C258.291 34.0669 250.97 37.9007 246.218 45.5682C241.563 53.1386 239.09 65.028 238.799 81.2365V132.774C238.799 150.05 241.127 162.91 245.782 171.354C250.533 179.701 258.097 183.874 268.474 183.874C278.753 183.874 286.172 179.846 290.729 171.791C295.287 163.735 297.663 151.409 297.857 134.812V84.4394Z" fill="url(#paint1_linear_312_12548)"/>
<path d="M490.999 135.103H515V169.024H490.999V214.884H448.96V169.024H362.119L360.228 142.528L448.524 2.91158H490.999V135.103ZM402.121 135.103H448.96V60.2721L446.196 65.0765L402.121 135.103Z" fill="url(#paint2_linear_312_12548)"/>
<path d="M168.96 163.959C154.226 137.575 163.65 104.232 190.01 89.4875L294.632 30.9638C320.991 16.2188 354.305 25.6546 369.04 52.0391C383.774 78.4236 374.35 111.766 347.991 126.511L243.368 185.035C217.009 199.78 183.695 190.344 168.96 163.959Z" fill="#FFE4C2"/>
<path d="M243.623 122.197C228.889 95.8116 238.313 62.4695 264.672 47.7246L190.011 89.4885C163.652 104.233 154.228 137.576 168.962 163.96C183.697 190.345 217.011 199.781 243.37 185.036L318.031 143.272C291.671 158.017 258.358 148.581 243.623 122.197Z" fill="#F2D1A5"/>
<path d="M325.156 112.415L243.336 158.184C239.57 160.29 234.811 158.942 232.706 155.173L209.838 114.224C207.733 110.455 209.079 105.691 212.845 103.585L294.666 57.8161C298.431 55.7097 303.19 57.0577 305.295 60.8269L328.163 101.776C330.268 105.545 328.922 110.308 325.156 112.415Z" fill="#FFF2DE"/>
<path d="M236.937 90.1084L212.847 103.584C209.081 105.69 207.735 110.454 209.84 114.223L232.708 155.172C234.813 158.941 239.572 160.289 243.338 158.183L267.428 144.707C257.713 139.985 249.293 132.347 243.624 122.195C237.955 112.045 235.865 100.864 236.937 90.1084Z" fill="#FFE4C2"/>
<path d="M248.82 135.692C254.353 132.598 256.841 126.515 254.378 122.105C251.914 117.696 245.432 116.629 239.899 119.723C234.366 122.817 231.878 128.9 234.341 133.309C236.805 137.719 243.287 138.785 248.82 135.692Z" fill="#FFA1AC"/>
<path d="M303.122 105.326C308.655 102.232 311.143 96.1489 308.68 91.7393C306.216 87.3297 299.734 86.2631 294.201 89.357C288.668 92.4509 286.18 98.5337 288.643 102.943C291.107 107.353 297.589 108.419 303.122 105.326Z" fill="#FFA1AC"/>
<path d="M276.178 101.875C273.388 96.8783 269.509 98.4323 265.048 100.928C260.587 103.423 257.233 105.916 260.023 110.913C262.813 115.909 268.692 117.937 273.153 115.442C277.614 112.946 278.969 106.872 276.178 101.875Z" fill="#495560"/>
<path d="M239.952 119.986C239.252 119.787 238.627 119.322 238.245 118.635L235.958 114.54C235.191 113.167 235.682 111.433 237.052 110.666C238.423 109.899 240.156 110.39 240.922 111.762L243.209 115.858C243.975 117.23 243.485 118.964 242.114 119.731C241.428 120.115 240.652 120.184 239.952 119.986Z" fill="#495560"/>
<path d="M290.908 91.4835C290.208 91.2852 289.583 90.8194 289.2 90.1332L286.913 86.0373C286.147 84.665 286.637 82.9307 288.008 82.164C289.379 81.397 291.111 81.8877 291.877 83.26L294.164 87.3558C294.93 88.7281 294.44 90.4624 293.069 91.2291C292.384 91.6124 291.608 91.6818 290.908 91.4835Z" fill="#495560"/>
<path d="M316.331 54.7932C317.888 55.2341 319.506 54.3283 319.947 52.77C320.387 51.2117 319.482 49.5911 317.926 49.1502C316.369 48.7093 314.75 49.6151 314.31 51.1734C313.869 52.7317 314.774 54.3523 316.331 54.7932Z" fill="#F2BB88"/>
<path d="M341.104 99.1525C342.66 99.5934 344.279 98.6876 344.72 97.1293C345.16 95.571 344.255 93.9504 342.699 93.5095C341.142 93.0686 339.523 93.9744 339.083 95.5327C338.642 97.0909 339.547 98.7116 341.104 99.1525Z" fill="#F2BB88"/>
<path d="M332.846 84.3655C334.402 84.8064 336.021 83.9005 336.462 82.3423C336.902 80.784 335.997 79.1633 334.441 78.7224C332.884 78.2815 331.265 79.1873 330.825 80.7456C330.384 82.3039 331.289 83.9246 332.846 84.3655Z" fill="#F2BB88"/>
<path d="M324.588 69.5798C326.144 70.0207 327.763 69.1149 328.204 67.5566C328.644 65.9984 327.739 64.3777 326.183 63.9368C324.626 63.4959 323.007 64.4017 322.567 65.96C322.126 67.5183 323.031 69.1389 324.588 69.5798Z" fill="#F2BB88"/>
<path d="M352.316 83.1769C353.873 83.6178 355.492 82.712 355.932 81.1537C356.372 79.5954 355.468 77.9748 353.911 77.5339C352.354 77.093 350.735 77.9988 350.295 79.5571C349.854 81.1154 350.759 82.736 352.316 83.1769Z" fill="#F2BB88"/>
<path d="M344.058 68.3915C345.615 68.8324 347.234 67.9266 347.674 66.3683C348.115 64.8101 347.21 63.1894 345.653 62.7485C344.097 62.3076 342.478 63.2134 342.037 64.7717C341.597 66.33 342.502 67.9506 344.058 68.3915Z" fill="#F2BB88"/>
<path d="M335.802 53.6041C337.359 54.045 338.978 53.1392 339.418 51.581C339.858 50.0227 338.954 48.402 337.397 47.9611C335.84 47.5202 334.221 48.426 333.781 49.9843C333.34 51.5426 334.245 53.1632 335.802 53.6041Z" fill="#F2BB88"/>
<path d="M220.078 166.852C221.635 167.293 223.254 166.387 223.694 164.829C224.135 163.27 223.23 161.65 221.673 161.209C220.116 160.768 218.497 161.674 218.057 163.232C217.617 164.79 218.521 166.411 220.078 166.852Z" fill="#F2BB88"/>
<path d="M195.304 122.49C196.861 122.931 198.48 122.025 198.92 120.467C199.36 118.909 198.456 117.288 196.899 116.847C195.342 116.406 193.723 117.312 193.283 118.87C192.843 120.428 193.747 122.049 195.304 122.49Z" fill="#F2BB88"/>
<path d="M203.562 137.277C205.118 137.718 206.737 136.812 207.178 135.254C207.618 133.696 206.713 132.075 205.157 131.634C203.6 131.193 201.981 132.099 201.541 133.657C201.1 135.216 202.005 136.836 203.562 137.277Z" fill="#F2BB88"/>
<path d="M211.82 152.064C213.377 152.505 214.995 151.6 215.436 150.041C215.876 148.483 214.972 146.862 213.415 146.421C211.858 145.981 210.239 146.886 209.799 148.445C209.358 150.003 210.263 151.624 211.82 152.064Z" fill="#F2BB88"/>
<path d="M184.091 138.466C185.648 138.907 187.267 138.001 187.707 136.442C188.148 134.884 187.243 133.264 185.686 132.823C184.13 132.382 182.511 133.288 182.07 134.846C181.63 136.404 182.535 138.025 184.091 138.466Z" fill="#F2BB88"/>
<path d="M192.349 153.253C193.906 153.694 195.525 152.788 195.965 151.23C196.406 149.671 195.501 148.051 193.944 147.61C192.388 147.169 190.769 148.075 190.328 149.633C189.888 151.191 190.793 152.812 192.349 153.253Z" fill="#F2BB88"/>
<path d="M200.607 168.04C202.164 168.481 203.783 167.575 204.223 166.017C204.664 164.458 203.759 162.838 202.202 162.397C200.646 161.956 199.027 162.862 198.586 164.42C198.146 165.978 199.051 167.599 200.607 168.04Z" fill="#F2BB88"/>
<defs>
<linearGradient id="paint0_linear_312_12548" x1="449" y1="-111.4" x2="449" y2="335.865" gradientUnits="userSpaceOnUse">
<stop stop-color="#00AAE4"/>
<stop offset="1" stop-color="#0383DF"/>
</linearGradient>
<linearGradient id="paint1_linear_312_12548" x1="449" y1="-111.4" x2="449" y2="335.865" gradientUnits="userSpaceOnUse">
<stop stop-color="#00AAE4"/>
<stop offset="1" stop-color="#0383DF"/>
</linearGradient>
<linearGradient id="paint2_linear_312_12548" x1="449" y1="-111.4" x2="449" y2="335.865" gradientUnits="userSpaceOnUse">
<stop stop-color="#00AAE4"/>
<stop offset="1" stop-color="#0383DF"/>
</linearGradient>
</defs>
</svg>
