<svg width="415" height="319" viewBox="0 0 415 319" fill="none" xmlns="http://www.w3.org/2000/svg">
<path d="M373.564 192.794C350.928 192.794 332.577 174.312 332.577 151.513C332.577 128.713 350.928 110.231 373.564 110.231C396.2 110.231 414.551 128.713 414.551 151.513C414.551 174.312 396.2 192.794 373.564 192.794Z" fill="#F2F8FC"/>
<path d="M161.108 52.9196C146.599 52.9196 134.837 41.0732 134.837 26.4598C134.837 11.8465 146.599 0 161.108 0C175.617 0 187.379 11.8465 187.379 26.4598C187.379 41.0732 175.617 52.9196 161.108 52.9196Z" fill="#F2F8FC"/>
<path d="M399.726 299.622C399.726 299.622 423.053 208.714 336.283 197.735C249.623 186.646 299.875 54.1274 199.697 54.1274C99.5192 54.1274 116.306 152.501 70.7413 159.528C10.2421 168.97 -22.0241 239.785 17.1096 299.732H399.726V299.622Z" fill="#F2F8FC"/>
<path d="M50.2455 301.818C56.0229 298.853 60.2742 293.034 61.4732 286.557C62.1273 283.153 61.8003 279.42 60.1651 276.346C58.53 273.272 55.4778 270.856 51.9896 270.637C49.0464 270.417 45.6672 271.515 43.596 269.429C41.8519 267.672 42.1789 264.818 42.0699 262.293C41.7429 256.803 37.4916 251.643 32.2592 250.325C30.7331 249.886 29.098 249.776 27.4629 249.227C23.1026 247.69 20.5954 243.408 18.1973 239.456C15.7991 235.503 12.6379 231.441 8.16858 230.892C7.73255 230.892 7.40553 230.782 7.07851 231.002C6.64248 231.222 6.53346 231.771 6.42445 232.21C5.44339 236.052 5.98841 240.225 7.84154 243.628C9.91268 247.251 13.2919 249.886 16.2351 252.741C17.4342 253.839 18.5243 255.046 19.0693 256.583C20.2684 259.987 18.3063 263.72 18.5243 267.343C18.8513 271.625 22.2305 275.028 25.5008 277.663C26.5908 278.542 27.6809 279.42 28.226 280.628C28.989 282.385 28.553 284.361 27.7899 286.008C27.1359 287.764 26.1548 289.411 26.0458 291.278C25.9368 293.583 27.1359 295.56 28.444 297.426C36.0745 308.954 50.2455 301.818 50.2455 301.818Z" fill="#50AF2E"/>
<path d="M4.1365 228.697C12.7481 238.139 20.1606 248.569 27.2461 259.109C34.5496 270.088 41.8531 281.177 48.6116 292.486C52.5358 298.963 56.3511 305.441 59.5123 312.248C59.9484 313.236 58.4223 314.224 57.9862 313.126C55.152 307.088 51.7728 301.379 48.3936 295.67C45.1233 290.07 41.6351 284.581 38.1469 279.201C31.1704 268.331 24.1939 257.462 16.5634 246.922C12.3121 240.993 7.73373 235.394 2.82839 230.014C2.17435 229.136 3.37344 227.928 4.1365 228.697Z" fill="white"/>
<path d="M65.9435 304.221C72.3749 303.233 78.2613 299.061 81.4225 293.352C83.0576 290.277 83.9297 286.764 83.3847 283.251C82.8396 279.847 80.6595 276.553 77.3893 275.236C74.6641 274.138 71.0668 274.028 69.7588 271.393C68.6687 269.197 69.8677 266.562 70.5218 264.147C71.9389 258.767 69.5407 252.619 64.9624 249.654C63.6543 248.776 62.1282 248.117 60.8202 247.129C57.2229 244.384 56.1328 239.444 55.1518 234.942C54.1707 230.441 52.4266 225.5 48.2843 223.634C47.9573 223.414 47.5213 223.304 47.1943 223.414C46.7582 223.524 46.4312 223.963 46.2132 224.293C44.033 227.586 43.27 231.758 44.033 235.601C44.7961 239.663 47.1942 243.286 49.1564 246.91C49.9194 248.337 50.5735 249.874 50.5735 251.411C50.6825 255.034 47.5213 257.889 46.6492 261.402C45.5591 265.574 47.7393 269.856 50.0284 273.479C50.7915 274.577 51.5545 275.785 51.6636 277.102C51.8816 278.969 50.7915 280.725 49.5924 282.153C48.3933 283.58 46.9763 284.898 46.3222 286.654C45.4501 288.74 45.9952 291.156 46.6492 293.352C50.1374 306.417 65.9435 304.221 65.9435 304.221Z" fill="#9EF875"/>
<path d="M45.4513 220.011C50.6836 231.758 54.4989 244.165 57.8781 256.571C61.3663 269.417 64.8546 282.373 67.7978 295.438C69.4329 302.574 70.959 309.821 71.831 317.177C71.94 318.274 70.1959 318.274 70.0869 317.177C69.3239 310.589 67.9068 304.002 66.4897 297.524C65.0726 291.156 63.5465 284.788 61.9114 278.42C58.7502 266.014 55.5889 253.607 51.6647 241.42C49.4845 234.503 46.9774 227.696 44.0342 220.999C43.4891 219.901 45.0152 218.913 45.4513 220.011Z" fill="white"/>
<path d="M81.6386 101.801L60.7092 301.622H201.547L81.6386 101.801Z" fill="#EDA1AB"/>
<path d="M83.4917 118.928L85.6719 301.622H201.547L83.4917 118.928Z" fill="#CFD3DC"/>
<path d="M76.2959 152.415L81.6373 101.801L111.941 152.415H76.2959Z" fill="#E8899E"/>
<path d="M103.877 301.622H348.926L326.579 101.801H81.6394L103.877 301.622Z" fill="white"/>
<path d="M87.2008 151.756H332.141L326.581 101.801H81.6414L87.2008 151.756Z" fill="#EDA1AB"/>
<g opacity="0.4">
<path opacity="0.4" d="M286.461 203.248H327.121L322.979 165.7H282.319L286.461 203.248Z" fill="#8F8F8D"/>
<path opacity="0.4" d="M241.442 203.248H282.102L277.85 165.7H237.3L241.442 203.248Z" fill="#8F8F8D"/>
<path opacity="0.4" d="M196.313 203.248H236.973L232.83 165.7H192.171L196.313 203.248Z" fill="#8F8F8D"/>
<path opacity="0.4" d="M151.293 203.248H191.953L187.702 165.7H147.042L151.293 203.248Z" fill="#8F8F8D"/>
<path opacity="0.4" d="M106.164 203.248H146.824L142.682 165.7H102.022L106.164 203.248Z" fill="#8F8F8D"/>
<path opacity="0.4" d="M291.368 246.506H332.027L327.776 208.958H287.116L291.368 246.506Z" fill="#8F8F8D"/>
<path opacity="0.4" d="M246.239 246.506H286.898L282.756 208.958H242.096L246.239 246.506Z" fill="#FF1313"/>
<path opacity="0.4" d="M201.219 246.506H241.879L237.628 208.958H196.968L201.219 246.506Z" fill="#8F8F8D"/>
<path opacity="0.4" d="M156.09 246.506H196.75L192.608 208.958H151.948L156.09 246.506Z" fill="#8F8F8D"/>
<path opacity="0.4" d="M111.071 246.506H151.73L147.479 208.958H106.819L111.071 246.506Z" fill="#8F8F8D"/>
<path opacity="0.4" d="M296.164 289.655H336.824L332.682 252.216H292.022L296.164 289.655Z" fill="#8F8F8D"/>
<path opacity="0.4" d="M251.035 289.655H291.695L287.553 252.216H246.893L251.035 289.655Z" fill="#8F8F8D"/>
<path opacity="0.4" d="M206.016 289.655H246.676L242.424 252.216H201.874L206.016 289.655Z" fill="#8F8F8D"/>
<path opacity="0.4" d="M160.887 289.655H201.547L197.405 252.216H156.745L160.887 289.655Z" fill="#8F8F8D"/>
<path opacity="0.4" d="M115.868 289.655H156.527L152.276 252.216H111.616L115.868 289.655Z" fill="#8F8F8D"/>
</g>
<path d="M151.077 136.715H259.648C278.288 136.715 292.677 120.465 290.606 101.801H119.355L120.118 108.827C121.863 124.637 135.161 136.715 151.077 136.715Z" fill="#E8899E"/>
<path d="M214.63 128.7C209.272 128.7 204.929 124.325 204.929 118.928C204.929 113.532 209.272 109.157 214.63 109.157C219.988 109.157 224.332 113.532 224.332 118.928C224.332 124.325 219.988 128.7 214.63 128.7Z" fill="#830C1B"/>
<path d="M213.973 126.394C210.06 126.394 206.888 123.199 206.888 119.258C206.888 115.316 210.06 112.121 213.973 112.121C217.886 112.121 221.059 115.316 221.059 119.258C221.059 123.199 217.886 126.394 213.973 126.394Z" fill="#3D010B"/>
<path d="M377.376 303.574C370.944 302.367 365.276 297.975 362.442 292.046C360.915 288.972 360.152 285.349 360.806 281.945C361.46 278.542 363.859 275.358 367.02 274.15C369.745 273.162 373.342 273.272 374.759 270.637C375.958 268.441 374.759 265.806 374.214 263.391C373.015 258.011 375.631 251.972 380.319 249.118C381.736 248.239 383.262 247.69 384.57 246.812C388.276 244.177 389.584 239.236 390.783 234.845C391.983 230.453 393.836 225.513 398.087 223.756C398.414 223.646 398.85 223.426 399.177 223.536C399.613 223.646 399.94 224.085 400.158 224.524C402.12 227.928 402.774 232.1 401.902 235.943C400.921 240.005 398.414 243.518 396.343 247.032C395.58 248.459 394.817 249.886 394.708 251.533C394.49 255.156 397.433 258.121 398.196 261.744C399.068 265.916 396.779 270.088 394.381 273.601C393.618 274.699 392.746 275.797 392.637 277.224C392.419 279.091 393.4 280.848 394.599 282.275C395.798 283.702 397.106 285.129 397.76 286.886C398.523 288.972 397.869 291.388 397.215 293.474C393.073 306.429 377.376 303.574 377.376 303.574Z" fill="#50AF2E"/>
<path d="M402.994 221.34C397.325 232.869 393.074 245.055 389.259 257.242C385.334 269.759 381.41 282.275 378.031 295.011C376.069 302.147 374.216 309.393 373.017 316.64C372.799 317.737 371.163 317.298 371.272 316.2C372.253 309.613 373.998 303.025 375.742 296.548C377.377 290.18 379.23 283.922 381.083 277.554C384.789 265.038 388.605 252.411 393.074 240.115C395.581 233.418 398.306 226.72 401.467 220.352C402.013 219.474 403.539 220.352 402.994 221.34Z" fill="white"/>
<path d="M359.39 303.684C352.959 304.563 346.091 302.147 341.513 297.536C339.115 295.011 337.262 291.937 336.826 288.423C336.39 284.91 337.589 281.287 340.314 279.091C342.603 277.224 346.091 276.236 346.636 273.272C347.072 270.857 345.11 268.661 343.911 266.575C341.077 261.854 341.622 255.266 345.219 251.094C346.309 249.886 347.617 248.788 348.489 247.471C351.215 243.738 350.779 238.797 350.561 234.186C350.343 229.575 350.561 224.415 354.049 221.34C354.376 221.121 354.703 220.792 355.03 220.792C355.466 220.792 355.902 221.121 356.229 221.34C359.172 223.866 361.134 227.708 361.461 231.551C361.788 235.723 360.589 239.785 359.717 243.848C359.39 245.385 359.172 247.032 359.608 248.679C360.48 252.192 364.295 254.058 366.149 257.242C368.329 260.975 367.457 265.587 366.258 269.759C365.822 271.076 365.495 272.394 365.713 273.711C366.04 275.578 367.566 276.895 369.092 277.883C370.618 278.871 372.362 279.75 373.452 281.287C374.869 283.043 374.978 285.459 374.978 287.764C375.196 301.379 359.39 303.684 359.39 303.684Z" fill="#9EF875"/>
<path d="M357.537 217.607C355.793 230.453 355.575 243.518 355.793 256.474C356.011 269.429 356.229 282.384 356.992 295.34C357.428 302.696 357.864 310.162 359.063 317.408C359.281 318.506 357.537 319.055 357.319 317.847C356.229 311.479 355.793 305.002 355.357 298.524C354.921 291.827 354.594 285.239 354.485 278.542C354.049 265.477 353.722 252.302 354.049 239.236C354.267 231.771 354.812 224.414 355.793 217.058C356.011 215.961 357.755 216.509 357.537 217.607Z" fill="white"/>
<path d="M39.3462 215.303C38.3652 216.291 36.7301 216.291 35.749 215.303L25.5023 204.982C24.5212 203.994 24.5212 202.347 25.5023 201.359C26.4834 200.371 28.1185 200.371 29.0995 201.359L39.3462 211.68C40.3273 212.668 40.3273 214.315 39.3462 215.303Z" fill="white"/>
<path d="M39.3462 201.358C40.3273 202.346 40.3273 203.993 39.3462 204.981L29.0995 215.302C28.1185 216.29 26.4834 216.29 25.5023 215.302C24.5212 214.313 24.5212 212.667 25.5023 211.678L35.749 201.358C36.7301 200.26 38.3652 200.26 39.3462 201.358Z" fill="white"/>
<path d="M362.991 193.125C362.01 194.113 360.375 194.113 359.394 193.125L349.147 182.804C348.166 181.816 348.166 180.169 349.147 179.181C350.128 178.193 351.763 178.193 352.744 179.181L362.991 189.501C363.972 190.38 363.972 192.027 362.991 193.125Z" fill="white"/>
<path d="M362.991 179.18C363.972 180.168 363.972 181.815 362.991 182.803L352.744 193.124C351.763 194.112 350.128 194.112 349.147 193.124C348.166 192.136 348.166 190.489 349.147 189.501L359.394 179.18C360.266 178.082 361.901 178.082 362.991 179.18Z" fill="white"/>
<path d="M52.9704 194.882C52.3164 195.541 51.3353 195.541 50.7903 194.882L44.5768 188.624C43.9228 187.965 43.9228 186.977 44.5768 186.428C45.2309 185.769 46.212 185.769 46.757 186.428L52.9704 192.686C53.6244 193.235 53.6244 194.223 52.9704 194.882Z" fill="white"/>
<path d="M52.9704 186.317C53.6244 186.976 53.6244 187.964 52.9704 188.513L46.757 194.771C46.103 195.43 45.1219 195.43 44.5769 194.771C43.9228 194.112 43.9228 193.124 44.5769 192.575L50.7903 186.317C51.4443 185.658 52.4254 185.658 52.9704 186.317Z" fill="white"/>
<path d="M52.6459 213.655C49.2143 213.655 46.4324 210.853 46.4324 207.397C46.4324 203.941 49.2143 201.139 52.6459 201.139C56.0775 201.139 58.8594 203.941 58.8594 207.397C58.8594 210.853 56.0775 213.655 52.6459 213.655Z" stroke="white" stroke-width="1.4808" stroke-miterlimit="10"/>
<path d="M360.59 155.905C360.59 159.308 357.865 162.163 354.376 162.163C350.888 162.163 348.163 159.418 348.163 155.905C348.163 152.501 350.888 149.646 354.376 149.646C357.865 149.646 360.59 152.501 360.59 155.905Z" stroke="white" stroke-width="1.4808" stroke-miterlimit="10"/>
<path d="M383.699 171.715C383.699 175.118 380.974 177.973 377.486 177.973C374.107 177.973 371.272 175.228 371.272 171.715C371.272 168.311 373.998 165.457 377.486 165.457C380.974 165.566 383.699 168.311 383.699 171.715Z" stroke="white" stroke-width="1.4808" stroke-miterlimit="10"/>
<path d="M368.877 217.498H396.783C398.309 217.498 399.835 216.729 400.817 215.522C402.997 212.667 406.158 207.836 402.997 206.629C398.527 204.872 392.641 213.436 392.641 213.436C392.641 213.436 393.949 199.272 382.067 199.272C370.185 199.272 373.347 213.326 373.347 213.326C373.347 213.326 370.403 207.397 365.389 207.397C362.228 207.397 363.1 211.24 364.19 214.204C364.844 216.071 366.806 217.498 368.877 217.498Z" fill="white"/>
<path d="M23.3201 149.756H58.5295C60.4916 149.756 62.3447 148.878 63.6528 147.231C66.378 143.718 70.3023 137.46 66.378 135.923C60.8186 133.727 53.2971 144.486 53.2971 144.486C53.2971 144.486 54.9322 126.59 39.9982 126.59C25.0642 126.59 28.9884 144.377 28.9884 144.377C28.9884 144.377 25.3912 136.911 18.9598 136.911C15.0355 136.911 16.0166 141.742 17.4337 145.475C18.3057 148.11 20.7039 149.756 23.3201 149.756Z" fill="white"/>
<path d="M260.324 246.881C249.328 244.29 242.499 233.211 245.072 222.135C247.644 211.06 258.644 204.182 269.64 206.773C280.637 209.364 287.465 220.443 284.893 231.519C282.32 242.594 271.32 249.472 260.324 246.881Z" stroke="#F80000" stroke-width="2.3981" stroke-miterlimit="10"/>
<path d="M88.9434 100.691C72.1562 89.0531 77.2796 70.3885 90.7965 52.8218C99.5171 41.5132 96.5739 27.3501 106.058 15.273C113.797 5.50154 121.864 8.57571 121.864 8.57571C131.674 1.87841 146.717 10.4422 151.078 22.2997C155.002 32.8397 142.357 43.8189 158.49 58.8603C174.623 73.9018 162.632 90.7 162.632 90.7C162.632 90.7 155.111 95.9699 144.319 100.691H88.9434Z" fill="#F80000"/>
<path d="M106.713 72.8038C121.974 67.973 117.832 52.1629 117.832 52.1629L124.917 51.2846V51.1748L125.462 51.2846L126.008 51.1748V51.2846L133.093 52.1629C133.093 52.1629 128.951 67.973 144.212 72.8038C159.473 77.6346 162.961 82.3557 164.16 101.35H126.117H125.026H86.9828C87.9639 82.3557 91.4522 77.6346 106.713 72.8038Z" fill="#FFD3BD"/>
<path d="M118.264 55.8959C118.155 53.7 117.719 52.1629 117.719 52.1629L124.805 51.2846V51.1748L125.35 51.2846L125.895 51.1748V51.2846L132.98 52.1629C132.98 52.1629 132.326 54.7979 132.544 58.2015C130.909 61.3855 125.35 65.7771 118.264 55.8959Z" fill="#F5C1B4"/>
<path d="M142.684 22.8485C142.793 23.1778 146.173 44.8068 138.324 52.8216C130.475 60.8364 116.849 56.1154 113.47 47.881C110.636 40.8543 110.091 27.4597 115.65 19.3351C121.21 11.1007 137.234 6.59928 142.684 22.8485Z" fill="#FFD3BD"/>
<path d="M123.172 36.3529C123.172 37.3411 122.736 38.1096 122.082 38.1096C121.428 38.1096 120.883 37.4508 120.774 36.4627C120.774 35.4746 121.21 34.7061 121.864 34.7061C122.518 34.7061 123.063 35.4746 123.172 36.3529Z" fill="#4E5660"/>
<path d="M137.125 36.3529C137.125 37.3411 136.689 38.1096 136.035 38.1096C135.381 38.1096 134.836 37.4508 134.727 36.4627C134.727 35.4746 135.163 34.7061 135.817 34.7061C136.58 34.7061 137.125 35.4746 137.125 36.3529Z" fill="#4E5660"/>
<path d="M128.078 50.8455C128.078 51.0651 127.751 51.1748 127.424 51.1748C126.988 51.1748 126.77 51.0651 126.77 50.8455C126.77 50.6259 127.097 50.5161 127.424 50.5161C127.751 50.5161 128.078 50.6259 128.078 50.8455Z" fill="#B4866F"/>
<path d="M120.009 29.3263C120.118 29.9851 121.426 29.6557 122.952 29.3263C124.478 28.9969 125.786 28.8871 125.677 28.2284C125.568 27.5696 124.151 27.2403 122.625 27.5696C121.099 27.899 119.9 28.6676 120.009 29.3263Z" fill="#4E5660"/>
<path d="M134.618 28.8871C134.509 29.5458 135.817 29.7654 137.343 29.985C138.869 30.3144 140.177 30.6438 140.286 29.985C140.395 29.3263 139.196 28.5577 137.67 28.2283C136.144 27.899 134.727 28.2283 134.618 28.8871Z" fill="#4E5660"/>
<path d="M104.205 73.6821C104.314 73.7919 104.314 73.7919 104.423 73.9017C114.343 80.8186 137.126 81.5871 146.609 73.7919C159.69 78.2934 162.851 83.6732 163.941 101.459H125.898H124.808H86.7641C87.9631 83.4536 91.1244 78.1836 104.205 73.6821Z" fill="#052D44"/>
<path d="M123.715 43.9288C125.35 47.1127 130.365 47.9911 132.763 45.1365C133.09 44.8071 133.308 44.3679 133.526 43.9288C133.635 43.7092 133.962 43.819 133.853 44.0386C133.417 45.2463 132.218 46.3442 131.019 46.7833C128.839 47.6617 126.223 47.1127 124.478 45.4659C124.042 45.0267 123.715 44.5875 123.388 44.1484C123.279 43.9288 123.606 43.7092 123.715 43.9288Z" fill="#4E5660"/>
<path d="M110.634 31.4123C110.634 31.4123 110.852 37.341 111.833 36.7921C112.705 36.1333 115.54 22.6289 118.265 18.5666C118.265 18.5666 115.431 27.0206 116.63 27.1304C117.938 27.2402 120.772 21.3114 121.862 17.1393C121.862 17.1393 129.056 15.1631 128.075 24.2758L148.133 27.0206C148.133 27.0206 144.209 7.25807 128.511 10.2224C112.923 12.9672 110.961 25.1541 110.634 31.4123Z" fill="#CC0606"/>
<path d="M128.541 128.001C128.541 128.001 92.3729 116.83 87.8438 108.42C83.3147 100.009 86.133 93.3719 93.9556 95.9958C100.55 98.2338 121.041 116.99 127.111 122.621C128.256 123.662 128.625 124.626 128.625 124.626C128.625 124.626 129.435 128.291 128.541 128.001Z" fill="#FFD3BD"/>
<path d="M123.828 126.3C123.828 126.3 128.181 120.614 131.882 123.825C135.582 127.036 144.83 135.684 142.993 137.362C141.21 137.849 133.299 129.479 133.299 129.479C133.299 129.479 136.326 133.263 136.176 133.676C135.987 134.192 134.434 135.985 132.519 134.239C130.464 132.56 128.906 129.755 128.906 129.755C128.906 129.755 132.199 134.173 131.795 134.961C131.289 135.712 126.196 137.182 124.185 130.613C123.829 129.449 123.829 127.743 123.828 126.3Z" fill="#FFD3BD"/>
<path d="M130.382 123.164C130.382 123.164 139.87 124.502 139.52 125.777C139.171 127.052 136.913 127.518 134.929 126.916C132.982 126.21 132.433 126.127 132.433 126.127L130.382 123.164Z" fill="#FFD3BD"/>
</svg>
