<svg id="Слой_1" data-name="Слой 1" xmlns="http://www.w3.org/2000/svg" xmlns:xlink="http://www.w3.org/1999/xlink" viewBox="0 0 212.25 367.32"><defs><style>.cls-1{fill:#dadbdc;}.cls-2{fill:#262424;}.cls-3{fill:#ced7e1;}.cls-10,.cls-11,.cls-3,.cls-4,.cls-5,.cls-7,.cls-8,.cls-9{fill-rule:evenodd;}.cls-4{fill:url(#linear-gradient);}.cls-5{fill:url(#linear-gradient-2);}.cls-6{fill:#fff;}.cls-7{fill:url(#linear-gradient-3);}.cls-8{fill:url(#linear-gradient-4);}.cls-9{fill:url(#linear-gradient-5);}.cls-10{fill:url(#linear-gradient-6);}.cls-11{fill:#0093d5;}</style><linearGradient id="linear-gradient" x1="655.4" y1="265.55" x2="686.53" y2="265.55" gradientUnits="userSpaceOnUse"><stop offset="0.1" stop-color="#00abeb"/><stop offset="0.9" stop-color="#2d4e9d"/></linearGradient><linearGradient id="linear-gradient-2" x1="689.93" y1="230.96" x2="745.92" y2="230.96" xlink:href="#linear-gradient"/><linearGradient id="linear-gradient-3" x1="604.68" y1="446.14" x2="762.54" y2="446.14" gradientUnits="userSpaceOnUse"><stop offset="0.1" stop-color="#8bbd4f"/><stop offset="0.9" stop-color="#2a7742"/></linearGradient><linearGradient id="linear-gradient-4" x1="579.39" y1="534.53" x2="787.68" y2="534.53" gradientUnits="userSpaceOnUse"><stop offset="0.1" stop-color="#ce4229"/><stop offset="0.9" stop-color="#9e191e"/></linearGradient><linearGradient id="linear-gradient-5" x1="579.42" y1="498.51" x2="787.64" y2="498.51" gradientUnits="userSpaceOnUse"><stop offset="0.1" stop-color="#f8dc2f"/><stop offset="0.9" stop-color="#da802d"/></linearGradient><linearGradient id="linear-gradient-6" x1="648.51" y1="347.59" x2="734.63" y2="347.59" xlink:href="#linear-gradient"/></defs><title>лого колба</title><path class="cls-1" d="M751.74,552.11H615.32c-17.7,0-30.94,2.1-30.94,6.68s13.21,7.65,30.94,7.65H751.74c17.74,0,30.94-3.07,30.94-7.65S769.44,552.11,751.74,552.11Z" transform="translate(-577.41 -201)"/><path class="cls-2" d="M751.74,568.32H615.32c-5.48,0-32.81-.46-32.81-9.52,0-5.68,11-8.56,32.81-8.56H751.74c21.77,0,32.82,2.88,32.82,8.56C784.55,567.86,757.22,568.32,751.74,568.32ZM615.32,554c-21.95,0-29.06,3.24-29.06,4.81,0,1.95,8.77,5.78,29.06,5.78H751.74c20.3,0,29.07-3.83,29.07-5.78,0-1.57-7.11-4.81-29.07-4.81Z" transform="translate(-577.41 -201)"/><path class="cls-3" d="M586.18,501.82s67.65-114.65,69.28-117.46,1.59-3.66,1.59-5.64V342c0-2.84-3.18-2.84-3.18-2.84a16.5,16.5,0,0,1,0-33h59.31a16.5,16.5,0,1,1,0,33s-3.18,0-3.18,2.84v36.75c0,2-.05,2.84,1.58,5.64S780.9,501.82,780.9,501.82c4,6.78,6.78,13.83,6.78,22A34.08,34.08,0,0,1,753.6,557.9H613.48a34.07,34.07,0,0,1-34.09-34.08C579.39,515.65,582.16,508.6,586.18,501.82Z" transform="translate(-577.41 -201)"/><path class="cls-2" d="M753.6,559.88H613.48a36.11,36.11,0,0,1-36.07-36.06c0-7.54,2.25-14.86,7.07-23,.67-1.15,67.68-114.71,69.28-117.48,1.32-2.23,1.32-2.75,1.32-4.42V342c0-.77-.84-.86-1.2-.86a18.48,18.48,0,0,1,0-37h59.31a18.48,18.48,0,0,1,0,37c-.79,0-1.2.32-1.2.86v36.75c0,1.87,0,2.37,1.3,4.64,1.66,2.8,69.31,117.48,69.31,117.48,4.81,8.13,7.07,15.45,7.07,23A36.09,36.09,0,0,1,753.6,559.88ZM653.88,308.09a14.54,14.54,0,0,0,0,29.07c2.07,0,5.15,1.28,5.15,4.81v36.75a10.52,10.52,0,0,1-1.86,6.62c-1.61,2.79-68.62,116.34-69.31,117.49-4.49,7.61-6.49,14.09-6.49,21a32.14,32.14,0,0,0,32.11,32.11H753.6a32.16,32.16,0,0,0,32.11-32.11c0-6.9-2-13.38-6.5-21,0,0-67.68-114.66-69.31-117.49-1.78-3-1.89-4.31-1.89-6.47V342c0-3.53,3.09-4.81,5.17-4.81a14.54,14.54,0,1,0,0-29.07Z" transform="translate(-577.41 -201)"/><path class="cls-4" d="M686.53,265.57A15.57,15.57,0,1,1,671,250,15.57,15.57,0,0,1,686.53,265.57Z" transform="translate(-577.41 -201)"/><path class="cls-2" d="M671,283.08a17.54,17.54,0,1,1,17.54-17.52A17.55,17.55,0,0,1,671,283.08ZM671,252a13.59,13.59,0,1,0,13.61,13.61A13.61,13.61,0,0,0,671,252Z" transform="translate(-577.41 -201)"/><path class="cls-5" d="M745.92,231a28,28,0,1,1-28-28A28,28,0,0,1,745.92,231Z" transform="translate(-577.41 -201)"/><path class="cls-2" d="M717.93,260.92a30,30,0,1,1,30-30A30,30,0,0,1,717.93,260.92Zm0-56a26,26,0,1,0,26,26A26.05,26.05,0,0,0,717.93,204.93Z" transform="translate(-577.41 -201)"/><path class="cls-6" d="M699.66,233.71a2.76,2.76,0,0,1-2.76-2.76,21.06,21.06,0,0,1,21-21,2.76,2.76,0,0,1,0,5.52A15.55,15.55,0,0,0,702.41,231,2.75,2.75,0,0,1,699.66,233.71Z" transform="translate(-577.41 -201)"/><path class="cls-6" d="M663.44,267.66a2,2,0,0,1-2-2,9.87,9.87,0,0,1,9.86-9.86,2,2,0,1,1,0,3.93,5.93,5.93,0,0,0-5.93,5.94A2,2,0,0,1,663.44,267.66Z" transform="translate(-577.41 -201)"/><path class="cls-6" d="M647.93,330.2a2,2,0,0,1-1.45-.62,10.17,10.17,0,0,1-2.7-6.92A10.45,10.45,0,0,1,654.2,312.2h40.47a2,2,0,0,1,0,4H654.2a6.52,6.52,0,0,0-6.5,6.52,6.16,6.16,0,0,0,1.68,4.22,2,2,0,0,1-.11,2.8A2,2,0,0,1,647.93,330.2Z" transform="translate(-577.41 -201)"/><path class="cls-7" d="M731.48,418s-5.38-5.63-12-5.63-12,5.63-12,5.63-5.36,5.62-12,5.62-12-5.62-12-5.62-5.35-5.63-12-5.63-12,5.63-12,5.63-5.35,5.62-12,5.62-12-5.62-12-5.62l-31.05,52.7s8.83,9.28,19.73,9.28,19.74-9.28,19.74-9.28,8.82-9.28,19.71-9.28,19.74,9.28,19.74,9.28,8.85,9.28,19.74,9.28,19.73-9.28,19.73-9.28,8.83-9.28,19.74-9.28,19.74,9.28,19.74,9.28Z" transform="translate(-577.41 -201)"/><path class="cls-2" d="M703.34,481.91c-11.61,0-20.78-9.48-21.16-9.88-.09-.09-8.43-8.67-18.32-8.67s-18.23,8.59-18.31,8.67c-.37.4-9.53,9.88-21.14,9.88s-20.76-9.48-21.17-9.88a2,2,0,0,1-.27-2.37L634,417a2,2,0,0,1,1.48-.94,2,2,0,0,1,1.64.59c.06.06,4.87,5,10.54,5s10.49-4.95,10.54-5c.23-.26,6-6.24,13.39-6.24s13.16,6,13.4,6.26c0,0,4.9,5,10.55,5s10.49-4.95,10.54-5c.24-.26,6-6.24,13.4-6.24s13.16,6,13.39,6.26l31.34,53a2,2,0,0,1-3.13,2.37c-.08-.09-8.42-8.67-18.31-8.67s-18.22,8.59-18.31,8.67C724.11,472.44,714.94,481.91,703.34,481.91Zm-39.48-22.5c11.62,0,20.78,9.49,21.16,9.89.08.09,8.42,8.66,18.32,8.66s18.23-8.57,18.31-8.66c.38-.4,9.55-9.89,21.16-9.89a27.06,27.06,0,0,1,13,3.72l-26-44.14h0c-.08,0-4.79-4.68-10.28-4.68-5.7,0-10.5,5-10.56,5-.23.27-6,6.23-13.39,6.23s-13.18-6-13.39-6.23c-.06,0-4.89-5-10.56-5s-10.49,5-10.53,5c-.25.27-6,6.23-13.4,6.23-5,0-9.16-2.68-11.49-4.52l-29,49.28c2.57,2.29,9.41,7.65,17.24,7.65,9.9,0,18.22-8.57,18.3-8.66C643.08,468.9,652.26,459.42,663.85,459.42Z" transform="translate(-577.41 -201)"/><path class="cls-8" d="M787.68,523.82c0-.16,0-.29,0-.47-.23-.22-11.75-12.2-26-12.2s-26,12.25-26,12.25-11.64,12.22-26,12.22-26-12.22-26-12.22-11.65-12.25-26-12.25-26,12.25-26,12.25-11.65,12.22-26,12.22-26-12.22-26-12.22v0c0,.16,0,.29,0,.45a34.07,34.07,0,0,0,34.09,34.08H753.6A34.08,34.08,0,0,0,787.68,523.82Z" transform="translate(-577.41 -201)"/><path class="cls-2" d="M753.6,559.88H613.48a36.11,36.11,0,0,1-36.07-36.06,2.31,2.31,0,0,1,1.23-2,1.92,1.92,0,0,1,2.16.21c.17.15,11.35,11.66,24.67,11.66s24.47-11.51,24.59-11.62c.49-.53,12.4-12.86,27.45-12.86s27,12.33,27.47,12.86c.1.11,11.26,11.62,24.6,11.62s24.49-11.51,24.62-11.62c.49-.53,12.38-12.86,27.43-12.86,14.88,0,26.89,12.28,27.4,12.81a1.88,1.88,0,0,1,.56,1.36A36.12,36.12,0,0,1,753.6,559.88ZM581.72,528.07a32.11,32.11,0,0,0,31.76,27.86H753.6a32.15,32.15,0,0,0,32.11-31.72c-2.35-2.25-12.28-11.09-24.07-11.09-13.37,0-24.49,11.51-24.61,11.62-.5.53-12.4,12.85-27.44,12.85s-27-12.33-27.47-12.85c-.11-.11-11.26-11.62-24.6-11.62s-24.49,11.51-24.6,11.62c-.49.53-12.4,12.85-27.44,12.85C595.23,537.6,586.44,531.9,581.72,528.07Z" transform="translate(-577.41 -201)"/><path class="cls-9" d="M780.9,501.82s-8-13.45-18.42-31.21c-.3-.31-9-9.22-19.68-9.22-10.91,0-19.74,9.28-19.74,9.28s-8.83,9.28-19.73,9.28-19.74-9.28-19.74-9.28-8.85-9.28-19.74-9.28-19.71,9.28-19.71,9.28-8.83,9.28-19.74,9.28-19.73-9.28-19.73-9.28l-.4.47-18.1,30.68c-3.95,6.66-6.64,13.56-6.76,21.54v0s11.67,12.22,26,12.22,26-12.22,26-12.22,11.67-12.25,26-12.25,26,12.25,26,12.25,11.67,12.22,26,12.22,26-12.22,26-12.22,11.65-12.25,26-12.25,25.77,12,26,12.2C787.53,515.38,784.81,508.47,780.9,501.82Z" transform="translate(-577.41 -201)"/><path class="cls-2" d="M709.59,537.6c-15.06,0-27-12.33-27.47-12.85-.11-.11-11.26-11.62-24.6-11.62s-24.49,11.51-24.6,11.62c-.49.53-12.4,12.85-27.44,12.85s-27-12.33-27.47-12.85a2.18,2.18,0,0,1-.45-.72,2.49,2.49,0,0,1-.1-.7c.1-7.41,2.33-14.57,7-22.48l18.71-31.44a1.92,1.92,0,0,1,1.45-.69,2.3,2.3,0,0,1,1.46.6c.09.09,8.42,8.66,18.31,8.66s18.22-8.57,18.3-8.66c.37-.4,9.56-9.89,21.15-9.89s20.78,9.49,21.16,9.89c.08.09,8.42,8.66,18.32,8.66s18.23-8.57,18.31-8.66c.38-.4,9.55-9.89,21.16-9.89,11.84,0,21,9.76,21.14,9.86l18.64,31.57c4.69,7.95,6.92,15.08,7,22.51a2,2,0,0,1-1.21,1.84,2,2,0,0,1-2.18-.46c-.47-.47-11.33-11.6-24.57-11.6S737.16,524.64,737,524.75C736.53,525.27,724.63,537.6,709.59,537.6Zm-52.07-28.42c15.06,0,27,12.33,27.47,12.86.1.11,11.26,11.62,24.6,11.62s24.49-11.51,24.62-11.62c.49-.53,12.38-12.86,27.43-12.86,10.08,0,18.84,5.65,23.63,9.45a44.58,44.58,0,0,0-6.06-15.8l-18.42-31.22v0c-.08,0-8.27-8.28-18-8.28-9.89,0-18.22,8.59-18.31,8.67-.38.4-9.55,9.88-21.16,9.88s-20.78-9.48-21.16-9.88c-.09-.09-8.43-8.67-18.32-8.67s-18.23,8.59-18.31,8.67c-.37.4-9.53,9.88-21.14,9.88-8.77,0-16.13-5.4-19.38-8.21l-17.16,29.13c-4.14,7-6.2,13.32-6.45,19.74,2.41,2.3,12.41,11.08,24.07,11.08,13.37,0,24.47-11.51,24.59-11.62C630.56,521.51,642.47,509.18,657.52,509.18Z" transform="translate(-577.41 -201)"/><path class="cls-10" d="M685,328.43c-11.76,0-17.94-3.57-20.88-3.57a5.36,5.36,0,1,0,0,10.71,6,6,0,0,0,2.86-.76,16.32,16.32,0,0,1,5.86-1.2,14.88,14.88,0,0,1,14.87,14.87c0,9.17-7.18,22.85-31.65,34.8L635.73,418s5.36,5.62,12,5.62,12-5.62,12-5.62,5.36-5.63,12-5.63,12,5.63,12,5.63,5.36,5.62,12,5.62,12-5.62,12-5.62,5.35-5.63,12-5.63,12,5.63,12,5.63l-19.89-33.6c-1.64-2.8-1.58-3.66-1.58-5.64V342c0-2.84,3.18-2.84,3.18-2.84a16.48,16.48,0,0,0,3.66-32.56h.07a4.55,4.55,0,0,1-4.56-4.56,4.66,4.66,0,0,1,2.73-4,14.16,14.16,0,0,0,7.86-12.51,13.89,13.89,0,1,0-24.39,9.1h0c3.62,4.76,6,8.58,6,14.11a19.64,19.64,0,0,1-19.67,19.66Z" transform="translate(-577.41 -201)"/><path class="cls-2" d="M695.57,425.57c-7.37,0-13.18-6-13.39-6.23-.06,0-4.89-5-10.56-5s-10.49,5-10.53,5c-.25.27-6,6.23-13.4,6.23s-13.15-6-13.39-6.23A2,2,0,0,1,634,417l20.31-34.7a2.21,2.21,0,0,1,.85-.76c28.33-13.85,30.53-28.77,30.53-33a12.91,12.91,0,0,0-12.89-12.9,14.29,14.29,0,0,0-5.16,1.06l-.54.23a6.22,6.22,0,0,1-3,.66,7.32,7.32,0,1,1,0-14.63,17.9,17.9,0,0,1,4.68,1,53.61,53.61,0,0,0,15.7,2.54,3.19,3.19,0,0,1,.41,0,17.69,17.69,0,0,0,17.68-17.7c0-4.67-1.84-8-5.47-12.77l-.08-.08a15.86,15.86,0,1,1,27.86-10.37A16.07,16.07,0,0,1,716,299.74a2.85,2.85,0,0,0-1.67,2.29,2.61,2.61,0,0,0,2.6,2.59H717a1.91,1.91,0,0,1,.85.19,18.45,18.45,0,0,1-4.68,36.3c-.79,0-1.2.32-1.2.86v36.75c0,1.87,0,2.37,1.3,4.64l19.63,33.16a2,2,0,0,1-1.43,3.42h0a2,2,0,0,1-1.43-.61s-4.89-5-10.54-5-10.5,5-10.56,5C708.73,419.6,702.94,425.57,695.57,425.57Zm-23.95-15.19c7.37,0,13.16,6,13.4,6.26,0,0,4.9,5,10.55,5s10.49-4.95,10.54-5c.24-.26,6-6.24,13.4-6.24a15.5,15.5,0,0,1,5.89,1.23l-15.5-26.26c-1.78-3-1.89-4.31-1.89-6.47V342c0-3.53,3.09-4.81,5.17-4.81a14.5,14.5,0,0,0,3.39-28.61,6.45,6.45,0,0,1-2.38-12.32A12.13,12.13,0,0,0,721,285.48a11.92,11.92,0,1,0-21,7.66l.23.24c3.49,4.6,6.38,8.94,6.38,15.32a21.66,21.66,0,0,1-21.1,21.64,2.63,2.63,0,0,1-.45.06,56.7,56.7,0,0,1-17.32-2.73,17.74,17.74,0,0,0-3.56-.83,3.38,3.38,0,1,0,0,6.75,2.55,2.55,0,0,0,1.42-.32l.77-.31a17.89,17.89,0,0,1,6.53-1.33,16.87,16.87,0,0,1,16.85,16.85c0,6.15-3.16,21.94-32.23,36.31l-19.2,32.8c1.74,1.45,5.38,4,9.45,4,5.66,0,10.49-4.95,10.54-5C658.46,416.35,664.26,410.37,671.62,410.37Z" transform="translate(-577.41 -201)"/><path class="cls-6" d="M702.71,286.33a1.36,1.36,0,0,1-1.36-1.37,7.37,7.37,0,0,1,7.37-7.38,1.38,1.38,0,0,1,0,2.76A4.62,4.62,0,0,0,704.1,285,1.38,1.38,0,0,1,702.71,286.33Z" transform="translate(-577.41 -201)"/><path class="cls-11" d="M704.57,306.14h8.61a26.84,26.84,0,0,1,3.68.41" transform="translate(-577.41 -201)"/><path class="cls-2" d="M716.86,308.52l-.36,0a27.48,27.48,0,0,0-3.38-.4h-8.55a2,2,0,1,1,0-3.93h8.61a34.53,34.53,0,0,1,4,.43,2,2,0,0,1,1.58,2.33A2,2,0,0,1,716.86,308.52Z" transform="translate(-577.41 -201)"/><path class="cls-6" d="M617.85,548h-4.37a24.24,24.24,0,0,1-24.23-24.22c0-5.42,1.67-10.66,5.42-17L664,389.31a18.27,18.27,0,0,0,2.92-10.58l-.11-32a2,2,0,0,1,2-2h0a2,2,0,0,1,2,2l.1,31.94a22,22,0,0,1-3.47,12.6L598,508.85c-3.36,5.67-4.86,10.29-4.86,15a20.3,20.3,0,0,0,20.29,20.27h4.37a2,2,0,0,1,0,3.95Z" transform="translate(-577.41 -201)"/></svg>