<svg width="76" height="76" viewBox="0 0 76 76" fill="none" xmlns="http://www.w3.org/2000/svg">
<rect width="76" height="76" rx="38" fill="#F8FCFD"/>
<g clip-path="url(#clip0_161_2957)">
<path d="M26.0354 49.1738H37.2827V56.2456H26.0354V49.1738Z" fill="#A8DEF0"/>
<path d="M23.8079 62.0001H48.0394C48.5808 62.0001 49.0198 61.5613 49.0198 61.0198V59.2106C49.0198 57.5731 47.6923 56.2456 46.0548 56.2456H25.7925C24.155 56.2456 22.8275 57.5731 22.8275 59.2106V61.0198C22.8276 61.5613 23.2665 62.0001 23.8079 62.0001Z" fill="#F80000"/>
<path d="M34.0189 19.5503L38.247 15.3222L44.8924 21.9675L40.6643 26.1956L34.0189 19.5503Z" fill="#59B1F1"/>
<path d="M35.8072 11.2873L29.9941 17.1003C29.611 17.4834 29.611 18.1045 29.9941 18.4876L31.847 20.3405C32.2301 20.7236 32.8513 20.7236 33.2344 20.3405L39.0474 14.5275C39.4305 14.1444 39.4305 13.5233 39.0474 13.1402L37.1945 11.2873C36.8114 10.9042 36.1903 10.9042 35.8072 11.2873Z" fill="#CC0606"/>
<path d="M34.4915 42.5021H26.0354C26.0354 37.0312 27.9787 31.8723 31.5074 27.976C35.048 24.0664 39.9295 21.8242 44.8999 21.8242V30.2804C42.2747 30.2804 39.7445 31.4779 37.7751 33.6523C35.6578 35.9905 34.4915 39.1334 34.4915 42.5021Z" fill="#A8DEF0"/>
<path d="M50.0055 36.5324H46.3989C45.6322 36.5324 45.0106 35.9109 45.0106 35.1442V30.8643H51.3938V35.1442C51.3938 35.911 50.7723 36.5324 50.0055 36.5324Z" fill="#59B1F1"/>
<path d="M54.0355 21.2397H42.3721C41.1112 21.2397 40.0892 22.2618 40.0892 23.5226V28.5813C40.0892 29.8421 41.1113 30.8641 42.3721 30.8641H54.0355C55.2964 30.8641 56.3184 29.842 56.3184 28.5813V23.5226C56.3185 22.2618 55.2964 21.2397 54.0355 21.2397Z" fill="#F80000"/>
<path d="M42.3721 21.2397C41.1112 21.2397 40.0892 22.2618 40.0892 23.5227V28.5814C40.0892 29.8421 41.1113 30.8642 42.3721 30.8642H47.4321C45.282 29.5245 44.4759 24.8795 45.3304 21.2397H42.3721Z" fill="#CC0606"/>
<path d="M26.0354 49.1738H37.2827V52.2524H26.0354V49.1738Z" fill="#59B1F1"/>
<path d="M26.2439 39.4233C26.106 40.4339 26.0354 41.4621 26.0354 42.5018H34.4915C34.4915 41.4476 34.6058 40.4155 34.8276 39.4233H26.2439Z" fill="#59B1F1"/>
<path d="M53.9491 49.1738H25.3462C24.5376 49.1738 23.8822 48.5184 23.8822 47.7098V43.9659C23.8822 43.1574 24.5376 42.502 25.3462 42.502H53.9491C55.218 42.502 56.2466 43.5306 56.2466 44.7994V46.8763C56.2466 48.1451 55.2179 49.1738 53.9491 49.1738Z" fill="#F80000"/>
<path d="M39.3507 42.502H25.3462C24.5376 42.502 23.8822 43.1574 23.8822 43.9659V47.7098C23.8822 48.5184 24.5376 49.1738 25.3462 49.1738H40.5563C39.1302 47.7189 39.0007 44.1087 39.3507 42.502Z" fill="#CC0606"/>
<path d="M26.0354 51.194C28.9936 51.194 31.3917 48.7959 31.3917 45.8377C31.3917 42.8795 28.9936 40.4814 26.0354 40.4814C23.0772 40.4814 20.6791 42.8795 20.6791 45.8377C20.6791 48.7959 23.0772 51.194 26.0354 51.194Z" fill="#F80000"/>
<path d="M27.4514 47.2567C28.2363 46.4718 28.2363 45.1991 27.4514 44.4142C26.6665 43.6293 25.3939 43.6293 24.609 44.4142C23.824 45.1991 23.824 46.4718 24.609 47.2567C25.3939 48.0416 26.6665 48.0416 27.4514 47.2567Z" fill="#59B1F1"/>
</g>
<defs>
<clipPath id="clip0_161_2957">
<rect width="51" height="51" fill="white" transform="translate(13 11)"/>
</clipPath>
</defs>
</svg>
