<svg width="76" height="76" viewBox="0 0 76 76" fill="none" xmlns="http://www.w3.org/2000/svg">
<rect width="76" height="76" rx="38" fill="#F8FCFD"/>
<g clip-path="url(#clip0_161_3311)">
<path d="M52.8438 52.8436H24.1562C24.0465 52.8436 23.938 52.821 23.8375 52.7771C23.7369 52.7332 23.6465 52.6691 23.5719 52.5886L22.9997 51.9716C22.9082 51.8731 22.8431 51.7532 22.8104 51.6229C22.6477 50.9779 22.5644 50.3154 22.5625 49.6502V41.6874C22.5625 32.8575 37.6016 27.6058 38.2418 27.3867C38.2633 27.3793 38.2849 27.3729 38.3068 27.3674C38.4278 27.3371 50.4531 24.2241 50.4531 16.1874V16.0352C50.4531 15.8995 50.4878 15.7661 50.5538 15.6475C50.6198 15.529 50.7149 15.4293 50.8303 15.3578C50.9456 15.2863 51.0773 15.2455 51.2128 15.2392C51.3483 15.2328 51.4832 15.2612 51.6047 15.3216C55.3275 17.1687 58.4605 20.0189 60.6505 23.551C62.8406 27.083 64.0006 31.1565 64 35.3124C64 38.6067 62.6443 42.007 59.9705 45.4193C59.1721 46.4303 58.3146 47.3933 57.4026 48.3031L53.4282 52.5886C53.3535 52.6691 53.2631 52.7333 53.1626 52.7771C53.062 52.821 52.9535 52.8437 52.8438 52.8436Z" fill="#00AAE4"/>
<path d="M42.4844 40.0938C42.4844 35.4472 44.3291 30.9906 47.6132 27.7033C50.8973 24.4161 55.3521 22.567 59.9988 22.5626C57.8523 19.4831 54.9657 16.9931 51.6047 15.3216C51.4832 15.2612 51.3483 15.2328 51.2127 15.2392C51.0772 15.2455 50.9455 15.2864 50.8302 15.3578C50.7148 15.4293 50.6197 15.5291 50.5537 15.6477C50.4877 15.7662 50.4531 15.8997 50.4531 16.0354V16.1876C50.4531 24.2243 38.4278 27.3373 38.3068 27.3676C38.2848 27.3731 38.2632 27.3796 38.2418 27.3869C37.6016 27.606 22.5625 32.8577 22.5625 41.6876V49.6504C22.5646 50.3154 22.648 50.9778 22.8108 51.6226C22.8435 51.7529 22.9086 51.8728 23.0001 51.9712L23.5723 52.5883C23.6468 52.6688 23.7372 52.733 23.8376 52.777C23.9381 52.821 24.0466 52.8437 24.1562 52.8438H47.9842C46.2452 51.207 44.86 49.2312 43.9141 47.0383C42.9682 44.8454 42.4816 42.482 42.4844 40.0938Z" fill="#0387D1"/>
<path d="M23.5843 52.2259C23.4745 52.2259 23.366 52.2033 23.2654 52.1594C23.1648 52.1155 23.0743 52.0513 22.9997 51.9708L19.5975 48.3024C15.2198 43.9117 13 39.5409 13 35.3116C13 29.394 15.3508 23.7187 19.5352 19.5343C23.7196 15.3499 29.3949 12.9991 35.3125 12.9991H41.6875C45.129 12.9898 48.525 13.7849 51.6047 15.3208C51.7375 15.3868 51.8493 15.4886 51.9274 15.6147C52.0055 15.7407 52.0469 15.8861 52.0469 16.0344V16.1866C52.0469 20.0674 49.7076 23.5079 45.2818 26.1355C43.2273 27.3385 41.025 28.269 38.7303 28.9034C38.0119 29.1567 24.1562 34.153 24.1562 41.6866V49.6494C24.1583 50.1844 24.2258 50.7173 24.3572 51.236C24.3865 51.3534 24.3887 51.476 24.3635 51.5944C24.3384 51.7128 24.2866 51.824 24.2121 51.9194C24.1376 52.0148 24.0424 52.092 23.9336 52.1451C23.8248 52.1982 23.7053 52.2258 23.5843 52.2259Z" fill="#00AAE4"/>
<path d="M14.8541 26.3804C13.6261 29.1978 12.9949 32.239 13.0002 35.3123C13.0002 39.5417 15.2199 43.9124 19.5977 48.3031L22.9998 51.9715C23.1201 52.1012 23.28 52.1872 23.4545 52.2159C23.6289 52.2447 23.808 52.2147 23.9635 52.1305C24.119 52.0463 24.2421 51.9128 24.3134 51.751C24.3847 51.5892 24.4001 51.4083 24.3573 51.2367C24.2259 50.718 24.1585 50.1852 24.1564 49.6501V41.6873C24.1615 40.8412 24.3306 40.0041 24.6545 39.2223C22.112 38.0229 19.8947 36.2304 18.1893 33.9957C16.4838 31.7609 15.34 29.1492 14.8541 26.3804Z" fill="#0387D1"/>
<path d="M38.5 64.0024C36.1722 64.0023 33.8959 63.3171 31.9548 62.0322C27.6701 59.2032 22.5625 54.7586 22.5625 49.6503V41.6875C22.5625 32.8576 37.6016 27.6059 38.2418 27.3868C38.4092 27.3294 38.5908 27.3294 38.7582 27.3868C39.3984 27.6059 54.4375 32.8576 54.4375 41.6875V49.6503C54.4375 54.7586 49.3299 59.2028 45.0451 62.0323C43.104 63.317 40.8278 64.0022 38.5 64.0024Z" fill="#FCD4C6"/>
<path d="M30.1344 58.422C29.1314 58.4215 28.1292 58.3634 27.1328 58.2479C28.6506 59.7007 30.3602 60.9787 31.9564 62.0323C33.8975 63.3172 36.1738 64.0024 38.5016 64.0024C40.8294 64.0024 43.1057 63.3172 45.0468 62.0323C49.3316 59.2033 54.4391 54.7587 54.4391 49.6504V41.4868C50.7921 51.3725 41.2868 58.422 30.1344 58.422Z" fill="#FACAB9"/>
<path d="M52.7744 21.7318C52.6265 21.7318 52.4816 21.6904 52.356 21.6123C51.6555 21.1786 50.9132 20.7477 50.1498 20.3315C50.0579 20.2814 49.9768 20.2137 49.9111 20.1323C49.8454 20.0508 49.7963 19.9572 49.7668 19.8568C49.7372 19.7564 49.7278 19.6512 49.7389 19.5472C49.75 19.4431 49.7815 19.3422 49.8316 19.2504C49.8817 19.1585 49.9494 19.0774 50.0309 19.0117C50.1123 18.9459 50.2059 18.8969 50.3063 18.8674C50.4067 18.8378 50.5119 18.8284 50.616 18.8395C50.7201 18.8506 50.8209 18.8821 50.9128 18.9322C51.7017 19.3624 52.4696 19.8082 53.1949 20.257C53.3423 20.3483 53.4558 20.4852 53.5184 20.6468C53.5809 20.8085 53.589 20.9861 53.5415 21.1528C53.494 21.3195 53.3934 21.4662 53.255 21.5705C53.1167 21.6749 52.948 21.7313 52.7747 21.7312L52.7744 21.7318Z" fill="#6FD1F2"/>
<path d="M22.5662 23.3594C22.4086 23.3594 22.2545 23.3126 22.1235 23.2251C21.9924 23.1375 21.8903 23.0131 21.8299 22.8675C21.7696 22.7218 21.7539 22.5616 21.7846 22.407C21.8154 22.2524 21.8913 22.1105 22.0027 21.999C25.8096 18.1922 32.0241 17.7812 34.5193 17.7812C34.7307 17.7812 34.9334 17.8652 35.0828 18.0146C35.2322 18.1641 35.3162 18.3668 35.3162 18.5781C35.3162 18.7895 35.2322 18.9922 35.0828 19.1416C34.9334 19.291 34.7307 19.375 34.5193 19.375C32.7273 19.375 26.6103 19.6454 23.1297 23.126C23.0558 23.2001 22.9679 23.2589 22.8712 23.2989C22.7745 23.339 22.6709 23.3595 22.5662 23.3594Z" fill="#6FD1F2"/>
<path d="M16.986 44.875C16.7975 44.8748 16.6152 44.8078 16.4715 44.6858C16.3278 44.5639 16.2319 44.395 16.2009 44.2091C14.9144 36.49 17.2729 31.8983 19.478 29.4057C21.8897 26.6795 24.6069 25.8207 24.7213 25.7854C24.9229 25.7246 25.1404 25.7461 25.3262 25.8451C25.512 25.9442 25.6511 26.1127 25.713 26.314C25.7749 26.5152 25.7547 26.7328 25.6567 26.9192C25.5587 27.1055 25.391 27.2455 25.1901 27.3086C25.1678 27.3156 22.7315 28.1005 20.618 30.5228C17.7863 33.7681 16.8292 38.2847 17.7729 43.9473C17.7918 44.0615 17.7856 44.1785 17.7548 44.29C17.7239 44.4016 17.6692 44.5051 17.5943 44.5934C17.5194 44.6817 17.4262 44.7526 17.3212 44.8013C17.2161 44.8499 17.1017 44.8751 16.986 44.875Z" fill="#6FD1F2"/>
<path d="M28.1406 26.5469C28.5807 26.5469 28.9375 26.1901 28.9375 25.75C28.9375 25.3099 28.5807 24.9531 28.1406 24.9531C27.7005 24.9531 27.3438 25.3099 27.3438 25.75C27.3438 26.1901 27.7005 26.5469 28.1406 26.5469Z" fill="#6FD1F2"/>
<path d="M20.1758 42.4843C19.9644 42.4843 19.7617 42.4004 19.6123 42.2509C19.4629 42.1015 19.3789 41.8988 19.3789 41.6875C19.3789 39.5359 20.0077 37.4304 21.2481 35.4301C21.3595 35.2505 21.5376 35.1224 21.7434 35.0741C21.9492 35.0259 22.1657 35.0613 22.3454 35.1727C22.525 35.2841 22.6531 35.4623 22.7013 35.6681C22.7496 35.8738 22.7141 36.0904 22.6028 36.27C21.521 38.0142 20.9727 39.8368 20.9727 41.6875C20.9727 41.8988 20.8887 42.1015 20.7393 42.2509C20.5898 42.4004 20.3871 42.4843 20.1758 42.4843ZM23.8761 34.1332C23.7206 34.1331 23.5685 34.0876 23.4386 34.0022C23.3087 33.9168 23.2065 33.7952 23.1448 33.6525C23.0831 33.5098 23.0646 33.3521 23.0913 33.199C23.1181 33.0458 23.1892 32.9039 23.2956 32.7906C24.7455 31.2484 26.6101 29.7678 28.8375 28.3898C28.9265 28.3343 29.0256 28.2969 29.1291 28.2797C29.2326 28.2626 29.3384 28.2661 29.4406 28.2899C29.5427 28.3138 29.6392 28.3576 29.7244 28.4188C29.8095 28.4801 29.8818 28.5575 29.937 28.6467C29.9922 28.7359 30.0292 28.8352 30.0459 28.9387C30.0627 29.0423 30.0588 29.1481 30.0346 29.2502C30.0103 29.3522 29.9662 29.4485 29.9046 29.5334C29.8431 29.6184 29.7654 29.6903 29.6759 29.7452C27.5671 31.0501 25.8111 32.4416 24.4569 33.8822C24.3824 33.9615 24.2924 34.0248 24.1925 34.0679C24.0926 34.1111 23.9849 34.1333 23.8761 34.1332Z" fill="#6FD1F2"/>
<path d="M58.4241 30.5314C58.276 30.5315 58.1308 30.4903 58.0048 30.4124C57.8788 30.3346 57.777 30.2232 57.7108 30.0907C56.2409 27.1508 51.7243 24.0996 48.6678 23.3355C48.5656 23.3107 48.4693 23.266 48.3845 23.2039C48.2997 23.1417 48.228 23.0634 48.1736 22.9735C48.1192 22.8835 48.0831 22.7837 48.0675 22.6798C48.0518 22.5758 48.0569 22.4698 48.0824 22.3678C48.1079 22.2658 48.1533 22.1699 48.216 22.0855C48.2788 22.0011 48.3576 21.93 48.4479 21.8763C48.5382 21.8225 48.6383 21.7871 48.7424 21.7722C48.8465 21.7573 48.9524 21.7631 49.0542 21.7893C52.4531 22.639 57.4295 25.9646 59.1362 29.3779C59.197 29.4993 59.2257 29.6343 59.2196 29.77C59.2136 29.9057 59.173 30.0375 59.1016 30.1531C59.0303 30.2687 58.9306 30.3641 58.812 30.4303C58.6934 30.4965 58.5599 30.5313 58.4241 30.5314Z" fill="#6FD1F2"/>
<path d="M56.125 32.6997C56.0098 32.6999 55.8959 32.6751 55.7912 32.6269C55.6865 32.5788 55.5935 32.5084 55.5187 32.4208C53.8869 30.5103 51.6959 28.6981 49.0066 27.0347C48.8269 26.9235 48.6986 26.7455 48.6502 26.5398C48.6017 26.3341 48.6369 26.1175 48.7481 25.9378C48.8593 25.758 49.0373 25.6298 49.243 25.5813C49.4487 25.5328 49.6653 25.5681 49.845 25.6792C52.6748 27.4297 54.9914 29.3495 56.7305 31.3857C56.8295 31.5014 56.8933 31.6431 56.9143 31.794C56.9352 31.9449 56.9125 32.0986 56.8488 32.237C56.785 32.3753 56.683 32.4925 56.5547 32.5747C56.4265 32.6568 56.2773 32.7005 56.125 32.7005V32.6997Z" fill="#6FD1F2"/>
<path d="M56.7939 41.6733C56.5937 41.6732 56.4008 41.5977 56.2537 41.4619C56.1066 41.326 56.016 41.1398 56 40.9402C55.9875 40.7831 56.0219 40.6258 56.0987 40.4882C56.1756 40.3506 56.2916 40.2389 56.432 40.1673C56.5723 40.0956 56.7308 40.0671 56.8873 40.0855C57.0438 40.1039 57.1914 40.1683 57.3113 40.2705C57.4313 40.3728 57.5182 40.5083 57.5611 40.6599C57.604 40.8116 57.601 40.9726 57.5525 41.1225C57.5039 41.2724 57.412 41.4046 57.2883 41.5023C57.1646 41.6 57.0147 41.6588 56.8576 41.6713C56.8367 41.6723 56.8148 41.6733 56.7939 41.6733ZM56.0628 38.5844C55.9033 38.585 55.7474 38.5376 55.6153 38.4482C55.4833 38.3588 55.3813 38.2317 55.3227 38.0834C54.8336 36.8602 54.0825 35.6509 53.0914 34.4905C51.676 32.832 49.7366 31.2352 47.327 29.7451C47.2366 29.6908 47.1579 29.619 47.0954 29.534C47.0329 29.449 46.9879 29.3525 46.963 29.25C46.9382 29.1475 46.9339 29.0411 46.9504 28.9369C46.967 28.8327 47.0041 28.7329 47.0595 28.6431C47.115 28.5534 47.1877 28.4756 47.2735 28.4141C47.3592 28.3527 47.4563 28.3089 47.5591 28.2853C47.6619 28.2617 47.7684 28.2588 47.8724 28.2766C47.9763 28.2945 48.0757 28.3328 48.1647 28.3894C50.7137 29.9662 52.7786 31.6705 54.3037 33.4555C55.4073 34.7475 56.248 36.1061 56.8019 37.4917C56.8504 37.6125 56.8686 37.7434 56.8548 37.8729C56.841 38.0024 56.7956 38.1266 56.7226 38.2344C56.6497 38.3423 56.5514 38.4306 56.4363 38.4916C56.3213 38.5527 56.193 38.5845 56.0628 38.5844Z" fill="#6FD1F2"/>
<path d="M45.6719 19.375H37.7031C37.4918 19.375 37.2891 19.291 37.1396 19.1416C36.9902 18.9922 36.9062 18.7895 36.9062 18.5781C36.9062 18.3668 36.9902 18.1641 37.1396 18.0146C37.2891 17.8652 37.4918 17.7812 37.7031 17.7812H45.6719C45.8832 17.7812 46.0859 17.8652 46.2354 18.0146C46.3848 18.1641 46.4688 18.3668 46.4688 18.5781C46.4688 18.7895 46.3848 18.9922 46.2354 19.1416C46.0859 19.291 45.8832 19.375 45.6719 19.375Z" fill="#6FD1F2"/>
<path d="M44.0781 22.5625H39.2969C39.0855 22.5625 38.8828 22.4785 38.7334 22.3291C38.584 22.1797 38.5 21.977 38.5 21.7656C38.5 21.5543 38.584 21.3516 38.7334 21.2021C38.8828 21.0527 39.0855 20.9688 39.2969 20.9688H44.0781C44.2895 20.9688 44.4922 21.0527 44.6416 21.2021C44.791 21.3516 44.875 21.5543 44.875 21.7656C44.875 21.977 44.791 22.1797 44.6416 22.3291C44.4922 22.4785 44.2895 22.5625 44.0781 22.5625Z" fill="#6FD1F2"/>
<path d="M33.3203 25.7495C34.4206 25.7495 35.3125 24.8576 35.3125 23.7573C35.3125 22.6571 34.4206 21.7651 33.3203 21.7651C32.2201 21.7651 31.3281 22.6571 31.3281 23.7573C31.3281 24.8576 32.2201 25.7495 33.3203 25.7495Z" fill="#6FD1F2"/>
<path d="M37.7031 25.75C38.1432 25.75 38.5 25.3932 38.5 24.9531C38.5 24.513 38.1432 24.1562 37.7031 24.1562C37.263 24.1562 36.9062 24.513 36.9062 24.9531C36.9062 25.3932 37.263 25.75 37.7031 25.75Z" fill="#6FD1F2"/>
<path d="M29.7344 17.7813C30.1745 17.7813 30.5312 17.4245 30.5312 16.9844C30.5312 16.5443 30.1745 16.1875 29.7344 16.1875C29.2943 16.1875 28.9375 16.5443 28.9375 16.9844C28.9375 17.4245 29.2943 17.7813 29.7344 17.7813Z" fill="#6FD1F2"/>
<path d="M18.5781 26.5469C19.0182 26.5469 19.375 26.1901 19.375 25.75C19.375 25.3099 19.0182 24.9531 18.5781 24.9531C18.138 24.9531 17.7812 25.3099 17.7812 25.75C17.7812 26.1901 18.138 26.5469 18.5781 26.5469Z" fill="#6FD1F2"/>
<path d="M42.4844 32.9219C42.9245 32.9219 43.2812 32.5651 43.2812 32.125C43.2812 31.6849 42.9245 31.3281 42.4844 31.3281C42.0443 31.3281 41.6875 31.6849 41.6875 32.125C41.6875 32.5651 42.0443 32.9219 42.4844 32.9219Z" fill="#FFF5F2"/>
<path d="M46.0703 36.1089C46.7305 36.1089 47.2656 35.5737 47.2656 34.9136C47.2656 34.2534 46.7305 33.7183 46.0703 33.7183C45.4102 33.7183 44.875 34.2534 44.875 34.9136C44.875 35.5737 45.4102 36.1089 46.0703 36.1089Z" fill="#FFF5F2"/>
<path d="M30.5312 35.3125C30.9714 35.3125 31.3281 34.9557 31.3281 34.5156C31.3281 34.0755 30.9714 33.7188 30.5312 33.7188C30.0911 33.7188 29.7344 34.0755 29.7344 34.5156C29.7344 34.9557 30.0911 35.3125 30.5312 35.3125Z" fill="#FFF5F2"/>
<path d="M34.4035 43.9686L34.3836 43.9487C34.2682 43.8347 34.1205 43.7589 33.9606 43.7317C33.8007 43.7044 33.6363 43.7269 33.4896 43.7962C33.0596 43.9882 32.5929 44.0844 32.122 44.0782C30.1089 44.0782 28.7124 42.729 28.7011 42.7178C28.6271 42.6438 28.5392 42.5851 28.4425 42.545C28.3459 42.505 28.2422 42.4844 28.1376 42.4844C28.0329 42.4844 27.9293 42.505 27.8326 42.545C27.7359 42.5851 27.6481 42.6438 27.5741 42.7178L26.0013 44.2906C25.8542 44.4337 25.7663 44.6268 25.7551 44.8317C25.7439 45.0365 25.8103 45.2381 25.9409 45.3963C26.0125 45.4792 26.1004 45.5464 26.1992 45.5937C26.2979 45.6411 26.4054 45.6676 26.5149 45.6716C26.6243 45.6756 26.7334 45.657 26.8354 45.6169C26.9373 45.5768 27.0299 45.5162 27.1073 45.4387L28.1919 44.3542C28.534 44.6004 28.8967 44.8167 29.276 45.0005L28.371 45.9055C28.2215 46.0549 28.1376 46.2576 28.1376 46.469C28.1376 46.6803 28.2215 46.883 28.371 47.0325C28.5204 47.1819 28.7231 47.2659 28.9345 47.2659C29.1458 47.2659 29.3485 47.1819 29.4979 47.0325L30.9681 45.5622C31.3484 45.6347 31.7348 45.6714 32.122 45.6719C32.835 45.6806 33.541 45.5301 34.1885 45.2313C34.3018 45.1772 34.4004 45.0967 34.4761 44.9965C34.5518 44.8964 34.6023 44.7795 34.6234 44.6557C34.6444 44.5319 34.6355 44.4049 34.5972 44.2853C34.559 44.1658 34.4925 44.0571 34.4035 43.9686Z" fill="#4E5660"/>
<path d="M34.514 41.6875C34.4093 41.6876 34.3056 41.6671 34.2089 41.627C34.1122 41.587 34.0244 41.5282 33.9505 41.4541C33.2316 40.7351 31.0909 40.2426 29.8747 40.0939C28.8424 40.1022 27.8256 40.3459 26.9016 40.8065C26.7128 40.899 26.4951 40.9132 26.2959 40.846C26.0967 40.7787 25.9321 40.6355 25.8381 40.4474C25.744 40.2593 25.7281 40.0417 25.7938 39.842C25.8595 39.6422 26.0015 39.4766 26.1888 39.381C27.3481 38.8031 28.6255 38.5016 29.9209 38.5C29.9519 38.5 29.9828 38.5018 30.0136 38.5054C30.3895 38.5495 33.7254 38.9751 35.0775 40.3271C35.1889 40.4386 35.2648 40.5806 35.2956 40.7352C35.3263 40.8897 35.3105 41.05 35.2502 41.1956C35.1899 41.3412 35.0878 41.4657 34.9567 41.5532C34.8257 41.6408 34.6716 41.6875 34.514 41.6875Z" fill="#C97E67"/>
<path d="M42.5947 43.9685L42.6146 43.9486C42.7301 43.8346 42.8777 43.7589 43.0376 43.7316C43.1976 43.7043 43.362 43.7269 43.5087 43.7961C43.9388 43.9882 44.4055 44.0844 44.8764 44.0781C46.8896 44.0781 48.286 42.729 48.2974 42.7177C48.4469 42.5683 48.6495 42.4844 48.8609 42.4844C49.0722 42.4844 49.2749 42.5683 49.4243 42.7177L50.9971 44.2906C51.1442 44.4336 51.2321 44.6267 51.2433 44.8316C51.2545 45.0365 51.1882 45.238 51.0576 45.3962C50.986 45.4791 50.898 45.5463 50.7993 45.5937C50.7005 45.6411 50.5931 45.6676 50.4836 45.6716C50.3742 45.6755 50.2651 45.6569 50.1631 45.6168C50.0612 45.5768 49.9686 45.5161 49.8912 45.4387L48.8065 44.3541C48.4644 44.6004 48.1017 44.8166 47.7224 45.0005L48.6274 45.9054C48.7022 45.9793 48.7616 46.0671 48.8022 46.164C48.8429 46.2609 48.864 46.3648 48.8643 46.4699C48.8646 46.5749 48.8441 46.679 48.8041 46.7762C48.764 46.8733 48.7052 46.9615 48.6309 47.0358C48.5566 47.1101 48.4684 47.169 48.3713 47.209C48.2742 47.2491 48.1701 47.2695 48.065 47.2692C47.96 47.2689 47.856 47.2478 47.7591 47.2072C47.6623 47.1665 47.5744 47.1072 47.5005 47.0324L46.0303 45.5622C45.6499 45.6346 45.2636 45.6713 44.8764 45.6719C44.1634 45.6806 43.4574 45.53 42.8099 45.2313C42.6966 45.1772 42.598 45.0967 42.5223 44.9965C42.4465 44.8964 42.396 44.7795 42.3749 44.6557C42.3538 44.5319 42.3628 44.4049 42.401 44.2853C42.4393 44.1657 42.5057 44.0571 42.5947 43.9685Z" fill="#4E5660"/>
<path d="M42.4845 41.6875C42.5892 41.6877 42.6928 41.6671 42.7895 41.6271C42.8862 41.587 42.9741 41.5282 43.048 41.4541C43.7669 40.7351 45.9076 40.2426 47.1238 40.0939C48.1561 40.1022 49.173 40.3459 50.0969 40.8065C50.1907 40.8546 50.293 40.8837 50.3981 40.892C50.5031 40.9003 50.6088 40.8877 50.7089 40.8549C50.809 40.8222 50.9017 40.7698 50.9815 40.701C51.0613 40.6322 51.1266 40.5482 51.1737 40.454C51.2209 40.3597 51.2488 40.2571 51.256 40.1519C51.2632 40.0468 51.2495 39.9413 51.2156 39.8415C51.1817 39.7417 51.1284 39.6497 51.0587 39.5706C50.9891 39.4916 50.9044 39.4272 50.8096 39.381C49.6503 38.8031 48.3729 38.5015 47.0775 38.5C47.0465 38.5 47.0155 38.5018 46.9847 38.5054C46.6087 38.5495 43.2729 38.9751 41.9209 40.3271C41.8095 40.4386 41.7336 40.5806 41.7028 40.7352C41.6721 40.8898 41.6879 41.05 41.7482 41.1956C41.8085 41.3413 41.9107 41.4657 42.0417 41.5533C42.1728 41.6408 42.3269 41.6875 42.4845 41.6875Z" fill="#C97E67"/>
<path d="M38.5 61.6089C35.0168 61.6089 33.7188 59.165 33.7188 57.6245C33.7187 57.5016 33.7472 57.3804 33.8018 57.2704C33.8564 57.1603 33.9357 57.0643 34.0335 56.99C34.7285 56.4621 36.4488 55.2339 37.4134 55.2339C37.8152 55.2459 38.2 55.3992 38.5 55.6668C38.8 55.3992 39.1848 55.2459 39.5866 55.2339C40.5512 55.2339 42.2715 56.462 42.9665 56.99C43.0643 57.0643 43.1436 57.1603 43.1982 57.2704C43.2528 57.3804 43.2813 57.5016 43.2812 57.6245C43.2812 59.165 41.9832 61.6089 38.5 61.6089Z" fill="#F80000"/>
<path d="M34.0335 56.9905C33.9357 57.0648 33.8564 57.1608 33.8018 57.2708C33.7472 57.3809 33.7187 57.5021 33.7188 57.625C33.7208 57.8939 33.7558 58.1615 33.8229 58.4219H43.1771C43.2442 58.1615 43.2792 57.8939 43.2812 57.625C43.2813 57.5021 43.2528 57.3809 43.1982 57.2708C43.1436 57.1608 43.0643 57.0648 42.9665 56.9905C42.9024 56.9419 42.8295 56.8872 42.7494 56.8281H34.2506C34.1705 56.8872 34.0973 56.9419 34.0335 56.9905Z" fill="#CC0606"/>
<path d="M40.0938 60.8125C40.5339 60.8125 40.8906 60.4557 40.8906 60.0156C40.8906 59.5755 40.5339 59.2188 40.0938 59.2188C39.6536 59.2188 39.2969 59.5755 39.2969 60.0156C39.2969 60.4557 39.6536 60.8125 40.0938 60.8125Z" fill="#FF9595"/>
<path d="M30.6937 55.0208C29.8548 55.0213 29.0272 54.8269 28.2763 54.4528C27.5254 54.0787 26.8717 53.5352 26.3668 52.8652C26.0583 52.463 25.8546 51.9904 25.774 51.4899C25.6934 50.9894 25.7385 50.4768 25.9052 49.9981C26.0621 49.5393 26.3305 49.1267 26.6864 48.7974C27.0423 48.4682 27.4744 48.2325 27.9439 48.1116C27.9687 48.1053 27.9937 48.1002 28.0188 48.0963C29.1597 47.9192 29.7988 48.4756 30.2658 48.8817C30.6543 49.2194 30.9109 49.4426 31.4742 49.4426C31.9291 49.4426 32.3524 49.2294 32.7326 48.8087C33.0167 48.4933 33.3968 48.2802 33.814 48.2021C34.2313 48.1241 34.6627 48.1856 35.0416 48.377C35.4181 48.5723 35.7219 48.8835 35.9081 49.2646C36.0944 49.6457 36.1532 50.0765 36.0759 50.4936C35.5841 53.1168 33.3207 55.0208 30.6937 55.0208Z" fill="white"/>
<path d="M40.9081 50.4931C40.8308 50.0761 40.8896 49.6452 41.0759 49.2641C41.2621 48.883 41.5659 48.5718 41.9425 48.3765C42.3214 48.1851 42.7527 48.1236 43.17 48.2017C43.5873 48.2797 43.9674 48.4928 44.2515 48.8082C44.6316 49.2289 45.0549 49.4422 45.5099 49.4422C46.0732 49.4422 46.3297 49.2189 46.7182 48.8813C47.1853 48.4751 47.8244 47.9187 48.9652 48.0958C48.9904 48.0998 49.0154 48.1048 49.0401 48.1111C49.5097 48.232 49.9418 48.4677 50.2977 48.7969C50.6535 49.1262 50.922 49.5388 51.0789 49.9976C51.2456 50.4763 51.2907 50.989 51.2101 51.4894C51.1295 51.9899 50.9258 52.4625 50.6173 52.8647C50.1124 53.5347 49.4587 54.0782 48.7078 54.4523C47.9568 54.8264 47.1292 55.0208 46.2903 55.0203C43.6634 55.0203 41.3999 53.1163 40.9081 50.4931Z" fill="white"/>
</g>
<defs>
<clipPath id="clip0_161_3311">
<rect width="51" height="51" fill="white" transform="translate(13 13)"/>
</clipPath>
</defs>
</svg>
