<svg width="76" height="76" viewBox="0 0 76 76" fill="none" xmlns="http://www.w3.org/2000/svg">
<rect width="76" height="76" rx="38" fill="#F8FCFD"/>
<g clip-path="url(#clip0_161_3389)">
<path d="M13 43.4146V58.9737C13 59.5405 13.4594 59.9999 14.0262 59.9999H62.9738C63.5406 59.9999 64 59.5405 64 58.9737V43.4146H13Z" fill="#EDA1AB"/>
<path d="M60.7142 43.4146V59.9999H62.9755C63.5423 59.9999 64.0017 59.5405 64.0017 58.9737V43.4146H60.7142Z" fill="#E8899E"/>
<path d="M62.9739 38.439H49.1141C46.4773 38.439 44.0034 37.2402 42.3002 35.2271C41.3875 34.1483 40.0238 33.4634 38.5001 33.4634C36.9763 33.4634 35.6126 34.1483 34.6999 35.2271C32.9967 37.2402 30.5228 38.439 27.886 38.439H14.0264C13.4596 38.439 13.0002 38.8984 13.0002 39.4651V43.4146H64.0001V39.4651C64.0001 38.8984 63.5407 38.439 62.9739 38.439Z" fill="#F6EE86"/>
<path d="M33.6289 43.4144L35.2975 41.9961C35.5663 41.7676 35.8075 41.5084 36.0161 41.224L36.077 41.1409C36.5073 40.5541 36.8037 39.8754 36.91 39.1556C37.1129 37.7823 37.7484 36.7803 38.5008 36.7803C39.2544 36.7803 39.8905 37.7853 40.0925 39.1616C40.1929 39.846 40.4298 40.5031 40.8135 41.0785C41.0671 41.4587 41.3766 41.7984 41.7318 42.086L43.3728 43.4144H33.6289Z" fill="#F80000"/>
<path d="M63.9997 43.4145H60.6827V38.439H62.9736C63.5404 38.439 63.9998 38.8984 63.9998 39.4651V43.4145H63.9997Z" fill="#F2D98D"/>
<path d="M38.5002 54.506C39.0155 54.506 39.4331 54.0883 39.4331 53.5731C39.4331 53.0578 39.0155 52.6401 38.5002 52.6401C37.985 52.6401 37.5673 53.0578 37.5673 53.5731C37.5673 54.0883 37.985 54.506 38.5002 54.506Z" fill="#E8899E"/>
<path d="M31.6009 51.6501C32.1162 51.6501 32.5338 51.2324 32.5338 50.7171C32.5338 50.2019 32.1162 49.7842 31.6009 49.7842C31.0857 49.7842 30.668 50.2019 30.668 50.7171C30.668 51.2324 31.0857 51.6501 31.6009 51.6501Z" fill="#E8899E"/>
<path d="M25.6204 56.7629C26.1357 56.7629 26.5534 56.3452 26.5534 55.8299C26.5534 55.3147 26.1357 54.897 25.6204 54.897C25.1052 54.897 24.6875 55.3147 24.6875 55.8299C24.6875 56.3452 25.1052 56.7629 25.6204 56.7629Z" fill="#E8899E"/>
<path d="M19.4259 52.3981C19.9411 52.3981 20.3588 51.9804 20.3588 51.4652C20.3588 50.9499 19.9411 50.5322 19.4259 50.5322C18.9106 50.5322 18.4929 50.9499 18.4929 51.4652C18.4929 51.9804 18.9106 52.3981 19.4259 52.3981Z" fill="#E8899E"/>
<path d="M45.4017 51.6501C45.9169 51.6501 46.3346 51.2324 46.3346 50.7171C46.3346 50.2019 45.9169 49.7842 45.4017 49.7842C44.8864 49.7842 44.4688 50.2019 44.4688 50.7171C44.4688 51.2324 44.8864 51.6501 45.4017 51.6501Z" fill="#E8899E"/>
<path d="M51.3861 56.7629C51.9013 56.7629 52.319 56.3452 52.319 55.8299C52.319 55.3147 51.9013 54.897 51.3861 54.897C50.8708 54.897 50.4531 55.3147 50.4531 55.8299C50.4531 56.3452 50.8708 56.7629 51.3861 56.7629Z" fill="#E8899E"/>
<path d="M57.573 52.3981C58.0882 52.3981 58.5059 51.9804 58.5059 51.4652C58.5059 50.9499 58.0882 50.5322 57.573 50.5322C57.0577 50.5322 56.64 50.9499 56.64 51.4652C56.64 51.9804 57.0577 52.3981 57.573 52.3981Z" fill="#E8899E"/>
<path d="M38.5 30.9158C38.075 30.9158 37.7305 30.5713 37.7305 30.1462V26.8292C37.7305 26.404 38.075 26.0596 38.5 26.0596C38.9251 26.0596 39.2696 26.4041 39.2696 26.8292V30.1462C39.2696 30.5713 38.9251 30.9158 38.5 30.9158Z" fill="#F80000"/>
<path d="M42.3751 31.7451C42.1782 31.7451 41.9811 31.6699 41.8309 31.5197C41.5303 31.2191 41.5303 30.7319 41.8309 30.4312L44.1764 28.0857C44.477 27.7852 44.9643 27.7852 45.2649 28.0857C45.5655 28.3863 45.5655 28.8735 45.2649 29.1742L42.9194 31.5197C42.7691 31.67 42.572 31.7451 42.3751 31.7451Z" fill="#F80000"/>
<path d="M34.626 31.7451C34.4291 31.7451 34.232 31.6699 34.0818 31.5197L31.7363 29.1742C31.4357 28.8736 31.4357 28.3864 31.7363 28.0857C32.0369 27.7852 32.5241 27.7852 32.8248 28.0857L35.1703 30.4312C35.4709 30.7318 35.4709 31.219 35.1703 31.5197C35.0199 31.67 34.823 31.7451 34.626 31.7451Z" fill="#F80000"/>
<path d="M60.808 25.8302C64.4697 22.1685 64.4697 16.2318 60.808 12.5702C57.1463 8.90855 51.2096 8.90855 47.548 12.5702C43.8863 16.2318 43.8863 22.1685 47.548 25.8302C51.2096 29.4918 57.1463 29.4918 60.808 25.8302Z" fill="#00AAE4"/>
<path d="M56.0377 16.8564V14.1348C56.0377 13.8635 55.8177 13.6436 55.5464 13.6436H52.8247C52.5535 13.6436 52.3335 13.8635 52.3335 14.1348V16.8564C52.3335 17.1277 52.1136 17.3476 51.8423 17.3476H49.1207C48.8494 17.3476 48.6295 17.5675 48.6295 17.8388V20.5604C48.6295 20.8317 48.8494 21.0516 49.1207 21.0516H51.8423C52.1136 21.0516 52.3335 21.2715 52.3335 21.5428V24.2644C52.3335 24.5357 52.5535 24.7557 52.8247 24.7557H55.5464C55.8176 24.7557 56.0377 24.5358 56.0377 24.2644V21.5428C56.0377 21.2715 56.2576 21.0516 56.5289 21.0516H59.2505C59.5218 21.0516 59.7417 20.8317 59.7417 20.5604V17.8388C59.7417 17.5675 59.5218 17.3476 59.2505 17.3476H56.5289C56.2576 17.3476 56.0377 17.1277 56.0377 16.8564Z" fill="white"/>
</g>
<defs>
<clipPath id="clip0_161_3389">
<rect width="51" height="51" fill="white" transform="translate(13 9)"/>
</clipPath>
</defs>
</svg>
