<svg width="76" height="76" viewBox="0 0 76 76" fill="none" xmlns="http://www.w3.org/2000/svg">
<rect width="76" height="76" rx="38" fill="#F8FCFD"/>
<g clip-path="url(#clip0_161_3219)">
<path d="M36.8198 25.6153C36.3525 22.9594 36.6381 20.1802 37.7784 17.597C38.3466 16.31 37.7639 14.806 36.4768 14.2377C35.1894 13.6694 33.6856 14.2522 33.1175 15.5393C32.0787 17.8922 31.5387 20.3902 31.5124 22.964C31.4793 26.1827 32.0612 29.1024 34.2315 31.4803C34.4067 31.6722 34.5881 31.8553 34.7745 32.0305L38.3829 28.4221C37.6022 27.7371 37.0255 26.7849 36.8198 25.6153Z" fill="#CC0606"/>
<path d="M28.8728 40.4601C24.6276 36.2149 17.3511 38.4995 16.3106 44.4123C16.1347 45.4122 16.0489 46.4379 16.0595 47.479C16.0827 49.7572 16.5766 51.9279 17.4477 53.901C17.8529 54.8189 18.7679 55.406 19.7714 55.406C21.6178 55.406 22.8325 53.5097 22.0937 51.8176C21.5038 50.4665 21.1701 48.9828 21.1542 47.4269C21.1472 46.7343 21.2018 46.0528 21.3137 45.3884C21.6329 43.4935 23.9477 42.74 25.3065 44.0989L25.3068 44.0993L28.9094 40.4966L28.8728 40.4601Z" fill="#CC0606"/>
<path d="M53.7148 35.3939C53.716 35.3031 53.7183 35.2126 53.7183 35.1216C53.7183 35.2126 53.7171 35.3034 53.7148 35.3939Z" fill="#FF8E9E"/>
<path d="M53.7183 35.1219C53.7183 35.0309 53.716 34.9404 53.7148 34.8496C53.7171 34.9401 53.7183 35.0308 53.7183 35.1219Z" fill="#FF8E9E"/>
<path d="M53.7164 34.8497C53.6068 30.5255 50.8952 26.8485 47.089 25.3242C45.8771 24.8389 44.5544 24.5713 43.1691 24.5713C37.2082 24.5713 32.6113 29.4176 32.6113 34.9657C32.6113 36.8393 31.4541 38.2907 29.7805 38.8523C26.2263 40.0451 23.6621 43.4206 23.7027 47.4007C23.7531 52.3227 27.9175 56.2728 32.8395 56.2223C36.2606 56.1871 39.4861 55.3375 42.3323 53.8586C49.0216 50.3829 53.6145 43.43 53.7163 35.3943C53.7174 35.3035 53.7198 35.213 53.7198 35.122C53.7198 35.031 53.7176 34.9404 53.7164 34.8497Z" fill="#F80000"/>
<path d="M37.3427 49.053C36.2527 45.8267 37.4418 42.4004 40.016 40.4864C41.228 39.5852 41.7837 38.0975 41.2863 36.5737C39.8155 32.0687 42.257 26.9164 47.089 25.3242C45.8771 24.8389 44.5544 24.5713 43.1691 24.5713C37.2082 24.5713 32.6113 29.4176 32.6113 34.9657C32.6113 36.8393 31.4541 38.2907 29.7805 38.8523C26.2263 40.0451 23.6621 43.4206 23.7027 47.4007C23.7531 52.3227 27.9175 56.2728 32.8395 56.2223C36.2606 56.1871 39.4861 55.3375 42.3323 53.8586C40.0672 53.1583 38.1504 51.444 37.3427 49.053Z" fill="#CC0606"/>
<path d="M35.563 38.0287C36.9397 38.0287 38.0557 37.14 38.0557 36.0437C38.0557 34.9473 36.9397 34.0586 35.563 34.0586C34.1863 34.0586 33.0703 34.9473 33.0703 36.0437C33.0703 37.14 34.1863 38.0287 35.563 38.0287Z" fill="#FFB5B5"/>
<path d="M49.0747 38.0287C50.4514 38.0287 51.5674 37.14 51.5674 36.0437C51.5674 34.9473 50.4514 34.0586 49.0747 34.0586C47.698 34.0586 46.582 34.9473 46.582 36.0437C46.582 37.14 47.698 38.0287 49.0747 38.0287Z" fill="#FFDBDB"/>
<path d="M37.0155 32.4766C36.6637 32.4766 36.3787 32.7617 36.3787 33.1134V34.1324C36.3787 34.4841 36.6637 34.7693 37.0155 34.7693C37.3673 34.7693 37.6524 34.4841 37.6524 34.1324V33.1134C37.6524 32.7617 37.3672 32.4766 37.0155 32.4766Z" fill="#4E5660"/>
<path d="M47.621 32.4766C47.2692 32.4766 46.9841 32.7617 46.9841 33.1134V34.1324C46.9841 34.4841 47.2692 34.7693 47.621 34.7693C47.9728 34.7693 48.2578 34.4841 48.2578 34.1324V33.1134C48.2578 32.7617 47.9728 32.4766 47.621 32.4766Z" fill="#4E5660"/>
<path d="M44.1364 33.6221C43.8713 33.391 43.469 33.4186 43.238 33.6838C43.0061 33.9497 42.6715 34.1023 42.3198 34.1023C41.9682 34.1023 41.6337 33.9498 41.4019 33.6839C41.1707 33.4187 40.7685 33.3911 40.5033 33.6221C40.2382 33.8533 40.2106 34.2555 40.4416 34.5207C40.9154 35.0643 41.5999 35.3761 42.3198 35.3761C43.0396 35.3761 43.7242 35.0643 44.1979 34.5208C44.4292 34.2555 44.4017 33.8533 44.1364 33.6221Z" fill="#4E5660"/>
<path d="M58.1644 59.9898C62.1598 55.9944 62.1598 49.5164 58.1644 45.5209C54.1689 41.5254 47.6909 41.5254 43.6954 45.5209C39.6999 49.5164 39.6999 55.9944 43.6954 59.9898C47.6909 63.9853 54.1689 63.9853 58.1644 59.9898Z" fill="#00AAE4"/>
<path d="M52.9592 50.1981V47.2284C52.9592 46.9323 52.7192 46.6924 52.4231 46.6924H49.4533C49.1573 46.6924 48.9173 46.9323 48.9173 47.2284V50.1981C48.9173 50.4941 48.6774 50.7341 48.3813 50.7341H45.4116C45.1156 50.7341 44.8756 50.9741 44.8756 51.2701V54.2398C44.8756 54.5358 45.1156 54.7758 45.4116 54.7758H48.3813C48.6774 54.7758 48.9173 55.0158 48.9173 55.3118V58.2815C48.9173 58.5776 49.1573 58.8176 49.4533 58.8176H52.4231C52.7191 58.8176 52.9592 58.5777 52.9592 58.2815V55.3118C52.9592 55.0158 53.1991 54.7758 53.4951 54.7758H56.4649C56.7609 54.7758 57.0009 54.5358 57.0009 54.2398V51.2701C57.0009 50.9741 56.7609 50.7341 56.4649 50.7341H53.4951C53.1991 50.7341 52.9592 50.4941 52.9592 50.1981Z" fill="white"/>
</g>
<defs>
<clipPath id="clip0_161_3219">
<rect width="51" height="51" fill="white" transform="translate(13 13)"/>
</clipPath>
</defs>
</svg>
