<svg width="76" height="76" viewBox="0 0 76 76" fill="none" xmlns="http://www.w3.org/2000/svg">
<rect width="76" height="76" rx="38" fill="#F8FCFD"/>
<g clip-path="url(#clip0_161_3525)">
<path d="M51.336 38.4625C48.8493 38.4625 46.3101 37.3149 45.5908 36.2152C45.3648 35.8699 45.4617 35.407 45.8068 35.181C46.1522 34.9553 46.6151 35.052 46.841 35.3971C47.4919 36.3921 51.4998 37.772 53.7235 36.3738C54.0728 36.1543 54.5341 36.2594 54.7536 36.6086C54.9732 36.9579 54.8682 37.4191 54.5188 37.6387C53.586 38.2253 52.4664 38.4625 51.336 38.4625Z" fill="#E8899E"/>
<path d="M25.6614 38.4625C24.5308 38.4625 23.4116 38.2255 22.4784 37.6388C22.1291 37.4191 22.024 36.958 22.2437 36.6086C22.4632 36.2593 22.9245 36.1543 23.2737 36.3738C25.4974 37.7724 29.5053 36.3922 30.1563 35.3972C30.3821 35.0518 30.8452 34.9553 31.1905 35.181C31.5357 35.407 31.6325 35.8699 31.4065 36.2153C30.6873 37.3148 28.148 38.4625 25.6614 38.4625Z" fill="#E8899E"/>
<path d="M61.0837 35.6227C64.8868 31.5246 64.7102 26.5966 62.0445 23.752C59.0335 20.5387 52.279 19.4215 43.1525 26.8482C42.2133 27.6125 42.0714 28.9936 42.8357 29.9328C43.6 30.8721 44.981 31.014 45.9203 30.2495C52.2366 25.1095 57.0475 24.8326 58.8447 26.7503C60.1729 28.1677 59.7718 30.5896 57.8693 32.6398C57.0455 33.5274 57.0974 34.9147 57.985 35.7384C58.8706 36.5603 60.258 36.5123 61.0837 35.6227Z" fill="#EDA1AB"/>
<path d="M15.9152 35.6227C12.1121 31.5246 12.2887 26.5967 14.9542 23.752C17.9652 20.5387 24.7197 19.4215 33.8462 26.8482C34.7855 27.6125 34.9273 28.9936 34.163 29.9328C33.3987 30.8721 32.0177 31.014 31.0784 30.2495C24.7622 25.1095 19.9512 24.8326 18.1541 26.7503C16.8258 28.1677 17.2269 30.5896 19.1295 32.6398C19.9532 33.5274 19.9013 34.9147 19.0137 35.7384C18.1283 36.5603 16.7408 36.5123 15.9152 35.6227Z" fill="#EDA1AB"/>
<path d="M49.165 22.9497C47.3031 23.8347 45.2931 25.1067 43.1525 26.8485C42.2133 27.6128 42.0714 28.9939 42.8357 29.9331C43.6 30.8724 44.981 31.0143 45.9202 30.2498C48.345 28.2765 50.5477 27.0207 52.4434 26.33C51.7069 25.0038 50.6026 23.8589 49.165 22.9497Z" fill="#E8899E"/>
<path d="M33.8463 26.8485C31.7057 25.1067 29.6956 23.8348 27.8337 22.9497C26.3962 23.8588 25.2918 25.0038 24.5553 26.33C26.4511 27.0207 28.6536 28.2765 31.0784 30.2498C32.0176 31.0143 33.3987 30.8724 34.163 29.9331C34.9273 28.9939 34.7855 27.6128 33.8463 26.8485Z" fill="#E8899E"/>
<path d="M50.4401 30.5892C50.4401 25.6822 45.1219 23.5317 38.4994 23.5317C31.8768 23.5317 26.5586 25.6822 26.5586 30.5892C26.5586 33.3765 28.3078 36.5679 31.014 38.8052C31.6705 39.348 31.9044 40.2605 31.5593 41.0393C30.4831 43.4671 30.3527 46.2466 31.261 48.809L33.472 55.0474C33.85 56.1139 34.8588 56.8267 35.9903 56.8267H41.0084C42.14 56.8267 43.1487 56.1139 43.5267 55.0474L45.7378 48.809C46.646 46.2465 46.5157 43.4671 45.4394 41.0393C45.0942 40.2605 45.3282 39.348 45.9847 38.8052C48.6908 36.5679 50.4401 33.3765 50.4401 30.5892Z" fill="#EDA1AB"/>
<path d="M42.4825 56.3811C33.8622 49.4766 30.277 31.5139 33.7292 23.9668C29.4991 24.8167 26.5586 26.9408 26.5586 30.5892C26.5586 33.3766 28.3079 36.568 31.014 38.8053C31.6705 39.3481 31.9044 40.2606 31.5593 41.0393C30.4831 43.4671 30.3528 46.2466 31.261 48.8091L33.472 55.0474C33.85 56.1139 34.8588 56.8267 35.9903 56.8267H41.0084C41.546 56.8267 42.0548 56.6644 42.4825 56.3811Z" fill="#E8899E"/>
<path d="M30.3363 35.2746C31.9999 35.2746 33.3485 34.2007 33.3485 32.8758C33.3485 31.551 31.9999 30.4771 30.3363 30.4771C28.6726 30.4771 27.324 31.551 27.324 32.8758C27.324 34.2007 28.6726 35.2746 30.3363 35.2746Z" fill="white"/>
<path d="M46.6644 35.2746C48.328 35.2746 49.6767 34.2007 49.6767 32.8758C49.6767 31.551 48.328 30.4771 46.6644 30.4771C45.0007 30.4771 43.6521 31.551 43.6521 32.8758C43.6521 34.2007 45.0007 35.2746 46.6644 35.2746Z" fill="white"/>
<path d="M32.0945 31.3139C31.6819 31.3139 31.3474 30.9795 31.3474 30.5668V29.3354C31.3474 28.9228 31.6819 28.5884 32.0945 28.5884C32.5071 28.5884 32.8416 28.9228 32.8416 29.3354V30.5668C32.8416 30.9795 32.5071 31.3139 32.0945 31.3139Z" fill="#4E5660"/>
<path d="M44.9109 31.3139C44.4983 31.3139 44.1638 30.9795 44.1638 30.5668V29.3354C44.1638 28.9228 44.4983 28.5884 44.9109 28.5884C45.3235 28.5884 45.658 28.9228 45.658 29.3354V30.5668C45.658 30.9795 45.3235 31.3139 44.9109 31.3139Z" fill="#4E5660"/>
<path d="M38.5027 32.0471C37.6391 32.0471 36.8181 31.6732 36.2499 31.0212C35.9789 30.7101 36.0112 30.2383 36.3223 29.9671C36.6334 29.696 37.1052 29.7286 37.3764 30.0395C37.6608 30.3657 38.0712 30.5528 38.5027 30.5528C38.9341 30.5528 39.3446 30.3657 39.6289 30.0395C39.9 29.7284 40.372 29.696 40.683 29.9671C40.9941 30.2383 41.0265 30.7101 40.7554 31.0212C40.1873 31.6732 39.3662 32.0471 38.5027 32.0471Z" fill="#4E5660"/>
<path d="M58.1861 39.0091C60.4829 38.1735 61.8367 36.0996 61.21 34.3771C60.5833 32.6545 58.2133 31.9355 55.9165 32.7711C53.6197 33.6068 52.2659 35.6806 52.8926 37.4032C53.5193 39.1258 55.8893 39.8448 58.1861 39.0091Z" fill="#DF6C85"/>
<path d="M24.1272 37.3939C24.754 35.6714 23.4001 33.5975 21.1033 32.7619C18.8065 31.9262 16.4366 32.6452 15.8098 34.3678C15.1831 36.0904 16.537 38.1642 18.8337 38.9999C21.1305 39.8355 23.5005 39.1165 24.1272 37.3939Z" fill="#DF6C85"/>
<path d="M59.2252 60.1127C63.0879 56.25 63.0879 49.9873 59.2252 46.1247C55.3625 42.262 49.0999 42.262 45.2372 46.1247C41.3745 49.9873 41.3745 56.25 45.2372 60.1127C49.0999 63.9753 55.3625 63.9753 59.2252 60.1127Z" fill="#00AAE4"/>
<path d="M54.1947 50.6465V47.7755C54.1947 47.4893 53.9627 47.2573 53.6765 47.2573H50.8054C50.5193 47.2573 50.2873 47.4893 50.2873 47.7755V50.6465C50.2873 50.9327 50.0553 51.1647 49.7691 51.1647H46.8981C46.6119 51.1647 46.3799 51.3967 46.3799 51.6829V54.5539C46.3799 54.8401 46.6119 55.0721 46.8981 55.0721H49.7691C50.0553 55.0721 50.2873 55.3041 50.2873 55.5902V58.4613C50.2873 58.7475 50.5193 58.9796 50.8054 58.9796H53.6765C53.9626 58.9796 54.1947 58.7476 54.1947 58.4613V55.5902C54.1947 55.3041 54.4267 55.0721 54.7129 55.0721H57.5839C57.8701 55.0721 58.1021 54.8401 58.1021 54.5539V51.6829C58.1021 51.3967 57.8701 51.1647 57.5839 51.1647H54.7129C54.4267 51.1647 54.1947 50.9327 54.1947 50.6465Z" fill="white"/>
</g>
<defs>
<clipPath id="clip0_161_3525">
<rect width="51" height="51" fill="white" transform="translate(13 13)"/>
</clipPath>
</defs>
</svg>
