<svg width="42" height="42" viewBox="0 0 42 42" fill="none" xmlns="http://www.w3.org/2000/svg">
<g clip-path="url(#clip0_420_39985)">
<path d="M42.2457 21.25C42.2457 9.65202 32.8437 0.25 21.2457 0.25C9.64775 0.25 0.245728 9.65202 0.245728 21.25C0.245728 32.848 9.64775 42.25 21.2457 42.25C32.8437 42.25 42.2457 32.848 42.2457 21.25Z" fill="url(#paint0_linear_420_39985)"/>
<path opacity="0.1" d="M37.0511 7.43414C33.9895 13.0544 29.6597 18.8515 24.2494 24.2618C18.8391 29.672 13.042 33.9936 7.43007 37.0552C7.07823 36.7494 6.73652 36.4307 6.40494 36.0991C4.4007 34.1618 2.80222 31.8449 1.7027 29.2834C0.603175 26.7219 0.0246209 23.9671 0.000768868 21.1797C-0.0230831 18.3923 0.508244 15.628 1.56377 13.0481C2.6193 10.4681 4.17789 8.12417 6.14869 6.15283C8.11948 4.18149 10.463 2.62224 13.0427 1.56599C15.6223 0.509745 18.3864 -0.0223544 21.1738 0.000719519C23.9612 0.0237934 26.7162 0.601579 29.278 1.70038C31.8398 2.79919 34.1572 4.39703 36.0951 6.40072C36.4267 6.7323 36.7453 7.07678 37.0511 7.43414Z" fill="white"/>
<path d="M26.2198 10.1973H16.2724C14.6602 10.1973 13.114 10.8377 11.974 11.9777C10.8339 13.1178 10.1935 14.664 10.1935 16.2762V26.2236C10.1935 27.8358 10.8339 29.382 11.974 30.5221C13.114 31.6621 14.6602 32.3025 16.2724 32.3025H26.2198C27.832 32.3025 29.3782 31.6621 30.5183 30.5221C31.6583 29.382 32.2987 27.8358 32.2987 26.2236V16.2762C32.2987 14.664 31.6583 13.1178 30.5183 11.9777C29.3782 10.8377 27.832 10.1973 26.2198 10.1973ZM30.3645 25.3504C30.3645 26.6813 29.8359 27.9576 28.8948 28.8986C27.9538 29.8397 26.6775 30.3683 25.3466 30.3683H17.1456C15.8148 30.3683 14.5384 29.8397 13.5974 28.8986C12.6564 27.9576 12.1277 26.6813 12.1277 25.3504V17.1494C12.1277 15.8185 12.6564 14.5422 13.5974 13.6012C14.5384 12.6601 15.8148 12.1315 17.1456 12.1315H25.3466C26.6775 12.1315 27.9538 12.6601 28.8948 13.6012C29.8359 14.5422 30.3645 15.8185 30.3645 17.1494V25.3504Z" fill="white"/>
<path d="M25.2777 17.26L25.2252 17.2075L25.181 17.1633C24.1362 16.1222 22.7212 15.5379 21.2462 15.5386C20.5014 15.5436 19.7648 15.6954 19.0787 15.9852C18.3925 16.275 17.7702 16.6972 17.2472 17.2276C16.7243 17.758 16.3109 18.3862 16.0309 19.0764C15.7508 19.7666 15.6094 20.5052 15.6149 21.25C15.6138 22.7616 16.2096 24.2125 17.2728 25.287C17.7936 25.8141 18.4141 26.2322 19.0982 26.5168C19.7823 26.8015 20.5163 26.947 21.2573 26.9449C22.3687 26.9216 23.4494 26.5753 24.3674 25.9484C25.2855 25.3215 26.0013 24.441 26.4275 23.4142C26.8537 22.3875 26.9719 21.2589 26.7678 20.1661C26.5636 19.0734 26.0458 18.0636 25.2777 17.26ZM21.2462 24.9969C20.503 25.0073 19.7735 24.7964 19.1505 24.3911C18.5274 23.9858 18.039 23.4043 17.7474 22.7206C17.4557 22.037 17.374 21.282 17.5126 20.5518C17.6512 19.8215 18.0038 19.149 18.5257 18.6197C19.0475 18.0905 19.715 17.7284 20.4432 17.5795C21.1714 17.4306 21.9275 17.5017 22.6152 17.7837C23.3029 18.0656 23.8912 18.5458 24.3053 19.163C24.7193 19.7803 24.9405 20.5067 24.9406 21.25C24.9442 21.7387 24.8515 22.2232 24.6678 22.6761C24.4841 23.1289 24.2129 23.541 23.8698 23.889C23.5267 24.237 23.1184 24.5139 22.6683 24.704C22.2181 24.8941 21.7349 24.9936 21.2462 24.9969Z" fill="white"/>
<path d="M28.5491 15.2758C28.5506 15.4531 28.517 15.629 28.4504 15.7933C28.3839 15.9577 28.2855 16.1072 28.161 16.2335C28.0365 16.3598 27.8884 16.4603 27.725 16.5292C27.5617 16.5982 27.3863 16.6342 27.209 16.6353C27.0332 16.6352 26.8591 16.6002 26.6969 16.5324C26.5347 16.4646 26.3875 16.3653 26.264 16.2402C26.0768 16.0502 25.9495 15.8095 25.8978 15.5479C25.8461 15.2863 25.8723 15.0153 25.9733 14.7684C26.0742 14.5216 26.2453 14.3098 26.4655 14.1593C26.6856 14.0088 26.9451 13.9263 27.2117 13.9219C27.5238 13.9218 27.826 14.0313 28.0656 14.2313L28.0932 14.259C28.1378 14.2953 28.1785 14.336 28.2148 14.3806L28.2452 14.4137C28.443 14.6574 28.5503 14.962 28.5491 15.2758Z" fill="white"/>
</g>
<defs>
<linearGradient id="paint0_linear_420_39985" x1="6.39652" y1="6.40079" x2="36.0949" y2="36.0992" gradientUnits="userSpaceOnUse">
<stop stop-color="#FAE100"/>
<stop offset="0.15" stop-color="#FCB720"/>
<stop offset="0.3" stop-color="#FF7950"/>
<stop offset="0.5" stop-color="#FF1C74"/>
<stop offset="1" stop-color="#6C1CD1"/>
</linearGradient>
<clipPath id="clip0_420_39985">
<rect width="42" height="42" fill="white"/>
</clipPath>
</defs>
</svg>
