<svg width="76" height="76" viewBox="0 0 76 76" fill="none" xmlns="http://www.w3.org/2000/svg">
<rect width="76" height="76" rx="38" fill="#F8FCFD"/>
<g clip-path="url(#clip0_161_3633)">
<path d="M38.5 62.3756C37.6454 62.3756 36.7985 62.2447 35.9832 61.9867C27.0848 59.1703 20.6588 53.4466 16.8836 44.9745C14.3326 39.2498 13.0624 32.4637 13.0002 24.2287C12.9709 20.3634 16.0922 17.1821 19.9578 17.1371C30.2063 17.0179 33.3487 15.4572 34.2241 14.7917C35.4478 13.8614 36.9662 13.3491 38.5 13.3491C40.0338 13.3491 41.5522 13.8614 42.7758 14.7917C43.6513 15.4573 46.7937 17.0179 57.0421 17.1372C60.9079 17.1822 64.0292 20.3635 63.9998 24.2289C63.9376 32.4638 62.6674 39.2498 60.1164 44.9746C56.3412 53.4467 49.9152 59.1704 41.0167 61.9868C40.2014 62.2447 39.3547 62.3756 38.5 62.3756Z" fill="#00AAE4"/>
<path d="M49.3954 51.6621L29.4821 21.3709C27.6672 21.0905 26.6884 17.8095 28.4657 16.5601C26.3949 16.8659 23.6335 17.0941 19.9578 17.1368C16.0921 17.1818 12.9709 20.3631 13.0002 24.2284C13.0624 32.4635 14.3326 39.2495 16.8836 44.9742C20.6588 53.4463 27.0848 59.1701 35.9832 61.9864C36.7985 62.2444 37.6454 62.3753 38.5 62.3753C39.3547 62.3753 40.2014 62.2444 41.0167 61.9864C45.5904 60.5389 49.509 58.3212 52.7521 55.3591C50.066 55.6849 48.8866 52.544 49.3954 51.6621Z" fill="#0387D1"/>
<path d="M39.5431 57.3307C56.4974 51.9648 59.0309 35.4927 59.1161 24.192C59.1251 23.0043 58.1728 22.0345 56.9852 22.0206C51.9849 21.9624 43.6003 21.5535 39.8201 18.6795C39.0369 18.084 37.963 18.084 37.1799 18.6795C33.3996 21.5536 25.015 21.9625 20.0147 22.0206C18.827 22.0345 17.8748 23.0043 17.8837 24.192C17.969 35.4927 20.5026 51.9648 37.4569 57.3307C38.1362 57.5458 38.8638 57.5458 39.5431 57.3307Z" fill="#EDA1AB"/>
<path d="M27.8128 21.5703C25.0115 21.9032 22.1923 21.9951 20.0148 22.0205C18.8272 22.0344 17.8749 23.0042 17.8839 24.1918C17.9691 35.4925 20.5027 51.9646 37.457 57.3306C38.1363 57.5456 38.8638 57.5456 39.5431 57.3306C41.9459 56.5701 44.0584 55.5861 45.916 54.4259C26.1447 52.6793 26.4743 30.2022 27.8128 21.5703Z" fill="#E8899E"/>
<path d="M40.3055 54.5132H36.6969C35.482 54.5132 34.4662 55.4364 34.3503 56.6456L33.8934 61.4145C33.8267 62.1096 34.249 62.7564 34.9097 62.9823C36.1146 63.3942 37.1771 63.6507 38.5012 63.6507C39.8308 63.6507 40.8869 63.3957 42.1002 62.9799C42.7579 62.7545 43.1754 62.1066 43.109 61.4145L42.6521 56.6455C42.5362 55.4365 41.5204 54.5132 40.3055 54.5132Z" fill="#F80000"/>
<path d="M38.4971 60.7614C38.0845 60.7614 37.75 60.4269 37.75 60.0143V58.1499C37.75 57.7373 38.0845 57.4028 38.4971 57.4028C38.9097 57.4028 39.2441 57.7373 39.2441 58.1499V60.0143C39.2441 60.4269 38.9097 60.7614 38.4971 60.7614Z" fill="#CC0606"/>
<path d="M41.0408 38.9156V35.1792C41.0408 34.8068 40.7389 34.5049 40.3665 34.5049H36.6301C36.2577 34.5049 35.9558 34.8068 35.9558 35.1792V38.9156C35.9558 39.288 35.6539 39.5899 35.2814 39.5899H31.5451C31.1726 39.5899 30.8707 39.8919 30.8707 40.2643V44.0006C30.8707 44.3731 31.1726 44.675 31.5451 44.675H35.2814C35.6539 44.675 35.9558 44.9769 35.9558 45.3494V49.0857C35.9558 49.4581 36.2577 49.7601 36.6301 49.7601H40.3665C40.7389 49.7601 41.0408 49.4581 41.0408 49.0857V45.3494C41.0408 44.9769 41.3428 44.675 41.7152 44.675H45.4515C45.824 44.675 46.1259 44.3731 46.1259 44.0006V40.2643C46.1259 39.8919 45.824 39.5899 45.4515 39.5899H41.7152C41.3428 39.59 41.0408 39.288 41.0408 38.9156Z" fill="white"/>
<path d="M31.1349 31.8733C32.6271 31.8733 33.8369 30.91 33.8369 29.7216C33.8369 28.5332 32.6271 27.5698 31.1349 27.5698C29.6426 27.5698 28.4329 28.5332 28.4329 29.7216C28.4329 30.91 29.6426 31.8733 31.1349 31.8733Z" fill="#FEE1E1"/>
<path d="M45.7794 31.8733C47.2717 31.8733 48.4814 30.91 48.4814 29.7216C48.4814 28.5332 47.2717 27.5698 45.7794 27.5698C44.2871 27.5698 43.0774 28.5332 43.0774 29.7216C43.0774 30.91 44.2871 31.8733 45.7794 31.8733Z" fill="#FEFFFF"/>
<path d="M33.9973 28.0606C33.6215 28.0606 33.3171 27.7561 33.3171 27.3804C33.3171 27.0463 33.0454 26.7745 32.7112 26.7745C32.3771 26.7745 32.1053 27.0463 32.1053 27.3804C32.1053 27.7561 31.8008 28.0606 31.4251 28.0606C31.0493 28.0606 30.7449 27.7561 30.7449 27.3804C30.7449 26.2963 31.627 25.4141 32.7112 25.4141C33.7954 25.4141 34.6775 26.2962 34.6775 27.3804C34.6775 27.7561 34.373 28.0606 33.9973 28.0606Z" fill="#4E5660"/>
<path d="M45.4936 28.0606C45.1179 28.0606 44.8134 27.7561 44.8134 27.3804C44.8134 27.0463 44.5416 26.7745 44.2075 26.7745C43.8734 26.7745 43.6016 27.0463 43.6016 27.3804C43.6016 27.7561 43.2972 28.0606 42.9214 28.0606C42.5457 28.0606 42.2412 27.7561 42.2412 27.3804C42.2412 26.2963 43.1233 25.4141 44.2075 25.4141C45.2918 25.4141 46.1739 26.2962 46.1739 27.3804C46.1739 27.7561 45.8693 28.0606 45.4936 28.0606Z" fill="#4E5660"/>
<path d="M38.4612 30.1855C37.7417 30.1855 37.0575 29.874 36.5842 29.3307C36.3373 29.0475 36.3669 28.6178 36.6501 28.371C36.9332 28.1243 37.3629 28.1536 37.6098 28.437C37.8248 28.6837 38.1351 28.8252 38.4613 28.8252C38.7874 28.8252 39.0978 28.6837 39.3127 28.437C39.5594 28.1536 39.9891 28.1243 40.2725 28.371C40.5556 28.6178 40.5852 29.0475 40.3384 29.3307C39.8649 29.874 39.1807 30.1855 38.4612 30.1855Z" fill="#4E5660"/>
</g>
<defs>
<clipPath id="clip0_161_3633">
<rect width="51" height="51" fill="white" transform="translate(13 13)"/>
</clipPath>
</defs>
</svg>
