<svg width="20" height="20" viewBox="0 0 20 20" fill="none" xmlns="http://www.w3.org/2000/svg">
<path d="M10.0001 18.0572C12.8196 18.0572 15.1052 17.2132 15.1052 16.1719C15.1052 15.1307 12.8196 14.2866 10.0001 14.2866C7.18055 14.2866 4.8949 15.1307 4.8949 16.1719C4.8949 17.2132 7.18055 18.0572 10.0001 18.0572Z" fill="#BBCDD7"/>
<path d="M9.98732 16.1719C9.98732 16.1719 13.5076 11.7313 14.4764 8.32969C14.6016 7.95525 14.6808 7.56699 14.7123 7.17344C14.7123 7.05469 14.7358 6.93594 14.7358 6.81875C14.742 6.19219 14.6249 5.57053 14.3909 4.98927C14.1569 4.408 13.8107 3.87852 13.3721 3.43105C12.9335 2.98358 12.411 2.62689 11.8345 2.38135C11.2581 2.13581 10.6389 2.00623 10.0123 2H9.98732C8.72217 2.0125 7.5138 2.52702 6.628 3.43041C5.7422 4.33379 5.25151 5.55204 5.26388 6.81719V6.81875C5.26005 6.93746 5.2679 7.05626 5.28732 7.17344C5.31884 7.56699 5.39806 7.95525 5.52326 8.32969C6.46857 11.7313 9.98732 16.1719 9.98732 16.1719ZM9.99982 4.87812C10.3728 4.87812 10.7374 4.98873 11.0476 5.19596C11.3577 5.40319 11.5995 5.69774 11.7422 6.04235C11.8849 6.38696 11.9223 6.76616 11.8495 7.13199C11.7767 7.49783 11.5971 7.83387 11.3334 8.09762C11.0696 8.36138 10.7336 8.54099 10.3677 8.61376C10.0019 8.68653 9.62271 8.64918 9.2781 8.50644C8.93349 8.3637 8.63895 8.12197 8.43172 7.81183C8.22449 7.50169 8.11388 7.13707 8.11388 6.76406C8.11421 6.26398 8.31301 5.78448 8.66662 5.43087C9.02024 5.07726 9.49974 4.87846 9.99982 4.87812Z" fill="#788E9B"/>
</svg>
