<svg width="76" height="76" viewBox="0 0 76 76" fill="none" xmlns="http://www.w3.org/2000/svg">
<rect width="76" height="76" rx="38" fill="#F8FCFD"/>
<path d="M42.2721 54.0811H34.7307L35.7738 62.174C35.9084 63.2183 36.7974 64.0001 37.8503 64.0001H39.1526C40.2054 64.0001 41.0944 63.2183 41.229 62.174L42.2721 54.0811Z" fill="#F80000"/>
<path d="M35.617 60.9575C36.5503 61.1667 37.5174 61.2748 38.5014 61.2748C39.4855 61.2748 40.4526 61.1668 41.3858 60.9575L42.2721 54.0811H34.7307L35.617 60.9575Z" fill="#F80000"/>
<path d="M38.499 58.1962C43.3784 58.1962 47.334 54.7407 47.334 50.478C47.334 46.2153 43.3784 42.7598 38.499 42.7598C33.6196 42.7598 29.6641 46.2153 29.6641 50.478C29.6641 54.7407 33.6196 58.1962 38.499 58.1962Z" fill="#00AAE4"/>
<path d="M55.9575 24.556C55.9575 24.5479 55.9581 24.54 55.9581 24.532C55.9581 18.1631 50.7951 13 44.4261 13C43.1949 13 42.009 13.1933 40.8967 13.5509C39.4716 14.0092 38.5016 15.3302 38.5016 16.8272C38.5016 15.3302 37.5316 14.0091 36.1065 13.5509C34.9941 13.1933 33.8082 13 32.577 13C26.2081 13 21.045 18.1631 21.045 24.532C21.045 24.54 21.0456 24.5479 21.0456 24.556C16.8038 26.7493 13.9023 31.1736 13.9023 36.2784C13.9023 43.1053 19.0882 48.7209 25.7355 49.4011C27.5497 52.0456 30.5926 53.7811 34.0418 53.7811C34.8096 53.7811 35.5569 53.6947 36.2752 53.5316C37.5757 53.236 38.5016 52.0844 38.5016 50.7509C38.5016 52.0844 39.4274 53.236 40.7279 53.5316C41.4462 53.6948 42.1937 53.7811 42.9614 53.7811C46.4106 53.7811 49.4535 52.0456 51.2676 49.4011C57.9149 48.7208 63.1008 43.1053 63.1008 36.2784C63.1008 31.1736 60.1994 26.7493 55.9575 24.556Z" fill="#EDA1AB"/>
<path d="M26.8261 34.8615C24.794 32.5786 24.4307 28.4485 24.8551 23.2782C24.1332 22.3834 23.4284 18.8127 26.1545 14.9531C23.073 17.0233 21.045 20.5408 21.045 24.5322C21.045 24.5402 21.0456 24.5481 21.0456 24.5562C16.8038 26.7495 13.9023 31.1738 13.9023 36.2786C13.9023 43.1055 19.0882 48.7211 25.7355 49.4012C27.5497 52.0458 30.5926 53.7813 34.0418 53.7813C34.8096 53.7813 35.5569 53.6949 36.2752 53.5317C36.7079 53.4334 37.0977 53.2387 37.4271 52.9757C27.4151 51.9294 25.3142 40.0825 27.0201 36.2423C27.2254 35.7802 27.1622 35.2392 26.8261 34.8615Z" fill="#E8899E"/>
<path d="M40.8172 24.1597V20.7568C40.8172 20.4176 40.5421 20.1426 40.203 20.1426H36.8001C36.4608 20.1426 36.1859 20.4176 36.1859 20.7568V24.1596C36.1859 24.4988 35.9109 24.7738 35.5717 24.7738H32.1689C31.8297 24.7738 31.5547 25.0488 31.5547 25.388V28.7909C31.5547 29.13 31.8297 29.4051 32.1689 29.4051H35.5717C35.9109 29.4051 36.1859 29.6801 36.1859 30.0192V33.4221C36.1859 33.7613 36.4609 34.0363 36.8001 34.0363H40.203C40.5421 34.0363 40.8172 33.7613 40.8172 33.4221V30.0192C40.8172 29.68 41.0922 29.4051 41.4314 29.4051H44.8342C45.1735 29.4051 45.4484 29.13 45.4484 28.7909V25.388C45.4484 25.0488 45.1734 24.7738 44.8342 24.7738H41.4314C41.0922 24.7739 40.8172 24.4989 40.8172 24.1597Z" fill="white"/>
<path d="M30.4588 43.5736C32.0977 43.5736 33.4263 42.5156 33.4263 41.2104C33.4263 39.9052 32.0977 38.8472 30.4588 38.8472C28.8198 38.8472 27.4912 39.9052 27.4912 41.2104C27.4912 42.5156 28.8198 43.5736 30.4588 43.5736Z" fill="white"/>
<path d="M46.544 43.5736C48.1829 43.5736 49.5115 42.5156 49.5115 41.2104C49.5115 39.9052 48.1829 38.8472 46.544 38.8472C44.905 38.8472 43.5764 39.9052 43.5764 41.2104C43.5764 42.5156 44.905 43.5736 46.544 43.5736Z" fill="white"/>
<path d="M33.5994 39.3857C33.1868 39.3857 32.8524 39.0512 32.8524 38.6386C32.8524 38.2717 32.5539 37.9731 32.187 37.9731C31.82 37.9731 31.5215 38.2717 31.5215 38.6386C31.5215 39.0512 31.1871 39.3857 30.7744 39.3857C30.3617 39.3857 30.0273 39.0512 30.0273 38.6386C30.0273 37.4479 30.9961 36.479 32.187 36.479C33.3777 36.479 34.3465 37.4478 34.3465 38.6386C34.3465 39.0512 34.012 39.3857 33.5994 39.3857Z" fill="#4E5660"/>
<path d="M46.2244 39.3857C45.8118 39.3857 45.4774 39.0512 45.4774 38.6386C45.4774 38.2717 45.1788 37.9731 44.8119 37.9731C44.4449 37.9731 44.1465 38.2717 44.1465 38.6386C44.1465 39.0512 43.8121 39.3857 43.3994 39.3857C42.9867 39.3857 42.6523 39.0512 42.6523 38.6386C42.6523 37.4479 43.6211 36.479 44.8119 36.479C46.0027 36.479 46.9715 37.4478 46.9715 38.6386C46.9715 39.0512 46.637 39.3857 46.2244 39.3857Z" fill="#4E5660"/>
<path d="M38.5 41.7192C37.7098 41.7192 36.9584 41.377 36.4385 40.7803C36.1674 40.4694 36.1999 39.9974 36.5109 39.7264C36.8219 39.4553 37.2937 39.4876 37.565 39.7988C37.8011 40.0697 38.1419 40.2251 38.5001 40.2251C38.8583 40.2251 39.1992 40.0697 39.4352 39.7988C39.7062 39.4876 40.1781 39.4553 40.4893 39.7264C40.8003 39.9974 40.8328 40.4694 40.5617 40.7803C40.0417 41.377 39.2902 41.7192 38.5 41.7192Z" fill="#4E5660"/>
<path d="M21.0486 25.3032C20.7781 25.3032 20.5172 25.1559 20.3844 24.8991C20.1949 24.5327 20.3384 24.0818 20.7049 23.8924C22.6979 22.8618 24.8485 22.3394 27.0967 22.3394C27.5094 22.3394 27.8438 22.6738 27.8438 23.0864C27.8438 23.499 27.5094 23.8335 27.0967 23.8335C25.0896 23.8335 23.1699 24.2999 21.3911 25.2196C21.2815 25.2763 21.1641 25.3032 21.0486 25.3032Z" fill="#EDA1AB"/>
<path d="M25.7385 50.1481C25.5005 50.1481 25.2666 50.0347 25.1219 49.8236C23.8841 48.0194 23.23 45.9067 23.23 43.7139C23.23 43.3013 23.5644 42.9668 23.9771 42.9668C24.3897 42.9668 24.7241 43.3013 24.7241 43.7139C24.7241 45.6036 25.2877 47.424 26.3539 48.9783C26.5873 49.3186 26.5008 49.7837 26.1605 50.0169C26.0313 50.1056 25.8842 50.1481 25.7385 50.1481Z" fill="#EDA1AB"/>
<path d="M55.9593 25.3031C55.8438 25.3031 55.7265 25.2762 55.6168 25.2196C53.8379 24.2998 51.9183 23.8335 49.9111 23.8335C49.4986 23.8335 49.1641 23.499 49.1641 23.0864C49.1641 22.6738 49.4986 22.3394 49.9111 22.3394C52.1594 22.3394 54.31 22.8619 56.303 23.8924C56.6695 24.0818 56.813 24.5327 56.6235 24.8991C56.4907 25.1558 56.2298 25.3031 55.9593 25.3031Z" fill="#E8899E"/>
<path d="M51.2698 50.148C51.1242 50.148 50.9771 50.1056 50.848 50.0169C50.5077 49.7836 50.4211 49.3186 50.6545 48.9783C51.7207 47.424 52.2843 45.6036 52.2843 43.7139C52.2843 43.3013 52.6187 42.9668 53.0314 42.9668C53.4441 42.9668 53.7785 43.3013 53.7785 43.7139C53.7785 45.9066 53.1243 48.0193 51.8866 49.8236C51.7419 50.0345 51.5079 50.148 51.2698 50.148Z" fill="#E8899E"/>
<path d="M21.2745 34.7887C21.0832 34.7887 20.8921 34.7158 20.7462 34.5699C20.4544 34.2781 20.4544 33.8052 20.7461 33.5134C21.961 32.2985 23.5763 31.6294 25.2946 31.6294C25.7073 31.6294 26.0417 31.9639 26.0417 32.3765C26.0417 32.789 25.7073 33.1235 25.2946 33.1235C23.9755 33.1235 22.7354 33.6372 21.8027 34.57C21.6569 34.7158 21.4656 34.7887 21.2745 34.7887Z" fill="#EDA1AB"/>
<path d="M55.7334 34.7883C55.5421 34.7883 55.351 34.7154 55.205 34.5695C54.2724 33.6367 53.0323 33.123 51.7131 33.123C51.3005 33.123 50.9661 32.7886 50.9661 32.376C50.9661 31.9634 51.3005 31.6289 51.7131 31.6289C53.4314 31.6289 55.0468 32.298 56.2616 33.5129C56.5534 33.8047 56.5534 34.2777 56.2615 34.5694C56.1158 34.7154 55.9245 34.7883 55.7334 34.7883Z" fill="#E8899E"/>
<path d="M38.5057 51.498C38.0931 51.498 37.7587 51.1636 37.7587 50.751V46.5576C37.7587 46.145 38.0931 45.8105 38.5057 45.8105C38.9184 45.8105 39.2528 46.145 39.2528 46.5576V50.751C39.2528 51.1636 38.9184 51.498 38.5057 51.498Z" fill="#E8899E"/>
</svg>
