<svg width="76" height="76" viewBox="0 0 76 76" fill="none" xmlns="http://www.w3.org/2000/svg">
<rect width="76" height="76" rx="38" fill="#F8FCFD"/>
<path d="M35.6241 44.2386C35.6241 42.1955 35.8745 40.5684 36.3753 39.3572C36.876 38.146 37.7891 36.9567 39.1146 35.7892C40.4549 34.6072 41.3459 33.6514 41.7878 32.9217C42.2296 32.1775 42.4505 31.3968 42.4505 30.5796C42.4505 28.1134 41.3017 26.8803 39.0042 26.8803C37.9143 26.8803 37.038 27.2159 36.3753 27.8872C35.7272 28.5438 35.3885 29.4559 35.359 30.6233H28.9524C28.9818 27.8361 29.8876 25.6544 31.6697 24.0784C33.4665 22.5024 35.9113 21.7144 39.0042 21.7144C42.1265 21.7144 44.5492 22.4659 46.2724 23.969C47.9956 25.4574 48.8572 27.5661 48.8572 30.295C48.8572 31.5354 48.5773 32.7101 48.0177 33.8192C47.458 34.9137 46.4786 36.1322 45.0794 37.4747L43.29 39.1602C42.1707 40.2255 41.53 41.4732 41.368 42.9033L41.2796 44.2386H35.6241ZM34.9835 50.9586C34.9835 49.9809 35.3148 49.1783 35.9776 48.5508C36.6551 47.9087 37.5167 47.5876 38.5624 47.5876C39.608 47.5876 40.4622 47.9087 41.125 48.5508C41.8025 49.1783 42.1412 49.9809 42.1412 50.9586C42.1412 51.9217 41.8099 52.717 41.1471 53.3445C40.4991 53.972 39.6375 54.2858 38.5624 54.2858C37.4872 54.2858 36.6183 53.972 35.9555 53.3445C35.3075 52.717 34.9835 51.9217 34.9835 50.9586Z" fill="#0387D1"/>
</svg>
