<svg width="20" height="20" viewBox="0 0 20 20" fill="none" xmlns="http://www.w3.org/2000/svg">
<path d="M15.4666 13.004C15.1098 12.7048 13.0176 11.3799 12.6698 11.4407C12.5066 11.4697 12.3817 11.6089 12.0474 12.0077C11.8928 12.204 11.723 12.3878 11.5396 12.5575C11.2036 12.4763 10.8784 12.3558 10.5707 12.1983C9.36384 11.6107 8.38888 10.6355 7.80168 9.4285C7.64423 9.12077 7.52367 8.79553 7.4425 8.45952C7.61219 8.27613 7.79602 8.10636 7.9923 7.95177C8.39066 7.61748 8.53026 7.4934 8.55924 7.32932C8.62005 6.98075 7.29393 4.88932 6.99597 4.53258C6.87107 4.38483 6.7576 4.28564 6.6123 4.28564C6.19107 4.28564 4.28577 6.64156 4.28577 6.94687C4.28577 6.97177 4.32658 9.42442 7.42413 12.5758C10.5756 15.6734 13.0282 15.7142 13.0531 15.7142C13.3584 15.7142 15.7143 13.8089 15.7143 13.3877C15.7143 13.2424 15.6152 13.1289 15.4666 13.004Z" fill="#788E9B"/>
<path d="M12.8558 9.59148H13.6722C13.6712 8.72576 13.3269 7.89579 12.7147 7.28363C12.1026 6.67148 11.2726 6.32714 10.4069 6.32617V7.1425C11.0562 7.14315 11.6787 7.40137 12.1378 7.8605C12.597 8.31964 12.8552 8.94217 12.8558 9.59148Z" fill="#788E9B"/>
<path d="M14.8967 9.59177H15.713C15.7114 8.18499 15.1518 6.8363 14.1571 5.84156C13.1623 4.84682 11.8136 4.28726 10.4069 4.28564V5.10197C11.5972 5.10338 12.7384 5.57686 13.5801 6.41855C14.4218 7.26025 14.8953 8.40143 14.8967 9.59177Z" fill="#788E9B"/>
</svg>
