<svg width="76" height="76" viewBox="0 0 76 76" fill="none" xmlns="http://www.w3.org/2000/svg">
<rect width="76" height="76" rx="38" fill="#F8FCFD"/>
<g clip-path="url(#clip0_161_2995)">
<path d="M30.1671 25.1096L31.5325 29.1356C32.5656 28.7259 35.8865 28.0582 39.937 29.1928C44.0549 30.3465 46.3031 32.6441 46.9603 33.5289L51.0847 26.4578C49.8813 25.301 45.7556 21.6256 39.2834 21.0524C34.4313 20.6229 31.7628 21.8929 30.3578 23.8127C30.0847 24.1855 30.0189 24.6718 30.1671 25.1096Z" fill="#F80000"/>
<path d="M49.5584 41.3931C49.5584 41.8422 49.5362 42.2873 49.4911 42.725C49.4343 43.295 49.3405 43.8546 49.2133 44.4009C48.8592 45.9226 48.2401 47.3428 47.4098 48.6117C46.9853 49.2596 46.5059 49.8665 45.9775 50.4284C43.5756 52.9813 40.1675 54.5758 36.3866 54.5758C30.3571 54.5758 25.2732 50.5206 23.7105 44.9865C23.5043 44.2546 23.3592 43.497 23.2814 42.7196C23.2374 42.283 23.2152 41.8414 23.2152 41.3931C23.2152 39.9753 23.4389 38.6099 23.8533 37.3305C24.0288 36.7878 24.2382 36.2609 24.4798 35.7516C25.4016 33.8045 26.7868 32.1205 28.4926 30.8404C28.9132 30.5248 29.3525 30.2334 29.8097 29.9703C31.7454 28.8509 33.9917 28.2104 36.387 28.2104C41.7795 28.2104 46.4156 31.4544 48.4537 36.0998C48.6638 36.5796 48.8467 37.0737 48.9981 37.5819C49.3627 38.7885 49.5584 40.0679 49.5584 41.3931Z" fill="#00AAE4"/>
<path d="M32.2503 29.9703C31.4651 29.9703 30.6955 30.0396 29.9484 30.1711C29.7107 30.2131 29.4753 30.2618 29.2422 30.3163C29.3293 30.2594 29.4177 30.2038 29.506 30.1501C29.5196 30.1408 29.5332 30.1322 29.5469 30.1248C29.6328 30.0723 29.7192 30.0205 29.8064 29.9703C31.7425 28.8509 33.9884 28.2104 36.3837 28.2104C41.7766 28.2104 46.4128 31.4544 48.4505 36.0998C46.9793 36.6068 45.4458 36.8963 43.882 36.9636C41.6673 32.8022 37.2888 29.9703 32.2503 29.9703Z" fill="#0387D1"/>
<path d="M42.7023 51.1768C43.8108 51.0106 44.9038 50.7604 45.9761 50.4277C44.2326 52.2814 41.9567 53.63 39.3945 54.2296C40.291 53.6491 41.1132 52.9631 41.8423 52.1876C42.1462 51.8658 42.433 51.5281 42.7023 51.1768Z" fill="#0387D1"/>
<path d="M49.2099 44.4004C48.8558 45.9225 48.2368 47.3428 47.4065 48.6112C47.2006 48.4673 46.9294 48.4233 46.6773 48.519C45.7606 48.8649 44.8263 49.1439 43.875 49.354C44.4069 48.3591 44.8135 47.2879 45.0765 46.1603C45.1396 45.891 45.1933 45.6198 45.2396 45.344C46.5878 45.1451 47.9142 44.8307 49.2099 44.4004Z" fill="#0387D1"/>
<path d="M49.5559 41.3928C49.5559 41.8418 49.5337 42.2869 49.4886 42.7247C49.3699 42.7079 49.2446 42.7192 49.1236 42.7624C47.9139 43.1904 46.6719 43.5103 45.4092 43.7196C45.4178 43.5313 45.4221 43.3422 45.4221 43.1527C45.4221 41.8274 45.2264 40.548 44.8618 39.3414C44.7766 39.0574 44.682 38.7769 44.5781 38.501C46.0874 38.3831 47.5684 38.0761 48.9956 37.5815C49.3602 38.7881 49.5559 40.0675 49.5559 41.3928Z" fill="#0387D1"/>
<path d="M63.112 56.1535H28.6234C28.188 56.1535 27.8351 55.8002 27.8351 55.3644C27.8351 54.9286 28.188 54.5757 28.6234 54.5757H63.112C63.5474 54.5757 63.9003 54.9286 63.9003 55.3644C63.9003 55.8002 63.5474 56.1535 63.112 56.1535Z" fill="#CC0606"/>
<path d="M48.9999 37.5817C47.5727 38.0762 46.0917 38.3832 44.5824 38.5011C44.5015 38.2844 44.4143 38.0712 44.3217 37.8595C44.1883 37.5545 44.0431 37.2556 43.8867 36.9634C45.4505 36.8961 46.9839 36.6066 48.4555 36.0996C48.6656 36.5794 48.8485 37.0735 48.9999 37.5817Z" fill="#036297"/>
<path d="M44.5793 38.5012C44.1116 38.539 43.6408 38.5572 43.1688 38.5572C37.3094 38.5572 31.8231 35.6717 28.4912 30.8402C28.8181 30.5939 29.1573 30.3636 29.5075 30.15C29.5212 30.1406 29.5348 30.1321 29.5484 30.1247C29.6348 30.0722 29.7208 30.0208 29.8079 29.9702C29.8542 30.0375 29.9017 30.1048 29.9499 30.171C33.0001 34.4398 37.921 36.9794 43.1688 36.9794C43.4073 36.9794 43.6458 36.974 43.8836 36.9635C44.04 37.2561 44.1851 37.5545 44.3186 37.86C44.4112 38.0713 44.4983 38.2845 44.5793 38.5012Z" fill="#0387D1"/>
<path d="M49.4908 42.7248C49.434 43.2949 49.3402 43.8544 49.213 44.4003C47.9172 44.8307 46.5908 45.145 45.2422 45.3439C45.2897 45.061 45.3286 44.7738 45.357 44.4847C45.383 44.2322 45.4009 43.9766 45.4114 43.7198C46.6737 43.5104 47.9161 43.1906 49.1258 42.7626C49.2468 42.7194 49.3721 42.7077 49.4908 42.7248Z" fill="#036297"/>
<path d="M45.4109 43.7198C45.4 43.9767 45.3824 44.2323 45.356 44.4844C45.3276 44.7739 45.2887 45.0611 45.2416 45.3439C44.1019 45.5113 42.9471 45.5965 41.7813 45.5965C34.8562 45.5965 28.3473 42.5899 23.8521 37.3304C24.0275 36.7876 24.2369 36.2604 24.4785 35.7515C24.589 35.7985 24.6898 35.8733 24.7719 35.9725C28.9749 41.0856 35.1748 44.0187 41.7813 44.0187C43.0047 44.0187 44.2179 43.9198 45.4109 43.7198Z" fill="#0387D1"/>
<path d="M57.8757 52.1491L46.7109 33.1135L51.079 26.458C51.856 27.0903 53.2525 28.3996 54.2089 30.5284C55.0295 32.3548 55.1929 34.0439 55.1832 35.1964C55.1773 35.8641 55.3046 36.5267 55.5629 37.1423C57.8843 42.6729 59.3088 46.0671 61.7442 51.8697L59.7718 52.2767L57.8757 52.1491Z" fill="#F80000"/>
<path d="M47.4097 48.6114C46.9852 49.2596 46.5058 49.8666 45.9774 50.4281C44.905 50.7608 43.8121 51.011 42.7031 51.1771C42.9039 50.9164 43.0953 50.6479 43.2763 50.3713C43.4914 50.0421 43.6922 49.7036 43.8782 49.3542C44.8296 49.1441 45.7638 48.8651 46.6805 48.5192C46.9326 48.4235 47.2038 48.4674 47.4097 48.6114Z" fill="#036297"/>
<path d="M43.875 49.3538C43.6891 49.7032 43.4883 50.0417 43.2731 50.3709C43.0922 50.6476 42.9007 50.9161 42.7 51.1767C41.6039 51.3409 40.4918 51.4242 39.3685 51.4242C33.5005 51.4242 27.8636 49.0931 23.7069 44.9862C23.501 44.2543 23.3559 43.4967 23.2781 42.7193C23.3108 42.7142 23.3442 42.7119 23.3792 42.7119C23.6228 42.7119 23.8403 42.8224 23.9855 42.996C27.9099 47.35 33.5153 49.846 39.3685 49.846C40.8977 49.846 42.405 49.6818 43.875 49.3538Z" fill="#0387D1"/>
<path d="M39.2813 21.0526C38.1961 20.9565 37.221 20.946 36.344 21.0082C36.5417 21.0203 36.7417 21.0343 36.9471 21.0526C39.8439 21.309 42.2708 22.1872 44.1758 23.1825C46.8812 24.5965 47.8559 27.9875 46.3174 30.6256L45.5536 31.9349C46.2505 32.6084 46.7143 33.2007 46.9582 33.5291L51.0827 26.458C49.8792 25.3012 45.7536 21.6257 39.2813 21.0526Z" fill="#CF0606"/>
<path d="M55.5638 37.143C55.305 36.5266 55.1778 35.864 55.1836 35.1959C55.193 34.0434 55.0295 32.3547 54.2089 30.5283C53.2529 28.3995 51.856 27.0902 51.079 26.4575L50.2109 27.9462C50.7732 28.617 51.3564 29.4715 51.8311 30.5283C52.6518 32.3543 52.8152 34.043 52.8054 35.1955C52.8 35.8636 52.9272 36.5266 53.1856 37.1426C55.3042 42.1904 56.6758 45.4584 58.7509 50.4023C59.0532 51.1229 58.5591 51.928 57.7793 51.984L57.8762 52.1486L61.7446 51.8696C59.3092 46.067 57.8847 42.6732 55.5638 37.143Z" fill="#CC0606"/>
<path d="M27.0756 28.4759L24.4512 28.2234C23.113 28.0946 22.1329 26.9059 22.2613 25.5678L22.3154 25.0048C22.4442 23.6667 23.6333 22.6861 24.9714 22.8145L27.5959 23.067C28.934 23.1958 29.9141 24.3845 29.7857 25.7227L29.7316 26.2857C29.6028 27.6242 28.4137 28.6047 27.0756 28.4759Z" fill="#FCD4C6"/>
<path d="M29.7301 26.2855L29.7838 25.7244C29.8612 24.9205 29.5382 24.1707 28.9787 23.6719L22.4528 26.7749C22.7952 27.5574 23.5391 28.136 24.4488 28.2236L26.2581 28.3975L29.3667 27.3504C29.5631 27.0388 29.6923 26.6777 29.7301 26.2855Z" fill="#F5C1B4"/>
<path d="M31.1647 24.3447L27.1792 26.4579L28.6235 30.0575L33.855 28.4544" fill="#CC0606"/>
<path d="M27.1804 26.458L13.1226 33.142C12.8156 33.2883 12.8324 33.7315 13.1495 33.854L14.5775 34.405C14.9207 34.5377 15.2996 34.5458 15.6487 34.4283L28.6251 30.0576L27.1804 26.458Z" fill="#FCD4C6"/>
<path d="M55.4336 54.5754L57.8783 52.149L61.7467 51.8696V54.5754H55.4336Z" fill="#CC0606"/>
</g>
<defs>
<clipPath id="clip0_161_2995">
<rect width="51" height="51" fill="white" transform="translate(13 13)"/>
</clipPath>
</defs>
</svg>
