<svg width="76" height="76" viewBox="0 0 76 76" fill="none" xmlns="http://www.w3.org/2000/svg">
<rect width="76" height="76" rx="38" fill="#F8FCFD"/>
<path d="M59.4885 27.1262C57.7574 23.2228 56.8383 19.0419 56.8383 14.8109V14.6521C56.8383 13.7397 56.0535 13 55.0854 13H21.9042C20.9361 13 20.1513 13.7397 20.1513 14.6521V14.8109C20.1513 19.0419 19.2323 23.2228 17.5012 27.1262C14.9568 32.8643 12.1732 44.3139 17.1693 62.7522C17.3681 63.4856 18.0661 64 18.8688 64H36.0355C36.6604 64 37.167 63.4934 37.167 62.8685V49.343C37.167 48.596 37.7728 47.9901 38.5199 47.9901C39.267 47.9901 39.8728 48.596 39.8728 49.343V62.8685C39.8728 63.4934 40.3794 64 41.0043 64H58.1204C58.9231 64 59.6215 63.4856 59.82 62.7522C64.8164 44.3139 62.0328 32.8647 59.4885 27.1262Z" fill="#FFCDBE"/>
<path d="M20.8283 62.7522C15.8323 44.3139 18.6159 32.8643 21.1602 27.1262C22.8913 23.2228 23.8104 19.0419 23.8104 14.8109V14.6521C23.8104 13.7397 24.5952 13 25.5633 13H21.9042C20.9361 13 20.1513 13.7397 20.1513 14.6521V14.8109C20.1513 19.0415 19.2323 23.2224 17.5012 27.1262C14.9568 32.8643 12.1732 44.3139 17.1693 62.7522C17.3681 63.4852 18.0661 64 18.8688 64H22.5279C21.7252 64 21.0272 63.4856 20.8283 62.7522Z" fill="#F5C1B4"/>
<path d="M50.732 54.7561C44.4088 54.7561 39.2641 49.927 39.2641 43.9913C39.2641 43.5664 38.9198 43.2217 38.4945 43.2217C38.0696 43.2217 37.7248 43.5664 37.7248 43.9913C37.7248 49.927 32.5806 54.7561 26.2573 54.7561C25.832 54.7561 25.4877 55.1005 25.4877 55.5258C25.4877 55.951 25.832 56.2954 26.2573 56.2954C31.8825 56.2954 36.6848 52.8997 38.4945 48.1617C40.3046 52.8997 45.1068 56.2954 50.732 56.2954C51.1569 56.2954 51.5017 55.951 51.5017 55.5258C51.5017 55.1005 51.1573 54.7561 50.732 54.7561Z" fill="#F4C3B6"/>
<path d="M59.0777 26.157L48.4896 25.6586C41.8282 25.3449 35.1563 25.3449 28.4949 25.6586L17.9068 26.157C17.7757 26.4815 17.641 26.8052 17.4986 27.1258C17.0406 28.1585 16.5753 29.3776 16.1484 30.7877C26.4389 33.8036 35.2711 41.1622 37.78 43.3879C38.1866 43.7489 38.7979 43.7489 39.2045 43.3879C41.7134 41.1622 50.5456 33.8036 60.8361 30.7877C60.4092 29.3776 59.9439 28.1585 59.4859 27.1258C59.3435 26.8052 59.2089 26.4815 59.0777 26.157Z" fill="#F80000"/>
<path d="M21.6359 25.9819L17.9068 26.1574C17.6492 26.85 16.9204 28.2368 16.1488 30.7877C16.1488 30.7877 16.1488 30.7881 16.1484 30.7881C17.2799 31.1196 18.3939 31.5036 19.4834 31.9278C19.9916 30.0239 20.5807 28.4278 21.1577 27.1263C21.3258 26.7477 21.4838 26.3656 21.6359 25.9819Z" fill="#CC0606"/>
<path d="M45.2038 53.3617C49.0665 49.499 49.0665 43.2364 45.2038 39.3737C41.3411 35.511 35.0785 35.511 31.2158 39.3737C27.3531 43.2364 27.3531 49.499 31.2158 53.3617C35.0785 57.2244 41.3411 57.2244 45.2038 53.3617Z" fill="#00AAE4"/>
<path d="M40.1734 43.8956V41.0245C40.1734 40.7383 39.9414 40.5063 39.6551 40.5063H36.7841C36.4979 40.5063 36.2659 40.7383 36.2659 41.0245V43.8956C36.2659 44.1817 36.0339 44.4137 35.7477 44.4137H32.8767C32.5905 44.4137 32.3585 44.6457 32.3585 44.9319V47.8029C32.3585 48.0891 32.5905 48.3211 32.8767 48.3211H35.7477C36.0339 48.3211 36.2659 48.5531 36.2659 48.8393V51.7103C36.2659 51.9965 36.4979 52.2286 36.7841 52.2286H39.6551C39.9413 52.2286 40.1734 51.9966 40.1734 51.7103V48.8393C40.1734 48.5531 40.4054 48.3211 40.6915 48.3211H43.5626C43.8488 48.3211 44.0807 48.0891 44.0807 47.8029V44.9319C44.0807 44.6457 43.8488 44.4137 43.5626 44.4137H40.6915C40.4054 44.4137 40.1734 44.1817 40.1734 43.8956Z" fill="white"/>
</svg>
