<svg width="76" height="76" viewBox="0 0 76 76" fill="none" xmlns="http://www.w3.org/2000/svg">
<rect width="76" height="76" rx="38" fill="#F8FCFD"/>
<g clip-path="url(#clip0_161_3048)">
<path d="M23.2817 63.9607V47.5711C23.2817 45.5542 23.7433 43.564 24.6313 41.7531L30.5083 29.7669C31.517 27.7095 34.0603 26.941 36.0396 28.0956C37.8177 29.1329 38.4998 31.3628 37.6061 33.2172L31.6186 45.641L34.5994 63.999" fill="#EB9C8D"/>
<path d="M30.5087 29.7673L24.6315 41.7537C23.7431 43.5648 23.2817 45.5545 23.2817 47.5717V63.9612H27.8514V47.5716C27.8514 45.5544 28.3136 43.5647 29.201 41.7536L35.0782 29.7672C35.3789 29.1537 35.8162 28.6546 36.3342 28.2869C36.2397 28.219 36.1418 28.1555 36.0395 28.0962C34.0603 26.9416 31.5172 27.7097 30.5087 29.7673Z" fill="#D78878"/>
<path d="M50.2524 20.6628C49.0168 20.6628 48.0152 21.6645 48.0152 22.9V21.2184C48.0152 19.9829 47.0137 18.9813 45.7781 18.9813C44.5425 18.9813 43.5409 19.983 43.5409 21.2184V19.5369C43.5409 18.3013 42.5393 17.2997 41.3038 17.2997C40.0682 17.2997 39.0666 18.3014 39.0666 19.5369V20.6579C39.0666 19.4223 38.065 18.4208 36.8294 18.4208C35.5939 18.4208 34.5923 19.4224 34.5923 20.6579V17.2884C34.592 14.92 32.672 13 30.3035 13C27.9351 13 26.0151 14.92 26.0151 17.2884V30.9784L52.4895 30.0417V22.9C52.4895 21.6644 51.488 20.6628 50.2524 20.6628Z" fill="#FCD4C6"/>
<path d="M37.8682 18.6781C37.1563 19.0526 36.6721 19.798 36.6721 20.6578V27.7998H34.5903V20.6578C34.5903 19.4225 35.5925 18.4214 36.8279 18.4214C37.2034 18.4214 37.5576 18.5144 37.8682 18.6781Z" fill="#F5C1B4"/>
<path d="M42.3441 17.5565C41.6323 17.931 41.148 18.6765 41.148 19.5363V26.6782H39.0663V19.5363C39.0663 18.3009 40.0685 17.2998 41.3038 17.2998C41.6794 17.2999 42.0336 17.3929 42.3441 17.5565Z" fill="#F5C1B4"/>
<path d="M46.8174 19.2377C46.1055 19.6122 45.6213 20.3576 45.6213 21.2174V28.3594H43.5396V21.2174C43.5396 19.982 44.5417 18.981 45.7771 18.981C46.1527 18.9811 46.5069 19.0741 46.8174 19.2377Z" fill="#F5C1B4"/>
<path d="M51.2941 20.9193C50.5822 21.2938 50.098 22.0392 50.098 22.8991V30.041H48.0162V22.8991C48.0162 21.6637 49.0184 20.6626 50.2538 20.6626C50.6293 20.6627 50.9835 20.7557 51.2941 20.9193Z" fill="#F5C1B4"/>
<path d="M30.3052 13C30.9856 13 31.6291 13.158 32.2009 13.4406C31.7783 13.649 31.3949 13.926 31.0653 14.2555C30.2884 15.0324 29.8087 16.104 29.8087 17.2879V30.9789H26.0161V17.2879C26.0161 16.104 26.4959 15.0324 27.2728 14.2555C28.0486 13.4798 29.1214 13 30.3052 13V13Z" fill="#F5C1B4"/>
<path d="M44.7288 24.0151H33.404C28.4394 24.0151 24.4148 28.0398 24.4148 33.0043C24.4148 35.419 25.3675 37.6103 26.9171 39.2246C27.5154 39.8479 28.0432 40.5292 28.4986 41.255C29.3455 42.6047 31.8651 43.6756 32.1994 45.247L32.6143 49.7211C32.8079 50.6311 32.4528 52.3142 32.4528 53.2446C32.4528 59.376 36.4847 62.0414 42.6161 62.0414C45.9034 62.0414 48.857 62.5704 50.8898 60.3001C52.6486 58.3358 53.7181 55.7414 53.7181 52.8973V51.4978V51.0856L50.8894 43.713L53.7181 39.3092V33.0042C53.718 28.0398 49.6934 24.0151 44.7288 24.0151Z" fill="#FCD4C6"/>
<path d="M45.9721 63.4824C44.9139 63.8187 43.7861 63.9991 42.6157 63.9991C39.5498 63.9991 36.7752 62.7571 34.7664 60.7471C32.7565 58.7382 31.5143 55.9626 31.5143 52.8965C31.5143 51.966 32.8083 50.6299 32.6144 49.7208L31.6188 45.6412C31.2842 44.0697 29.3455 42.6042 28.4988 41.2546C28.0433 40.5285 27.5154 39.8469 26.917 39.2235C26.1423 38.4163 25.5168 37.4646 25.0852 36.4143C24.6536 35.3628 24.4148 34.2115 24.4148 33.0042C24.4148 28.0391 28.4393 24.0146 33.4043 24.0146H40.1159C35.1508 24.0146 31.1264 28.0391 31.1264 33.0042C31.1264 34.2115 31.3641 35.3628 31.7967 36.4143C32.2283 37.4647 32.8539 38.4164 33.6285 39.2235C35.3392 41.0059 36.4737 43.2625 36.9882 45.6795L37.9344 50.1287C38.1283 51.0379 38.2258 51.9661 38.2258 52.8965C38.2258 55.9625 39.469 58.7381 41.4779 60.7471C42.72 61.9903 44.2558 62.9398 45.9721 63.4824Z" fill="#F5C1B4"/>
<path d="M39.4791 48.1767C39.4791 49.6663 39.0093 51.046 38.2084 52.1749C37.9812 52.4946 37.7284 52.7948 37.4518 53.0714C36.1997 54.3235 34.4694 55.0987 32.5573 55.0987H31.7337C31.5909 54.3872 31.5158 53.6511 31.5158 52.8976C31.5158 51.9672 31.4181 51.0389 31.2249 50.1291L30.278 45.6797C29.9439 44.1078 29.3476 42.6047 28.5005 41.2549H32.5572C33.6613 41.2549 34.7058 41.514 35.631 41.9735C37.9113 43.1054 39.4791 45.4575 39.4791 48.1767Z" fill="#00AAE4"/>
<path d="M37.4518 53.0714C36.1997 54.3235 34.4694 55.0987 32.5573 55.0987H31.7337C31.5909 54.3872 31.5158 53.6511 31.5158 52.8976C31.5158 51.9672 31.4181 51.0389 31.2249 50.1291L30.278 45.6797C29.9439 44.1078 29.3476 42.6047 28.5005 41.2549H32.5572C33.6613 41.2549 34.7058 41.514 35.631 41.9735C36.2591 43.13 36.7145 44.3823 36.9901 45.6797L37.936 50.1291C38.0799 50.8024 38.1713 51.4872 38.2083 52.1749C37.9812 52.4947 37.7284 52.7949 37.4518 53.0714Z" fill="#0387D1"/>
<path d="M49.1484 33.5538C49.1484 34.9324 48.5902 36.1815 47.6865 37.0851C46.7829 37.9878 45.5348 38.547 44.1552 38.547H34.802C34.0525 38.547 33.3411 38.3815 32.7037 38.0854C30.994 37.2938 29.8087 35.5625 29.8087 33.5538C29.8087 32.1751 30.3669 30.9271 31.2706 30.0234C31.4402 29.8538 31.6223 29.6965 31.8145 29.5525C32.6483 28.9295 33.6814 28.5615 34.802 28.5615H44.1552C46.9135 28.5615 49.1484 30.7966 49.1484 33.5538Z" fill="#EDA1AB"/>
<path d="M29.8087 33.554C29.8087 32.1753 30.3669 30.9273 31.2706 30.0236C31.4402 29.854 31.6222 29.6967 31.8145 29.5527C31.3724 30.6157 31.1277 31.7815 31.1277 33.0039C31.1277 34.2119 31.3652 35.3633 31.798 36.414C32.0406 37.0051 32.346 37.5654 32.7037 38.0856C30.994 37.2941 29.8087 35.5628 29.8087 33.554Z" fill="#E8899E"/>
<path d="M50.8876 60.2997C50.7508 60.4528 50.6091 60.603 50.4641 60.7479C49.2223 61.9898 47.6863 62.9397 45.9705 63.4826C44.9115 63.8188 43.7837 63.9997 42.6139 63.9997C40.2668 63.9997 38.0894 63.2708 36.2965 62.028C36.2986 59.8145 37.2722 57.8283 38.8142 56.4744C40.1168 55.3292 41.8243 54.6353 43.6944 54.6353C45.7372 54.6353 47.5866 55.4629 48.9251 56.8024C49.873 57.7491 50.5649 58.9529 50.8876 60.2997Z" fill="#EDA1AB"/>
<path d="M45.9705 63.4828C44.9115 63.819 43.7837 63.9999 42.6139 63.9999C40.2668 63.9999 38.0894 63.271 36.2965 62.0282C36.2986 59.8147 37.2722 57.8285 38.8142 56.4746C39.3663 58.101 40.2874 59.5588 41.4759 60.7472C42.7178 61.9911 44.2536 62.94 45.9705 63.4828Z" fill="#E8899E"/>
<path d="M53.7189 39.3091V51.0854H51.1509C47.8992 51.0854 45.2622 48.4494 45.2622 45.1967C45.2622 43.5703 45.9212 42.0992 46.9873 41.0331C48.0534 39.968 49.5256 39.3091 51.151 39.3091H53.7189Z" fill="#F80000"/>
<path d="M30.7727 55.4768L33.2069 47.8749L33.283 47.6372C33.5373 46.8432 34.0798 46.2224 34.7576 45.8514C35.6748 45.2603 36.8395 45.0689 37.9599 45.4277C39.9482 46.0644 41.0439 48.1923 40.4073 50.1807L38.8773 54.9586C40.2766 56.3037 40.8737 58.375 40.2418 60.3483C39.3573 63.1107 36.4008 64.633 33.6384 63.7484L25.2583 61.0649" fill="#EB9C8D"/>
<path d="M34.7594 45.8521C34.0816 46.2224 33.5386 46.8435 33.2843 47.6373L33.2087 47.8753L30.7739 55.4769C32.0306 55.9872 33.4559 55.3204 33.8696 54.0286L35.537 48.8212L35.6135 48.5833C35.8678 47.7894 36.4099 47.1691 37.0877 46.798C37.7398 46.3779 38.5182 46.1597 39.3154 46.1975C38.9339 45.8591 38.4777 45.5927 37.9614 45.4278C36.8411 45.0694 35.6761 45.2611 34.7594 45.8521Z" fill="#D78878"/>
<path d="M40.4669 58.2631C39.1317 59.8075 36.9567 60.4921 34.889 59.8301L25.856 56.9375L25.2544 63.9611H34.6018C37.0565 64.2626 39.4567 62.7899 40.2384 60.3486C40.4612 59.6532 40.5304 58.9465 40.4669 58.2631Z" fill="#D78878"/>
</g>
<defs>
<clipPath id="clip0_161_3048">
<rect width="51" height="51" fill="white" transform="translate(13 13)"/>
</clipPath>
</defs>
</svg>
