<svg width="42" height="42" viewBox="0 0 42 42" fill="none" xmlns="http://www.w3.org/2000/svg">
<path d="M21 42C32.598 42 42 32.598 42 21C42 9.40202 32.598 0 21 0C9.40202 0 0 9.40202 0 21C0 32.598 9.40202 42 21 42Z" fill="#039BE5"/>
<path d="M8.58652 19.5205L28.834 11.7137C29.7738 11.3742 30.5945 11.943 30.29 13.364L30.2918 13.3622L26.8443 29.604C26.5888 30.7555 25.9045 31.0355 24.9473 30.493L19.6973 26.6237L17.165 29.0632C16.885 29.3432 16.6488 29.5795 16.1063 29.5795L16.479 24.2367L26.209 15.4465C26.6325 15.0737 26.1145 14.8637 25.5563 15.2347L13.532 22.8052L8.34852 21.1882C7.22327 20.8312 7.19877 20.063 8.58652 19.5205Z" fill="white"/>
</svg>
