<svg width="76" height="76" viewBox="0 0 76 76" fill="none" xmlns="http://www.w3.org/2000/svg">
<rect width="76" height="76" rx="38" fill="#F8FCFD"/>
<g clip-path="url(#clip0_161_3175)">
<path d="M45.1882 14C41.9767 14 39.7399 15.5496 38.4646 16.7855C37.1893 15.5496 34.9525 14 31.741 14C27.133 14 23.5232 18.0436 23.5232 23.079C23.5232 28.5142 27.6919 32.1226 34.0011 37.5841C37.2538 40.3977 37.6113 40.7471 38.4646 41.499C39.2187 40.8345 39.7373 40.3441 42.9281 37.5841C49.2373 32.1227 53.406 28.5143 53.406 23.079C53.406 18.0436 49.7962 14 45.1882 14V14Z" fill="#CC0606"/>
<path d="M42.9281 37.5842C49.2373 32.1227 53.406 28.5143 53.406 23.079C53.406 18.0436 49.7962 14 45.1882 14C41.9767 14 39.7399 15.5496 38.4646 16.7855V41.499C39.2186 40.8347 39.7373 40.3441 42.9281 37.5842Z" fill="#F80000"/>
<path d="M53.8975 43.5104C52.1624 41.7996 49.2893 42.0184 47.5274 43.7015L40.0102 50.782C39.5497 51.2431 39.0202 51.6089 38.4649 51.9292C37.3491 52.5726 36.0844 52.9473 34.7515 52.9473H34.7296H23.5235V49.959H34.7296H34.7515C36.213 49.959 37.5231 49.2068 38.4649 48.0742C39.3893 46.9625 39.9591 45.4846 39.9591 43.9824H38.4649H22.8319C21.5304 43.9824 20.2464 44.3239 19.1316 44.963C19.1316 44.963 4.26707 51.23 4.00009 53.3602C3.5959 56.586 9.46937 64.3341 11.6926 65C13.6901 65 20.9789 58.9238 20.9789 58.9238H37.2262C37.6469 58.9238 38.058 58.8705 38.465 58.8029C39.988 58.5497 41.3937 57.8512 42.498 56.7469L55.0001 44.6128C55.0001 44.6128 53.9091 43.5217 53.8975 43.5104Z" fill="#F5C1B4"/>
<path d="M39.9587 43.9824H38.4646V48.0742C39.389 46.9625 39.9587 45.4846 39.9587 43.9824Z" fill="#FFD3BD"/>
<path d="M54.9998 44.6128C54.9998 44.6128 53.9087 43.5217 53.8972 43.5104C52.1621 41.7996 49.2889 42.0184 47.5271 43.7015L40.0098 50.782C39.5493 51.2431 39.0198 51.6089 38.4646 51.9292V58.8029C39.9875 58.5497 41.3932 57.8512 42.4976 56.7469L54.9998 44.6128Z" fill="#FFD3BD"/>
<path d="M39.7002 29.0293V27.5303C39.7002 27.3809 39.5791 27.2598 39.4297 27.2598H37.9308C37.7813 27.2598 37.6602 27.3809 37.6602 27.5303V29.0292C37.6602 29.1786 37.5391 29.2998 37.3897 29.2998H35.8908C35.7414 29.2998 35.6202 29.4209 35.6202 29.5703V31.0692C35.6202 31.2186 35.7414 31.3398 35.8908 31.3398H37.3897C37.5391 31.3398 37.6602 31.4609 37.6602 31.6103V33.1092C37.6602 33.2586 37.7814 33.3798 37.9308 33.3798H39.4297C39.5791 33.3798 39.7002 33.2586 39.7002 33.1092V31.6103C39.7002 31.4609 39.8214 31.3398 39.9708 31.3398H41.4697C41.6191 31.3398 41.7402 31.2186 41.7402 31.0692V29.5703C41.7402 29.4209 41.6191 29.2998 41.4697 29.2998H39.9708C39.8214 29.2998 39.7002 29.1787 39.7002 29.0293Z" fill="#FEE1E1"/>
<path d="M39.6988 29.0293V27.5303C39.6988 27.3809 39.5776 27.2598 39.4282 27.2598L38.6788 27.2598V33.3798L39.4282 33.3798C39.5776 33.3798 39.6988 33.2586 39.6988 33.1092V31.6103C39.6988 31.4609 39.8199 31.3398 39.9693 31.3398H41.4682C41.6177 31.3398 41.7388 31.2186 41.7388 31.0692V29.5703C41.7388 29.4209 41.6176 29.2998 41.4682 29.2998H39.9693C39.8199 29.2998 39.6988 29.1787 39.6988 29.0293Z" fill="white"/>
<path d="M34.1829 26.0353C35.0783 26.0353 35.8042 25.4573 35.8042 24.7442C35.8042 24.0312 35.0783 23.4531 34.1829 23.4531C33.2875 23.4531 32.5616 24.0312 32.5616 24.7442C32.5616 25.4573 33.2875 26.0353 34.1829 26.0353Z" fill="#FEE1E1"/>
<path d="M42.972 26.0353C43.8674 26.0353 44.5932 25.4573 44.5932 24.7442C44.5932 24.0312 43.8674 23.4531 42.972 23.4531C42.0766 23.4531 41.3507 24.0312 41.3507 24.7442C41.3507 25.4573 42.0766 26.0353 42.972 26.0353Z" fill="#FEFFFF"/>
<path d="M35.8999 23.7477C35.6744 23.7477 35.4918 23.5649 35.4918 23.3395C35.4918 23.1391 35.3287 22.976 35.1282 22.976C34.9277 22.976 34.7647 23.1391 34.7647 23.3395C34.7647 23.5649 34.582 23.7477 34.3565 23.7477C34.1311 23.7477 33.9484 23.5649 33.9484 23.3395C33.9484 22.689 34.4776 22.1597 35.1282 22.1597C35.7788 22.1597 36.308 22.689 36.308 23.3395C36.308 23.5649 36.1253 23.7477 35.8999 23.7477Z" fill="#4E5660"/>
<path d="M42.7983 23.7477C42.5729 23.7477 42.3902 23.5649 42.3902 23.3395C42.3902 23.1391 42.2271 22.976 42.0266 22.976C41.8261 22.976 41.6631 23.1391 41.6631 23.3395C41.6631 23.5649 41.4804 23.7477 41.2549 23.7477C41.0295 23.7477 40.8468 23.5649 40.8468 23.3395C40.8468 22.689 41.3761 22.1597 42.0266 22.1597C42.6772 22.1597 43.2065 22.689 43.2065 23.3395C43.2065 23.5649 43.0237 23.7477 42.7983 23.7477Z" fill="#4E5660"/>
<path d="M38.5772 25.0227C38.1455 25.0227 37.7349 24.8357 37.4509 24.5098C37.3028 24.3399 37.3206 24.082 37.4905 23.934C37.6604 23.7859 37.9182 23.8035 38.0663 23.9735C38.1953 24.1215 38.3815 24.2064 38.5772 24.2064C38.7729 24.2064 38.9591 24.1215 39.0881 23.9735C39.2361 23.8035 39.494 23.7859 39.664 23.934C39.8339 24.082 39.8516 24.3399 39.7035 24.5098C39.4194 24.8357 39.0089 25.0227 38.5772 25.0227Z" fill="#4E5660"/>
</g>
<defs>
<clipPath id="clip0_161_3175">
<rect width="51" height="51" fill="white" transform="translate(4 14)"/>
</clipPath>
</defs>
</svg>
