<svg width="76" height="76" viewBox="0 0 76 76" fill="none" xmlns="http://www.w3.org/2000/svg">
<rect width="76" height="76" rx="38" fill="#F8FCFD"/>
<g clip-path="url(#clip0_161_3273)">
<path d="M54.9068 60.7744H21.8359C17.5082 60.7744 14 57.2662 14 52.9385V31.3488C14 29.7733 15.2772 28.4961 16.8527 28.4961H59.8898C61.4654 28.4961 62.7426 29.7733 62.7426 31.3488V52.9385C62.7427 57.2662 59.2344 60.7744 54.9068 60.7744Z" fill="#FCF2D0"/>
<path d="M16.8527 28.4961C15.2772 28.4961 14 29.7733 14 31.3488V52.9385C14 57.2662 17.5082 60.7744 21.8359 60.7744H30.7182C24.6411 56.2302 21.2918 44.2204 22.9488 28.4961H16.8527Z" fill="#FAE0BD"/>
<path d="M62.7426 33.6397H14V31.3488C14 29.7733 15.2772 28.4961 16.8527 28.4961H59.8898C61.4654 28.4961 62.7425 29.7733 62.7425 31.3488V33.6397H62.7426Z" fill="#FFD3BD"/>
<path d="M14 31.3488V33.6397H22.5775C22.6406 31.9753 22.7629 30.2592 22.9487 28.4961H16.8527C15.2772 28.4961 14 29.7733 14 31.3488H14Z" fill="#FFBE9D"/>
<path d="M49.8941 42.9189C49.8941 49.6617 44.725 55.1474 38.3713 55.1474C32.0176 55.1474 26.8485 49.6616 26.8485 42.9189C26.8485 39.618 17.8885 39.5771 14 40.999V52.9387C14 57.2663 17.5082 60.7745 21.8359 60.7745H54.9068C59.2344 60.7745 62.7426 57.2663 62.7426 52.9387V39.021C57.4271 36.4003 49.8941 39.0936 49.8941 42.9189Z" fill="#EDA1AB"/>
<path d="M22.6524 40.2755C19.7846 39.8803 16.1309 40.2202 14 40.9993V52.9391C14 57.2667 17.5082 60.775 21.8359 60.775H30.7182C26.2712 57.4496 23.2852 50.1265 22.6524 40.2755Z" fill="#E8899E"/>
<path d="M19.1533 48.0672C18.9621 48.0672 18.7709 47.9943 18.6251 47.8485C18.3333 47.5566 18.3333 47.0837 18.6251 46.7918L19.6039 45.813C19.8957 45.5213 20.3687 45.5213 20.6604 45.813C20.9521 46.1048 20.9521 46.5778 20.6604 46.8695L19.6815 47.8484C19.5356 47.9942 19.3444 48.0672 19.1533 48.0672Z" fill="#EDA1AB"/>
<path d="M22.7078 54.2482C22.5166 54.2482 22.3255 54.1752 22.1795 54.0295L21.5386 53.3886C21.2469 53.0968 21.2469 52.6238 21.5386 52.3321C21.8305 52.0403 22.3033 52.0404 22.5952 52.332L23.2361 52.9729C23.5278 53.2647 23.5278 53.7377 23.2361 54.0294C23.0902 54.1753 22.899 54.2482 22.7078 54.2482Z" fill="#EDA1AB"/>
<path d="M28.54 57.8245C28.3489 57.8245 28.1576 57.7516 28.0118 57.6058C27.72 57.3139 27.72 56.841 28.0118 56.5492L29.0791 55.4819C29.3709 55.1903 29.8439 55.1903 30.1356 55.4819C30.4273 55.7738 30.4273 56.2467 30.1356 56.5385L29.0682 57.6058C28.9224 57.7515 28.7312 57.8245 28.54 57.8245Z" fill="#E8899E"/>
<path d="M43.6123 36.3425C42.9922 35.7572 42.5571 35.0063 42.3273 34.1853C39.6837 24.7417 32.8263 16.6647 27.5086 13.3242C26.6517 12.7853 25.4941 12.9189 24.7883 13.7205C24.0592 14.5486 24.121 15.8046 24.8758 16.6096C28.9373 20.9417 32.5608 27.7249 33.2278 34.6154C33.3128 35.493 33.0376 36.3684 32.4699 37.0431C31.1671 38.5917 30.3719 40.654 30.3719 42.9189C30.3719 47.7274 33.9539 51.6254 38.3724 51.6254C42.791 51.6254 46.373 47.7274 46.373 42.9189C46.373 40.292 45.303 37.9383 43.6123 36.3425Z" fill="#4E5660"/>
<path d="M61.7276 60.7367C66.0771 56.3872 66.0771 49.3354 61.7276 44.986C57.3782 40.6365 50.3264 40.6365 45.9769 44.986C41.6275 49.3354 41.6275 56.3872 45.9769 60.7367C50.3264 65.0861 57.3782 65.0861 61.7276 60.7367Z" fill="#00AAE4"/>
<path d="M56.0608 50.0776V46.8447C56.0608 46.5225 55.7995 46.2612 55.4773 46.2612H52.2445C51.9222 46.2612 51.661 46.5225 51.661 46.8447V50.0776C51.661 50.3998 51.3997 50.6611 51.0774 50.6611H47.8446C47.5224 50.6611 47.2611 50.9223 47.2611 51.2446V54.4774C47.2611 54.7996 47.5224 55.0609 47.8446 55.0609H51.0774C51.3997 55.0609 51.661 55.3222 51.661 55.6444V58.8773C51.661 59.1995 51.9222 59.4608 52.2445 59.4608H55.4773C55.7995 59.4608 56.0608 59.1995 56.0608 58.8773V55.6444C56.0608 55.3222 56.3221 55.0609 56.6443 55.0609H59.8771C60.1994 55.0609 60.4606 54.7996 60.4606 54.4774V51.2446C60.4606 50.9223 60.1994 50.6611 59.8771 50.6611H56.6443C56.3221 50.6611 56.0608 50.3999 56.0608 50.0776Z" fill="white"/>
</g>
<defs>
<clipPath id="clip0_161_3273">
<rect width="51" height="51" fill="white" transform="translate(14 13)"/>
</clipPath>
</defs>
</svg>
