<svg width="76" height="76" viewBox="0 0 76 76" fill="none" xmlns="http://www.w3.org/2000/svg">
<rect width="76" height="76" rx="38" fill="#F8FCFD"/>
<g clip-path="url(#clip0_161_3099)">
<path d="M13 46.3691C13 43.3483 15.4577 40.8906 18.4785 40.8906H22.6621C23.4873 40.8906 24.1563 41.5596 24.1563 42.3848C24.1563 43.2099 23.4873 43.8789 22.6621 43.8789H18.4785C17.1054 43.8789 15.9883 44.996 15.9883 46.3691V54.5371C15.9883 55.9102 17.1054 57.0273 18.4785 57.0273H28.4395C29.2646 57.0273 29.9336 57.6963 29.9336 58.5215C29.9336 59.3467 29.2646 60.0156 28.4395 60.0156H18.4785C15.4577 60.0156 13 57.558 13 54.5371V46.3691Z" fill="#F80000"/>
<path d="M59.5176 13H25.6504C23.1788 13 21.168 15.0108 21.168 17.4824V43.3809C21.168 45.8525 23.1788 47.8633 25.6504 47.8633H59.5176C61.9892 47.8633 64 45.8525 64 43.3809V17.4824C64 15.0108 61.9892 13 59.5176 13Z" fill="#0387D1"/>
<path d="M59.5189 13H42.5853V47.8633H59.5189C61.9905 47.8633 64.0013 45.8525 64.0013 43.3809V17.4824C64.0013 15.0108 61.9905 13 59.5189 13Z" fill="#00AAE4"/>
<path d="M25.6504 15.9883H59.5176C60.3414 15.9883 61.0117 16.6586 61.0117 17.4824V36.4082H24.1562V17.4824C24.1562 16.6586 24.8265 15.9883 25.6504 15.9883Z" fill="#91D8F0"/>
<path d="M61.0131 17.4824C61.0131 16.6586 60.3428 15.9883 59.5189 15.9883H42.5853V36.4082H61.0131V17.4824Z" fill="#B7E0EE"/>
<path d="M28.6387 43.6299C29.4639 43.6299 30.1328 42.9609 30.1328 42.1357C30.1328 41.3106 29.4639 40.6416 28.6387 40.6416C27.8135 40.6416 27.1445 41.3106 27.1445 42.1357C27.1445 42.9609 27.8135 43.6299 28.6387 43.6299Z" fill="white"/>
<path d="M34.6152 43.6299C35.4404 43.6299 36.1094 42.9609 36.1094 42.1357C36.1094 41.3106 35.4404 40.6416 34.6152 40.6416C33.79 40.6416 33.1211 41.3106 33.1211 42.1357C33.1211 42.9609 33.79 43.6299 34.6152 43.6299Z" fill="#F8FCFD"/>
<path d="M40.5918 43.6299C41.417 43.6299 42.0859 42.9609 42.0859 42.1357C42.0859 41.3106 41.417 40.6416 40.5918 40.6416C39.7666 40.6416 39.0977 41.3106 39.0977 42.1357C39.0977 42.9609 39.7666 43.6299 40.5918 43.6299Z" fill="#FFF0F2"/>
<path d="M31.627 21.4668H28.6387C27.8135 21.4668 27.1445 20.7978 27.1445 19.9727C27.1445 19.1475 27.8135 18.4785 28.6387 18.4785H31.627C32.4521 18.4785 33.1211 19.1475 33.1211 19.9727C33.1211 20.7978 32.4521 21.4668 31.627 21.4668Z" fill="#F8FCFD"/>
<path d="M56.5293 43.6299H50.5527C49.7276 43.6299 49.0586 42.9609 49.0586 42.1357C49.0586 41.3106 49.7276 40.6416 50.5527 40.6416H56.5293C57.3545 40.6416 58.0234 41.3106 58.0234 42.1357C58.0234 42.9609 57.3545 43.6299 56.5293 43.6299Z" fill="#F8FCFD"/>
<path d="M42.5855 32.9148C38.6318 32.9148 34.678 31.4099 31.6682 28.3999C31.388 28.1197 31.2305 27.7397 31.2305 27.3435C31.2305 26.9472 31.3879 26.5672 31.6682 26.287L38.0073 19.9479C38.5907 19.3644 39.5368 19.3644 40.1203 19.9479C41.4796 21.3072 43.6915 21.3072 45.0508 19.9479C45.6343 19.3645 46.5804 19.3644 47.1638 19.9479L53.5029 26.287C53.7831 26.5672 53.9406 26.9472 53.9406 27.3435C53.9406 27.7398 53.7832 28.1197 53.5029 28.3999C50.493 31.4099 46.5392 32.9148 42.5855 32.9148Z" fill="#00AAE4"/>
<path d="M53.5027 26.2865L47.1636 19.9474C46.5803 19.3639 45.6342 19.3639 45.0506 19.9474C44.3709 20.627 43.4781 20.9669 42.5853 20.9669V32.9144C46.539 32.9144 50.4928 31.4096 53.5027 28.3996C53.7829 28.1194 53.9404 27.7393 53.9404 27.3431C53.9403 26.9469 53.7829 26.5667 53.5027 26.2865Z" fill="white"/>
<path d="M48.3613 62.0078H29.4355C28.0624 62.0078 26.9453 60.8907 26.9453 59.5176V57.5254C26.9453 56.1523 28.0624 55.0352 29.4355 55.0352H48.3613C49.1865 55.0352 49.8555 55.7041 49.8555 56.5293V60.5137C49.8555 61.3388 49.1865 62.0078 48.3613 62.0078Z" fill="#00AAE4"/>
<path d="M26.9453 58.5215V59.5176C26.9453 60.8907 28.0624 62.0078 29.4355 62.0078H48.3613C49.1865 62.0078 49.8555 61.3388 49.8555 60.5137V58.5215H26.9453Z" fill="#027EC3"/>
<path d="M47.9105 62.0078L49.7518 63.2353C50.5021 63.7355 51.3753 64 52.2773 64C54.7875 64 56.8297 61.9578 56.8297 59.4475V57.5954C56.8297 55.0852 54.7875 53.043 52.2773 53.043C51.3753 53.043 50.5022 53.3074 49.752 53.8076L47.9105 55.0352V62.0078Z" fill="#F80000"/>
<path d="M47.9105 58.5215V62.0078L49.7518 63.2353C50.5021 63.7355 51.3753 64 52.2773 64C54.7875 64 56.8297 61.9578 56.8297 59.4475V58.5215H47.9105Z" fill="#CC0606"/>
</g>
<defs>
<clipPath id="clip0_161_3099">
<rect width="51" height="51" fill="white" transform="translate(13 13)"/>
</clipPath>
</defs>
</svg>
