<svg width="76" height="76" viewBox="0 0 76 76" fill="none" xmlns="http://www.w3.org/2000/svg">
<rect width="76" height="76" rx="38" fill="#F8FCFD"/>
<g clip-path="url(#clip0_161_3577)">
<path d="M43.0257 55.6592C42.5253 55.6394 42.0406 55.3911 41.737 54.9453C41.2285 54.1987 41.4217 53.1811 42.1684 52.6726C43.619 51.6849 44.7833 50.1544 45.4471 48.3629C47.6705 42.3636 43.3039 39.393 42.6177 34.0985C41.9744 29.1331 45.3573 24.1829 50.2233 22.9661C51.0999 22.7473 51.9878 23.2797 52.2069 24.1561C52.4262 25.0324 51.8934 25.9206 51.017 26.1397C47.7609 26.9538 45.4318 30.359 45.862 33.6781C46.2128 36.387 48.1821 38.9709 48.9757 42.1327C50.2007 47.0132 48.1121 52.5832 44.0096 55.3767C43.7086 55.5816 43.3636 55.6726 43.0257 55.6592Z" fill="#F80000"/>
<path d="M33.9766 55.6592C34.477 55.6394 34.9617 55.3911 35.2653 54.9453C35.7738 54.1987 35.5806 53.1811 34.8339 52.6726C33.3833 51.6849 32.219 50.1544 31.5552 48.3629C29.3318 42.3636 33.6984 39.393 34.3846 34.0985C35.0278 29.1331 31.645 24.1829 26.779 22.9661C25.9024 22.7473 25.0145 23.2797 24.7954 24.1561C24.5761 25.0324 25.1089 25.9206 25.9853 26.1397C29.2414 26.9538 31.5705 30.359 31.1403 33.6781C30.7895 36.387 28.8202 38.9709 28.0266 42.1327C26.8016 47.0132 28.8902 52.5832 32.9927 55.3767C33.2937 55.5816 33.6387 55.6726 33.9766 55.6592Z" fill="#F80000"/>
<path d="M55.044 13.2178H54.182C51.7742 13.2178 49.7571 15.1277 49.7231 17.5353C49.7061 18.7434 50.1777 19.8407 50.9532 20.6428C51.1366 20.8324 51.1359 21.1361 50.9525 21.3258C50.1911 22.1138 49.7227 23.1865 49.7227 24.3692C49.7227 25.5512 50.1911 26.6238 50.9525 27.4118C51.1359 27.6016 51.1366 27.9052 50.9532 28.0948C50.1778 28.8969 49.7062 29.9941 49.7231 31.2022C49.7571 33.6099 51.7741 35.5198 54.182 35.5198H55.044C59.5721 35.5198 63.9996 30.5269 63.9996 24.3692C63.9996 18.2116 59.5721 13.2178 55.044 13.2178Z" fill="#EDA1AB"/>
<path d="M55.0434 13.2178H54.1028C53.7821 13.2178 53.4699 13.2531 53.1688 13.3186C57.2804 14.0516 61.0066 18.7203 61.0066 24.3692C61.0066 30.0181 57.2804 34.686 53.1689 35.419C53.4699 35.4844 53.7822 35.5198 54.1028 35.5198H55.0434C59.5714 35.5198 63.999 30.5269 63.999 24.3692C63.999 18.2115 59.5714 13.2178 55.0434 13.2178Z" fill="#DF6C85"/>
<path d="M21.9556 13.2178H22.8176C25.2256 13.2178 27.2425 15.1277 27.2765 17.5353C27.2935 18.7434 26.8219 19.8407 26.0464 20.6428C25.8631 20.8324 25.8638 21.1361 26.0471 21.3258C26.8085 22.1138 27.2769 23.1865 27.2769 24.3692C27.2769 25.5512 26.8085 26.6238 26.0471 27.4118C25.8638 27.6016 25.8631 27.9052 26.0464 28.0948C26.8218 28.8969 27.2935 29.9942 27.2765 31.2022C27.2425 33.6099 25.2256 35.5197 22.8176 35.5197H21.9556C17.4275 35.5197 13 30.5269 13 24.3692C13 18.2116 17.4275 13.2178 21.9556 13.2178Z" fill="#EDA1AB"/>
<path d="M27.2756 24.3692C27.2756 23.1865 26.8072 22.1138 26.0458 21.3258C25.8624 21.136 25.8617 20.8324 26.0451 20.6428C26.8206 19.8407 27.2922 18.7433 27.2752 17.5352C27.2411 15.1276 25.2241 13.2178 22.8163 13.2178H21.9542C21.5801 13.2178 21.2068 13.2525 20.8364 13.3186C22.8068 13.7467 24.2833 15.5 24.2833 17.5986C24.2833 18.8557 23.7543 19.9884 22.9066 20.7871C22.7925 20.8946 22.7925 21.0733 22.9066 21.1807C23.7543 21.9795 24.2833 23.1122 24.2833 24.3692C24.2833 25.6254 23.7543 26.7581 22.9066 27.5568C22.7925 27.6643 22.7925 27.843 22.9066 27.9505C23.7543 28.7493 24.2833 29.8819 24.2833 31.139C24.2833 33.2375 22.8068 34.9908 20.8364 35.419C21.2068 35.4851 21.5801 35.5198 21.9543 35.5198H22.8164C25.2244 35.5198 27.2415 33.6097 27.2753 31.2019C27.2922 29.9939 26.8206 28.8968 26.0452 28.0948C25.8618 27.9052 25.8625 27.6015 26.0459 27.4118C26.8072 26.6238 27.2756 25.5512 27.2756 24.3692Z" fill="#DF6C85"/>
<path d="M47.8017 51.0646C47.4073 48.5497 43.638 46.917 38.5019 46.917C33.3657 46.917 29.5965 48.5496 29.2021 51.0646C28.8049 53.5965 31.954 57.5064 35.983 58.7461C36.426 58.8825 36.7256 59.2952 36.7256 59.7588V61.9555C36.7256 62.9119 37.4607 63.7349 38.416 63.7799C39.436 63.828 40.2781 63.0151 40.2781 62.0057V59.7589C40.2781 59.2954 40.5777 58.8826 41.0208 58.7462C45.0498 57.5064 48.1989 53.5964 47.8017 51.0646Z" fill="#EDA1AB"/>
<path d="M47.7981 51.0647C47.4618 48.9203 44.671 47.4183 40.6724 47.022C43.5139 47.797 45.4051 49.3236 45.6783 51.0647C46.0754 53.5966 42.9264 56.6341 38.8974 57.8738C38.4543 58.0101 38.1547 58.423 38.1547 58.8866V62.0057C38.1547 62.5861 37.8755 63.1004 37.4449 63.4246C37.7166 63.6321 38.0483 63.7628 38.4125 63.7801C39.4325 63.8281 40.2745 63.0153 40.2745 62.0058V59.759C40.2745 59.2954 40.5742 58.8827 41.0172 58.7463C45.0462 57.5065 48.1953 53.5965 47.7981 51.0647Z" fill="#DF6C85"/>
<path d="M45.2038 40.1019C49.0665 36.2392 49.0665 29.9766 45.2038 26.1139C41.3411 22.2512 35.0785 22.2512 31.2158 26.1139C27.3531 29.9766 27.3531 36.2392 31.2158 40.1019C35.0785 43.9646 41.3411 43.9646 45.2038 40.1019Z" fill="#00AAE4"/>
<path d="M40.1734 30.6358V27.7647C40.1734 27.4786 39.9414 27.2466 39.6551 27.2466H36.7841C36.4979 27.2466 36.2659 27.4786 36.2659 27.7647V30.6358C36.2659 30.922 36.0339 31.154 35.7477 31.154H32.8767C32.5905 31.154 32.3585 31.3859 32.3585 31.6721V34.5432C32.3585 34.8293 32.5905 35.0613 32.8767 35.0613H35.7477C36.0339 35.0613 36.2659 35.2933 36.2659 35.5795V38.4505C36.2659 38.7367 36.4979 38.9688 36.7841 38.9688H39.6551C39.9413 38.9688 40.1734 38.7368 40.1734 38.4505V35.5795C40.1734 35.2933 40.4054 35.0613 40.6915 35.0613H43.5626C43.8488 35.0613 44.0807 34.8293 44.0807 34.5432V31.6721C44.0807 31.3859 43.8488 31.154 43.5626 31.154H40.6915C40.4054 31.154 40.1734 30.922 40.1734 30.6358Z" fill="white"/>
</g>
<defs>
<clipPath id="clip0_161_3577">
<rect width="51" height="51" fill="white" transform="translate(13 13)"/>
</clipPath>
</defs>
</svg>
