<svg width="42" height="42" viewBox="0 0 42 42" fill="none" xmlns="http://www.w3.org/2000/svg">
<path d="M21 42C32.598 42 42 32.598 42 21C42 9.40202 32.598 0 21 0C9.40202 0 0 9.40202 0 21C0 32.598 9.40202 42 21 42Z" fill="#665CAC"/>
<path d="M23.2087 10.9717H18.7876C16.7357 10.9717 14.7678 11.7868 13.3169 13.2377C11.8659 14.6887 11.0508 16.6566 11.0508 18.7085V22.0243C11.0502 23.489 11.4653 24.9237 12.2479 26.1617C13.0306 27.3997 14.1485 28.3902 15.4718 29.0179V32.7122C15.4732 32.7843 15.4955 32.8544 15.5361 32.914C15.5767 32.9735 15.6338 33.0199 15.7004 33.0475C15.767 33.0751 15.8402 33.0826 15.911 33.0692C15.9818 33.0558 16.0472 33.022 16.0991 32.9719L19.3099 29.7612H23.2087C25.2606 29.7612 27.2285 28.946 28.6795 27.4951C30.1304 26.0441 30.9455 24.0763 30.9455 22.0243V18.7085C30.9455 16.6566 30.1304 14.6887 28.6795 13.2377C27.2285 11.7868 25.2606 10.9717 23.2087 10.9717ZM26.1045 25.4727L24.9992 26.578C23.8221 27.7302 20.7495 26.415 18.0416 23.649C15.3337 20.8831 14.1455 17.7801 15.2784 16.6279L16.3837 15.5226C16.6003 15.3282 16.882 15.222 17.173 15.2251C17.4641 15.2281 17.7435 15.3402 17.9559 15.5392L19.5696 17.1971C19.6978 17.3293 19.7902 17.492 19.8382 17.6698C19.8862 17.8476 19.8882 18.0347 19.8439 18.2135C19.7997 18.3922 19.7108 18.5568 19.5855 18.6918C19.4601 18.8267 19.3025 18.9276 19.1275 18.9848C18.8681 19.0644 18.6493 19.2409 18.5165 19.4776C18.3837 19.7143 18.3473 19.993 18.4146 20.2559C18.6909 21.4827 20.2493 23.019 21.4099 23.3202C21.6715 23.3826 21.9469 23.3474 22.1845 23.2212C22.422 23.0951 22.6054 22.8866 22.7003 22.635C22.7616 22.4594 22.867 22.3026 23.0065 22.1797C23.1459 22.0567 23.3147 21.9717 23.4965 21.9328C23.6783 21.894 23.8671 21.9026 24.0446 21.9578C24.2221 22.013 24.3824 22.113 24.5101 22.2481L26.1211 23.906C26.3145 24.122 26.4201 24.4026 26.4171 24.6926C26.414 24.9826 26.3025 25.2609 26.1045 25.4727ZM22.004 16.2217C21.8941 16.2212 21.7842 16.2276 21.6751 16.241C21.6271 16.2463 21.5784 16.242 21.532 16.2285C21.4856 16.2149 21.4422 16.1924 21.4045 16.1621C21.3668 16.1318 21.3354 16.0944 21.3122 16.052C21.2889 16.0096 21.2742 15.963 21.269 15.915C21.2637 15.8669 21.268 15.8182 21.2815 15.7718C21.295 15.7254 21.3176 15.6821 21.3479 15.6443C21.3781 15.6066 21.4155 15.5752 21.458 15.552C21.5004 15.5287 21.5469 15.514 21.595 15.5088C21.7308 15.4932 21.8673 15.4858 22.004 15.4867C22.9818 15.4859 23.92 15.8735 24.6122 16.5642C25.3044 17.2548 25.6941 18.1921 25.6955 19.17C25.6964 19.3066 25.6891 19.4432 25.6734 19.5789C25.6682 19.627 25.6535 19.6736 25.6302 19.716C25.607 19.7584 25.5756 19.7958 25.5379 19.8261C25.5002 19.8563 25.4568 19.8789 25.4104 19.8924C25.364 19.906 25.3153 19.9102 25.2673 19.905C25.2192 19.8997 25.1726 19.885 25.1302 19.8618C25.0878 19.8385 25.0504 19.8071 25.0201 19.7694C24.9898 19.7317 24.9673 19.6884 24.9537 19.6419C24.9402 19.5955 24.9359 19.5469 24.9412 19.4988C24.9532 19.3896 24.9597 19.2798 24.9605 19.17C24.9591 18.387 24.6468 17.6367 24.0925 17.0839C23.5381 16.5311 22.7869 16.2209 22.004 16.2217ZM24.2145 19.17C24.2065 19.2623 24.1642 19.3483 24.0959 19.4109C24.0276 19.4735 23.9383 19.5083 23.8456 19.5083C23.7529 19.5083 23.6636 19.4735 23.5953 19.4109C23.527 19.3483 23.4847 19.2623 23.4767 19.17C23.4767 18.7794 23.3216 18.4048 23.0454 18.1286C22.7692 17.8524 22.3946 17.6972 22.004 17.6972C21.9528 17.7016 21.9013 17.6954 21.8528 17.6789C21.8042 17.6623 21.7596 17.6359 21.7217 17.6012C21.6839 17.5665 21.6537 17.5244 21.6331 17.4774C21.6124 17.4304 21.6017 17.3796 21.6017 17.3283C21.6017 17.277 21.6124 17.2263 21.6331 17.1793C21.6537 17.1323 21.6839 17.0901 21.7217 17.0554C21.7596 17.0208 21.8042 16.9943 21.8528 16.9778C21.9013 16.9613 21.9528 16.955 22.004 16.9594C22.5902 16.9594 23.1525 17.1923 23.567 17.6069C23.9816 18.0214 24.2145 18.5837 24.2145 19.17ZM27.0246 20.3664C27.0164 20.4166 26.998 20.4647 26.9705 20.5074C26.9429 20.5502 26.9068 20.5869 26.8645 20.6151C26.8221 20.6433 26.7744 20.6625 26.7243 20.6714C26.6742 20.6804 26.6228 20.6789 26.5733 20.6671C26.5238 20.6553 26.4772 20.6334 26.4366 20.6028C26.3959 20.5722 26.362 20.5336 26.3369 20.4893C26.3118 20.445 26.2962 20.396 26.2909 20.3454C26.2856 20.2948 26.2908 20.2436 26.3062 20.1951C26.386 19.8611 26.4259 19.5189 26.425 19.1755C26.425 18.003 25.9592 16.8784 25.1301 16.0493C24.301 15.2202 23.1765 14.7544 22.004 14.7544C21.8907 14.7544 21.7746 14.7544 21.6613 14.7544C21.6131 14.7581 21.5646 14.7522 21.5186 14.737C21.4726 14.7219 21.4301 14.6979 21.3934 14.6663C21.3193 14.6026 21.2735 14.512 21.2662 14.4146C21.2589 14.3171 21.2906 14.2207 21.3543 14.1466C21.418 14.0725 21.5086 14.0268 21.6061 14.0194C21.7387 14.0084 21.8713 14.0029 22.004 14.0029C23.3729 14.0051 24.6851 14.5504 25.6523 15.5192C26.6195 16.488 27.1628 17.801 27.1628 19.17C27.1629 19.5728 27.1166 19.9742 27.0246 20.3664Z" fill="white"/>
</svg>
