<svg width="42" height="42" viewBox="0 0 42 42" fill="none" xmlns="http://www.w3.org/2000/svg">
<path d="M21 42C32.598 42 42 32.598 42 21C42 9.40202 32.598 0 21 0C9.40202 0 0 9.40202 0 21C0 32.598 9.40202 42 21 42Z" fill="#4169E1"/>
<path d="M33.2273 28.0521C32.6164 28.138 29.6287 28.0521 29.4736 28.0521C28.7013 28.0619 27.9562 27.767 27.3998 27.2311C26.7698 26.625 26.2067 25.9568 25.591 25.3221C25.4089 25.1294 25.2118 24.9514 25.0015 24.7899C24.5099 24.4105 24.0231 24.4964 23.7917 25.0763C23.6108 25.7029 23.4846 26.3441 23.4146 26.9925C23.374 27.5796 23.0018 27.9471 22.3431 27.9876C21.9351 28.0091 21.527 28.0163 21.1237 28.0067C19.6539 27.9973 18.2073 27.64 16.9022 26.9639C15.4901 26.177 14.2598 25.1012 13.2917 23.8067C11.6999 21.7735 10.428 19.5399 9.2921 17.2371C9.23245 17.1225 8.0679 14.6455 8.03926 14.5285C7.93426 14.1372 8.03926 13.7625 8.36142 13.6336C8.56665 13.5549 12.4039 13.6336 12.4684 13.6336C12.7536 13.6312 13.0323 13.7196 13.264 13.886C13.4956 14.0525 13.6683 14.2884 13.757 14.5596C14.4663 16.3759 15.4375 18.0787 16.6397 19.6139C16.808 19.8192 17.0049 19.9992 17.2244 20.1484C17.537 20.3608 17.8329 20.2868 17.9618 19.9265C18.1145 19.4265 18.2043 18.9095 18.229 18.3873C18.2505 17.3516 18.229 16.6691 18.1718 15.6358C18.1336 14.9724 17.8997 14.3901 16.9213 14.204C16.6206 14.1515 16.5944 13.9033 16.7877 13.6551C17.191 13.1397 17.7422 13.0585 18.3603 13.0275C19.2814 12.975 20.2026 13.0108 21.1237 13.0275H21.3242C21.725 13.026 22.125 13.0668 22.5173 13.1492C22.7493 13.1961 22.9598 13.3167 23.1177 13.493C23.2755 13.6693 23.3721 13.8919 23.3931 14.1276C23.4403 14.3889 23.4603 14.6545 23.4528 14.9199C23.4289 16.051 23.374 17.1798 23.3621 18.3109C23.3511 18.7588 23.392 19.2064 23.4838 19.6449C23.6151 20.2463 24.0279 20.3966 24.4384 19.9623C24.9698 19.4008 25.4573 18.7993 25.8964 18.163C26.6729 17.0033 27.3135 15.7582 27.8055 14.4522C28.0728 13.7816 28.2828 13.6336 28.9987 13.6336H33.0698C33.3119 13.6294 33.5532 13.6616 33.7857 13.7291C33.868 13.7507 33.945 13.7891 34.0118 13.8418C34.0785 13.8946 34.1337 13.9605 34.1738 14.0356C34.2139 14.1106 34.2381 14.1932 34.2448 14.278C34.2515 14.3628 34.2407 14.4481 34.2129 14.5285C34.0125 15.421 33.5304 16.1823 33.0197 16.9149C32.1917 18.089 31.3182 19.2321 30.4711 20.3871C30.3639 20.5402 30.2659 20.6996 30.1776 20.8643C29.8578 21.4394 29.8817 21.7616 30.3446 22.2413C31.0844 23.0001 31.8743 23.7136 32.5878 24.4964C33.1117 25.0654 33.5844 25.6795 34.0005 26.3315C34.5231 27.1405 34.201 27.9136 33.2273 28.0521Z" fill="white"/>
<path d="M21 42C32.598 42 42 32.598 42 21C42 9.40202 32.598 0 21 0C9.40202 0 0 9.40202 0 21C0 32.598 9.40202 42 21 42Z" fill="#4169E1"/>
<path d="M32.2273 29.0521C31.6164 29.138 28.6287 29.0521 28.4736 29.0521C27.7013 29.0619 26.9562 28.767 26.3998 28.2311C25.7698 27.625 25.2067 26.9568 24.591 26.3221C24.4089 26.1294 24.2118 25.9514 24.0015 25.7899C23.5099 25.4105 23.0231 25.4964 22.7917 26.0763C22.6108 26.7029 22.4846 27.3441 22.4146 27.9925C22.374 28.5796 22.0018 28.9471 21.3431 28.9876C20.9351 29.0091 20.527 29.0163 20.1237 29.0067C18.6539 28.9973 17.2073 28.64 15.9022 27.9639C14.4901 27.177 13.2598 26.1012 12.2917 24.8067C10.6999 22.7735 9.42801 20.5399 8.2921 18.2371C8.23245 18.1225 7.0679 15.6455 7.03926 15.5285C6.93426 15.1372 7.03926 14.7625 7.36142 14.6336C7.56665 14.5549 11.4039 14.6336 11.4684 14.6336C11.7536 14.6312 12.0323 14.7196 12.264 14.886C12.4956 15.0525 12.6683 15.2884 12.757 15.5596C13.4663 17.3759 14.4375 19.0787 15.6397 20.6139C15.808 20.8192 16.0049 20.9992 16.2244 21.1484C16.537 21.3608 16.8329 21.2868 16.9618 20.9265C17.1145 20.4265 17.2043 19.9095 17.229 19.3873C17.2505 18.3516 17.229 17.6691 17.1718 16.6358C17.1336 15.9724 16.8997 15.3901 15.9213 15.204C15.6206 15.1515 15.5944 14.9033 15.7877 14.6551C16.191 14.1397 16.7422 14.0585 17.3603 14.0275C18.2814 13.975 19.2026 14.0108 20.1237 14.0275H20.3242C20.725 14.026 21.125 14.0668 21.5173 14.1492C21.7493 14.1961 21.9598 14.3167 22.1177 14.493C22.2755 14.6693 22.3721 14.8919 22.3931 15.1276C22.4403 15.3889 22.4603 15.6545 22.4528 15.9199C22.4289 17.051 22.374 18.1798 22.3621 19.3109C22.3511 19.7588 22.392 20.2064 22.4838 20.6449C22.6151 21.2463 23.0279 21.3966 23.4384 20.9623C23.9698 20.4008 24.4573 19.7993 24.8964 19.163C25.6729 18.0033 26.3135 16.7582 26.8055 15.4522C27.0728 14.7816 27.2828 14.6336 27.9987 14.6336H32.0698C32.3119 14.6294 32.5532 14.6616 32.7857 14.7291C32.868 14.7507 32.945 14.7891 33.0118 14.8418C33.0785 14.8946 33.1337 14.9605 33.1738 15.0356C33.2139 15.1106 33.2381 15.1932 33.2448 15.278C33.2515 15.3628 33.2407 15.4481 33.2129 15.5285C33.0125 16.421 32.5304 17.1823 32.0197 17.9149C31.1917 19.089 30.3182 20.2321 29.4711 21.3871C29.3639 21.5402 29.2659 21.6996 29.1776 21.8643C28.8578 22.4394 28.8817 22.7616 29.3446 23.2413C30.0844 24.0001 30.8743 24.7136 31.5878 25.4964C32.1117 26.0654 32.5844 26.6795 33.0005 27.3315C33.5231 28.1405 33.201 28.9136 32.2273 29.0521Z" fill="white"/>
</svg>
