<svg width="25" height="25" viewBox="0 0 25 25" fill="none" xmlns="http://www.w3.org/2000/svg">
<path d="M8.91809 4.09091C10.51 1.30303 14.49 1.30303 16.0819 4.09091L24.4397 18.7273C26.0317 21.5152 24.0417 25 20.8578 25H4.1422C0.958283 25 -1.03167 21.5152 0.560294 18.7273L8.91809 4.09091Z" fill="#F80000"/>
<path d="M12.5 8C11.182 8 10.9385 9.26336 11.0117 10.5648L11.2128 15.1705C11.4981 16.6095 13.5026 16.6061 13.7871 15.1705L13.9883 10.5648C14.0615 9.16076 13.8183 8 12.5 8Z" fill="white"/>
<path d="M12.5 21C13.299 21 13.9467 20.3354 13.9467 19.5155C13.9467 18.6957 13.299 18.0311 12.5 18.0311C11.7011 18.0311 11.0534 18.6957 11.0534 19.5155C11.0534 20.3354 11.7011 21 12.5 21Z" fill="white"/>
</svg>
