<svg width="42" height="42" viewBox="0 0 42 42" fill="none" xmlns="http://www.w3.org/2000/svg">
<path d="M21 42C32.598 42 42 32.598 42 21C42 9.40202 32.598 0 21 0C9.40202 0 0 9.40202 0 21C0 32.598 9.40202 42 21 42Z" fill="#4CAF50"/>
<path d="M21.0016 9.94727C18.9653 9.94804 16.9689 10.5113 15.2326 11.5749C13.4962 12.6385 12.0874 14.1611 11.1616 15.9746C10.2358 17.7882 9.82899 19.8223 9.98606 21.8525C10.1431 23.8826 10.858 25.8299 12.0517 27.4795L10.6701 31.5856L14.9226 30.2261C16.3612 31.175 18.0018 31.7744 19.7134 31.9764C21.4249 32.1783 23.1599 31.9772 24.7799 31.3892C26.3999 30.8011 27.8599 29.8424 29.0433 28.5895C30.2268 27.3367 31.1008 25.8244 31.5957 24.1736C32.0906 22.5228 32.1925 20.7791 31.8934 19.0818C31.5944 17.3846 30.9025 15.7808 29.8732 14.3985C28.8438 13.0163 27.5055 11.8939 25.9651 11.121C24.4248 10.3481 22.725 9.94618 21.0016 9.94727ZM26.876 25.5784L25.6989 26.7556C24.461 27.9935 21.1784 26.6312 18.2688 23.7161C15.3592 20.801 14.055 17.5266 15.2321 16.3025L16.4092 15.1254C16.6371 14.9159 16.9354 14.7996 17.245 14.7996C17.5547 14.7996 17.853 14.9159 18.0809 15.1254L19.8162 16.8552C19.9577 16.9927 20.0615 17.1643 20.1176 17.3535C20.1738 17.5427 20.1804 17.7431 20.1369 17.9356C20.0933 18.1281 20.0011 18.3061 19.8689 18.4527C19.7368 18.5993 19.5693 18.7095 19.3823 18.7728C19.1066 18.8609 18.8754 19.052 18.737 19.3062C18.5985 19.5605 18.5634 19.8583 18.6391 20.1378C18.9485 21.4365 20.6202 23.0474 21.8609 23.3569C22.1389 23.4152 22.4286 23.3713 22.6768 23.2332C22.925 23.0952 23.115 22.8722 23.2121 22.6053C23.2746 22.4156 23.3853 22.2455 23.5332 22.1113C23.6812 21.9772 23.8614 21.8837 24.0562 21.84C24.2511 21.7963 24.4539 21.8039 24.645 21.862C24.836 21.9201 25.0088 22.0267 25.1463 22.1715L26.8788 23.9067C27.0879 24.135 27.2037 24.4335 27.2032 24.7431C27.2027 25.0527 27.0859 25.3509 26.876 25.5784Z" fill="white"/>
</svg>
